<svg width="60" height="60" fill="none" xmlns="http://www.w3.org/2000/svg"><rect width="60" height="60" rx="10" fill="#3AABE8" fill-opacity=".1"/><path d="M50.459 30.102a3.447 3.447 0 01-1.636 1.005.77.77 0 01-.326-1.466 3.076 3.076 0 10-3.142-5.248.77.77 0 01-.923-1.23 4.57 4.57 0 011.873-.829 8.51 8.51 0 00-8.333-7.015c-.154 0 0-.012 0 .769a.77.77 0 01-1.538.06 3.2 3.2 0 00-1.682-2.829 3.1 3.1 0 00-4.47 2.769.769.769 0 01-1.538 0c0-.629.129-1.25.38-1.827a6.547 6.547 0 00-10.165 3.62.77.77 0 01-1.488-.388c.116-.429.268-.848.453-1.251a4.222 4.222 0 00-5.306 3.69c.791.003 1.568.21 2.256.6a.77.77 0 01-.762 1.336 3.076 3.076 0 00-3.095 5.314.77.77 0 01-.791 1.32 4.6 4.6 0 01-1.307-1.187 8.089 8.089 0 009.252 11.562 7.272 7.272 0 01-.193-1.642c0-.13.02-.257.026-.384a3.845 3.845 0 01-3.87-3.845.782.782 0 01.768-.785.756.756 0 01.77.754 2.307 2.307 0 002.57 2.319c.174-.639.436-1.25.777-1.818a.77.77 0 111.318.793 5.768 5.768 0 009.316 6.735.846.846 0 01.862-.214 9.92 9.92 0 006.554.24.769.769 0 11.451 1.47 11.42 11.42 0 01-2.605.475c.111 2.162.873 3.362 4.838 4.684a7.118 7.118 0 014.926 4.803.759.759 0 00.736.538h.922a.769.769 0 00.77-.846c-.216-2.14-.896-5.826-3.037-7.742a.78.78 0 01.221-1.285 8.488 8.488 0 004.299-4.01c-.364.19-.744.35-1.135.477a.77.77 0 11-.462-1.468 5.758 5.758 0 003.465-8.024zM44.08 36.86c-1.845 3.692-1.622 3.76-1.622 8.45a.769.769 0 11-1.538 0c0-4.743-.225-5.114 1.785-9.137a2.307 2.307 0 00-1.094-3.123l-1.138-.528a3.083 3.083 0 00-3.948 1.375l-.318.603a2.688 2.688 0 11-1.384-.68l.337-.64a4.579 4.579 0 012.26-2.076l-3.775-1.751a3.08 3.08 0 00-3.913 1.384l-2.392 4.51a2.688 2.688 0 11-1.384-.665l2.418-4.563a4.561 4.561 0 012.256-2.07c-.734-.339-2.127-.98-2.04-.941a3.076 3.076 0 00-3.918 1.336 2.691 2.691 0 11-1.384-.68 4.575 4.575 0 012.259-2.072l-4.008-1.86a3.07 3.07 0 00-3.692.857 2.692 2.692 0 11-1.351-.75 4.603 4.603 0 015.69-1.501l.734.34a4.566 4.566 0 01-.16-1.768 2.685 2.685 0 111.516.548 3.068 3.068 0 001.797 2.685l4.663 2.164c-.645-2.092.3-3.45 1.023-4.817a2.692 2.692 0 111.37.699c-.713 1.346-1.398 2.257-.905 3.735a3.28 3.28 0 002.072 2.03c.404.176-1.461-.672 3.962 1.845a4.632 4.632 0 01.422-3.69 2.685 2.685 0 111.855.746c-.61 0-.415-.176-.59.154a3.1 3.1 0 001.275 4.165c1.242.576 2.454 1 3.05 2.7.346.98.278 2.058-.19 2.986z" fill="#48B7F2"/></svg>