<svg width="60" height="60" fill="none" xmlns="http://www.w3.org/2000/svg"><rect width="60" height="60" rx="10" fill="#F5A75F" fill-opacity=".1"/><path d="M36.754 30.098V18.041c0-3.888-3.235-7.041-7.224-7.041-3.99 0-7.223 3.153-7.223 7.041v12.056c0 3.888 3.233 7.04 7.223 7.04 3.989 0 7.224-3.15 7.224-7.039z" fill="#F5A75F"/><path d="M42.355 30.82v-5.795c.734-.515 1.65-1.287 1.703-1.968.085-1.08-1.703-2.112-1.703-2.112h-2.527v9.876c0 5.53-4.616 10.028-10.29 10.028-5.671 0-10.286-4.498-10.286-10.028v-9.876h-2.528s-1.811.967-1.72 2.112c.053.686.983 1.465 1.72 1.98v5.783c0 5.868 4.174 10.803 9.782 12.135v4.392H24.16v2.64h10.742v-2.64h-2.347V42.96c5.615-1.325 9.8-6.264 9.8-12.14z" fill="#F5A75F"/></svg>