<svg width="60" height="60" fill="none" xmlns="http://www.w3.org/2000/svg"><rect width="60" height="60" rx="10" fill="#E83A3A" fill-opacity=".1"/><path d="M28.334 7.5h21.333c1.471 0 2.667 1.121 2.667 2.5v15c0 1.379-1.196 2.5-2.667 2.5h-4v4.709L37.298 27.5h-8.964c-1.47 0-2.667-1.121-2.667-2.5V10c0-1.379 1.196-2.5 2.667-2.5zm0 17.5h9.703L43 27.791V25h6.666V10H28.334v15z" fill="#E83A3A"/><path d="M45.666 13.75H32.333v2.5h13.333v-2.5zm0 5h-9.333v2.5h9.333v-2.5zM31.02 32.5h-20a2.502 2.502 0 00-2.5 2.5v15c0 1.379 1.12 2.5 2.5 2.5h3.75v4.709l7.846-4.709h8.404c1.378 0 2.5-1.121 2.5-2.5V35c0-1.379-1.122-2.5-2.5-2.5zm0 17.5h-9.097l-4.653 2.791V50h-6.25V35h20v15z" fill="#E83A3A"/><path d="M27.533 39.009l-1.767-1.768-5.992 5.992-2.866-2.867-1.767 1.768 4.633 4.633 7.76-7.758z" fill="#E83A3A"/></svg>