<svg width="60" height="60" fill="none" xmlns="http://www.w3.org/2000/svg"><rect width="60" height="60" rx="10" fill="#10AA7F" fill-opacity=".1"/><path d="M42.302 17.764a5.99 5.99 0 00-.82.056.7.7 0 01-.785-.552 9.165 9.165 0 00-7.694-7.18 9.157 9.157 0 00-9.364 4.797.704.704 0 01-.857.334 4.828 4.828 0 00-1.618-.277 4.941 4.941 0 00-4.932 4.938c0 .421.052.84.155 1.247a.707.707 0 01-.77.872h-.09a3.525 3.525 0 00-3.509 3.172 3.527 3.527 0 002.804 3.812v-2.048c0-.39.316-.705.705-.705h28.185c.389 0 .704.316.704.705v1.702a5.646 5.646 0 00-2.114-10.873z" fill="#24C598"/><path d="M42.847 33.22v-5.593h-26.44v5.593h1.39v2.797h-1.39v5.593h1.39v2.797h-1.39V50h26.44v-5.593h-1.392V41.61h1.392v-5.593h-1.392V33.22h1.392zm-3.48-3.495h1.393c.384 0 .695.313.695.699a.697.697 0 01-.695.699h-1.392a.697.697 0 01-.696-.7c0-.385.311-.698.696-.698zm-20.873 0h18.09a.698.698 0 01.001 1.398H18.494a.697.697 0 01-.696-.7c0-.385.311-.698.696-.698zm0 9.788a.697.697 0 01-.696-.7c0-.386.311-.699.696-.699h18.09a.699.699 0 01.001 1.399H18.494zm20.178-.7c0-.386.311-.699.696-.699h1.392c.384 0 .695.314.695.7a.697.697 0 01-.695.699h-1.392a.697.697 0 01-.696-.7zm2.088 7.691c.384 0 .695.313.695.7a.697.697 0 01-.695.699h-1.392a.697.697 0 01-.696-.7c0-.386.311-.699.696-.699h1.392zm-3.48.7a.697.697 0 01-.695.699H18.494a.697.697 0 01-.696-.7c0-.386.311-.699.696-.699h18.09c.385 0 .697.313.697.7zm2.784-2.797H19.189V41.61h20.875v2.797zm0-8.39H19.189V33.22h20.875v2.797z" fill="#24C598"/></svg>