<svg width="60" height="60" fill="none" xmlns="http://www.w3.org/2000/svg"><rect width="60" height="60" rx="10" fill="#4770D9" fill-opacity=".1"/><path d="M46.313 40.333h-.57v-3.815c0-1.639-1.317-2.971-2.935-2.971h-11.89V28.81h5.645c3.342 0 6.05-2.744 6.05-6.127 0-3.384-2.708-6.125-6.05-6.125-.048 0-.095.005-.143.007C35.724 12.83 32.487 10 28.594 10c-4.398 0-7.967 3.61-7.967 8.068 0 .68.091 1.337.248 1.967-.084-.006-.163-.026-.248-.026-2.4 0-4.345 1.97-4.345 4.402 0 2.33 1.741 4.246 4.005 4.4h7.997v4.736H16.39c-1.619 0-2.934 1.333-2.934 2.971v3.815h-.57c-1.595 0-2.887 1.309-2.887 2.924v3.82C10 48.69 11.292 50 12.887 50h3.773c1.595 0 2.887-1.309 2.887-2.923v-3.82c0-1.615-1.292-2.924-2.887-2.924h-.57v-3.815c0-.168.135-.304.301-.304h11.893v4.12h-.57c-1.595 0-2.887 1.308-2.887 2.922v3.82c0 1.615 1.292 2.924 2.887 2.924h3.773c1.595 0 2.887-1.309 2.887-2.923v-3.82c0-1.615-1.292-2.924-2.887-2.924h-.57v-4.12h11.891c.167 0 .301.137.301.305v3.815h-.569c-1.595 0-2.887 1.309-2.887 2.924v3.82c0 1.614 1.292 2.923 2.887 2.923h3.773c1.594 0 2.887-1.309 2.887-2.923v-3.82c0-1.615-1.293-2.924-2.887-2.924z" fill="#5D84E8"/></svg>