<svg width="300" height="351" fill="none" xmlns="http://www.w3.org/2000/svg"><ellipse cx="160.5" cy="338.222" rx="93.5" ry="12.184" fill="#2A4261"/><ellipse cx="160.5" cy="338.222" rx="93.5" ry="12.184" fill="#2A4261"/><g clip-path="url(#clip0)"><path d="M155.502 336.037c.887-2.41.508-6.091-2.452-8.658-2.945-2.559-5.555-2.616-7.056-2.316-1.494.307-.851 3.724-2.044 5.076-1.194 1.358-3.868 3.546-3.868 3.546s-.901 6.763 5.033 8.178c5.94 1.43 8.864-1.694 10.387-5.826z" fill="#006ECF"/><path d="M144.263 330.668c2.173-2.109 1.951-7.314-3.21-9.809-5.154-2.488-10.495-1.608-14.383.586-3.882 2.188-5.863 5.334-5.298 8.579.565 3.253 8.865 4.79 13.318 4.898 4.468.107 7.836-2.581 9.573-4.254z" fill="#00CEFF"/><path d="M136.8 334.736c-.679.114-1.372.2-2.109.178-4.453-.107-12.753-1.644-13.318-4.897-.314-1.787.172-3.539 1.301-5.126 6.749.372 13.805 3.596 14.126 9.845z" fill="#00B4E8"/><path d="M203.977 326.378c.022-.121 1.344-2.202-1.322-5.169-2.66-2.966-8.036-3.56-9.816-2.566-1.78 1.001-2.966 1.337-3.989.708-1.029-.622-6.133-1.251-9.679.086-3.546 1.336-5.39 5.261-5.512 7.299-.122 2.044 1.401 6.227 6.398 7.149 4.99.929 15.306.586 17.608-.365 2.302-.943 5.64-3.017 6.312-7.142z" fill="#00CEFF"/><path d="M190.974 334.371c-3.76.15-8.15.029-10.909-.486-4.99-.922-6.52-5.105-6.398-7.149.007-.186.05-.401.086-.615 6.455-.122 13.904 3.339 17.221 8.25z" fill="#00B4E8"/><path d="M274.021 135.69l-5.275-9.744s-19.81 8.171-26.48 18.066c-6.677 9.894-4.253 15.27 1.38 18.115 5.633 2.839 10.673 1.159 10.673 1.159l-.857-6.692s-3.21-.279-3.804-4.347c-.858-5.926 24.363-16.557 24.363-16.557z" fill="#006ECF"/><path d="M239.107 150.01c.644-1.788 1.666-3.775 3.167-5.998 6.67-9.895 26.48-18.066 26.48-18.066l1.887 3.496c-8.743 4.318-23.405 11.653-31.534 20.568z" fill="#3A98FF"/><path d="M294.826 126.232l-11.274 3.853s3.303 9.709.507 17.229c-2.788 7.521-5.218 8.222-7.813 9.473-2.595 1.251-6.749.822-6.749.822l-1.165 11.653s12.339.472 24.006-12.732c11.652-13.219 3.631-29.877 2.488-30.298z" fill="#006ECF"/><path d="M290.192 132.43c-.822.322-3.253 1.501-5.533 2.259-.472-2.738-1.108-4.611-1.108-4.611l11.273-3.853c.308.114 1.13 1.429 1.923 3.546-2.216.815-4.382 1.808-6.555 2.659z" fill="#3A98FF"/><path d="M268.91 167.475c1.951-3.353 2.745-11.296-3.01-15.099-7.792-5.154-12.482.179-11.695 9.558.793 9.387 10.802 12.254 14.705 5.541z" fill="#008AFF"/><path d="M257.38 157.852c-1.423 1.03-2.459 2.367-3.181 3.868-.694-9.237 3.975-14.441 11.702-9.337 3.167 2.088 4.347 5.426 4.447 8.579-2.559-3.839-9.186-5.855-12.968-3.11z" fill="#4BAFFF"/><path d="M107.884 166.131s-9.229.586-12.267 1.823c-3.038 1.244-6.563 3.482-7.206 4.983-.644 1.509.65 91.552 1.05 93.525.401 1.966 7.535 6.069 12.368 7.571 4.84 1.522 11.424 4.303 11.424 4.303l-5.369-112.205z" fill="#006ECF"/><path d="M89.376 221.422c4.518 8.615 10.109 16.665 16.621 23.993 1.909 2.144 3.875 4.454 5.998 6.641l1.258 26.273s-6.584-2.781-11.424-4.304c-4.832-1.508-11.967-5.605-12.367-7.571-.2-.986-.622-23.82-.915-46.683.279.55.543 1.108.83 1.651z" fill="#0051B0"/><path d="M211.212 177.484c-.686-.965-51.3-4.862-64.004-6.334-12.703-1.466-39.325-5.019-39.325-5.019l1.508 56.878 3.496 54.52s26.179 6.041 45.788 9.629c19.609 3.589 45.395 7.5 50.985 5.698 5.598-1.801 5.448-35.624 5.212-49.643-.25-14.02-2.052-63.47-3.66-65.729z" fill="#008AFF"/><path d="M107.984 170.185l-.107-4.054s26.622 3.553 39.326 5.019c12.703 1.465 63.317 5.369 64.003 6.334.264.364.522 1.987.786 4.49-19.33-2.488-89.124-8.765-104.008-11.789z" fill="#4BAFFF"/><path d="M37.797 121.192l-3.982 7.692s7.742 4.89 10.194 18.945c2.445 14.055-1 21.083-3.067 24.793-2.059 3.725-2.538 5.834-2.538 5.834s-7.034.579-14.633-4.175c-7.607-4.761-17.522-14.549-17.522-14.549S-6.154 180.336 9.91 196.5c16.07 16.165 33.307-10.988 33.307-10.988l2.81 8.036s19.315-11.646 16.799-37.211c-2.51-25.558-16.056-34.216-25.028-35.145z" fill="#006ECF"/><path d="M61.095 162.063c-.6-8.393-2.21-16.543-7.192-23.649-3.774-5.391-10.344-11.224-17.6-14.334l1.494-2.888c8.979.929 22.519 9.587 25.042 35.138.65 6.584-.157 12.232-1.701 17.007.386-3.803.207-7.721-.043-11.274zm-22.691 16.393s.043-.2.157-.543c.765 0 1.53-.072 2.302-.208-12.782 8.944-27.408-.993-36.838-13.14 1.123-3.002 2.224-4.847 2.224-4.847s9.915 9.787 17.521 14.549c7.6 4.768 14.634 4.189 14.634 4.189z" fill="#3A98FF"/><path d="M183.683 138.371l-30.976-1.523s.193 11.875 1.18 21.126c.993 9.244 1.594 13.376 1.594 13.376l24.549 2.159s3.681-9.988 4.261-19.825c.586-9.823-.608-15.313-.608-15.313z" fill="#006ECF"/><path d="M153.143 143.797c-.186-4.311-.436-6.949-.436-6.949l30.976 1.523s.472 3.961.65 8.55c-6.719-2.245-28.295-3.288-31.19-3.124zm28.008 26.266c-.643 2.131-1.122 3.446-1.122 3.446l-24.549-2.159s-.136-.937-.386-2.895c5.29 1.308 18.787 1.98 26.057 1.608z" fill="#0051B0"/><path d="M159.169.007c7.685-.214 14.091 5.62 14.312 13.026.215 7.406-5.833 13.59-13.518 13.798-7.685.214-14.083-5.62-14.305-13.026-.221-7.414 5.827-13.59 13.511-13.798z" fill="#00CEFF"/><path d="M218.16 55.863c-.75-.88-55.21 2.438-56.89 2.26-1.68-.18-59.214-11.754-59.893-10.353-.679 1.401-2.502 85.346-1.623 86.697.873 1.359 61.902 1.523 66.592 2.438 4.696.915 57.898 2.188 60.886 1.981 2.981-.193 4.99-1.166 5.133-4.29.157-3.117-12.468-76.703-14.205-78.733z" fill="#00BEDF"/><path d="M162.672 65.014c-2.881-.272-56.289-11.882-61.594-13.247.115-2.381.215-3.825.3-3.997.672-1.401 58.213 10.173 59.893 10.352 1.68.179 56.14-3.131 56.89-2.259.244.286.708 1.987 1.316 4.704-3.675.107-53.917 4.711-56.805 4.447z" fill="#52E6FF"/><path d="M147.996 59.838c.579-.114 9.022 1.201 13.304 2.688.365.272-.443 5.026-1.208 5.09-.765.065-12.096-2.588-12.525-3.16-.429-.572-.157-4.504.429-4.618z" fill="#000"/><path d="M10.445 198.502c12.704 10.009 24.892.129 32.599-10.373 4.804 23.921 33.127 38.634 44.444 41.064-.229 3.496.25 34.838 1.737 38.498 1.473 3.661 10.287 7.335 15.52 9.43 7.449 2.967 22.355 6.834 28.903 8.093-1.53 7.135-5.426 30.469-5.047 34.38-3.996 1.165-6.77 3.66-6.877 6.198-2.209.093-6.885 2.059-7.214 7.056-.421 6.17 3.511 9.151 8.372 9.058 4.189-.078 6.705-2.087 8.128-5.676 2.445.107 5.505-.086 8.192-.622-.221 2.109.894 4.318 2.996 5.855 3.088 2.28 8.457 2.123 11.945-1.122 3.132-2.903 3.675-7.757 1.473-11.532-1.901-3.274-6.026-4.819-9.872-4.225-.822-3.896-6.827-6.699-14.033-5.677.257-8.021 2.587-24.307 4.846-32.792 8.429 1.837 37.832 5.919 52.423 7.242-1.08 7.163-1.259 18.087-1.394 24.979-7.199-2.045-14.605.214-15.463 9.007-3.596 1.459-4.861 5.162-4.182 8.351.808 3.817 4.611 5.926 8.328 5.569 2.974-.286 5.183-2.238 6.012-4.74 4.025.322 11.531 0 14.183-.636 3.375 2.616 8.229 2.609 10.652-.122 2.259-2.545 2.023-7.178-1.422-10.059.085-6.491-7.485-10.43-15.013-7.399.136-6.742.586-17.544 1.587-24.45 13.104.965 17.665 1.68 20.288-1.115 5.333-5.684 3.839-54.348 3.525-57.965 27.916 11.51 48.505-26.852 53.216-47.992 1.222-5.484 2.537-9.98 1.951-15.621 21.99-1.215 34.572-25.372 26.143-46.226-.722-1.773-15.741 4.825-15.555 5.34 3.231 9.022 2.823 25.994-10.652 26.609h-.014c-2.009-5.755-7.55-9.172-12.64-7.378-3.045 1.066-4.711 2.896-5.461 5.67-1.68-.065-2.903-1.795-1.544-3.775 4.353-6.334 24.055-13.977 23.905-14.735-.429-2.144-5.862-11.888-6.391-11.695-11.245 4.239-23.555 12.768-29.074 20.303-4.833 6.592-4.411 12.582.386 16.843 3.732 3.31 8.557 3.253 12.632 2.767 1.187 3.775 5.083 9.894 13.819 7.028.65 21.583-21.132 71.326-50.878 58.83-.615-6.792-2.574-41.73-2.681-52.496 0-.787-.293-1.523-1.08-1.723-6.155-1.537-18.294-3.146-29.617-4.411 2.466-7.564 4.289-22.727 2.945-31.964 19.245 1.223 28.059.851 46.789.508 1.365-.022 2.345-1.023 2.338-2.345-.065-13.719-11.167-65.958-14.727-82.008-.279-1.244-.958-2.373-2.187-2.216-6.549.83-50.071 3.353-55.94 3.167 1.051-6.577-.65-29.933-1.394-34.187 4.704-.071 11.217-4.06 10.058-11.953-1.787-12.11-18.801-11.94-21.396-2.48-2.602 9.522 4.918 14.562 8.1 14.576.836 4.583 1.587 27.932.893 33.858-1.093-.228-57.004-13.104-57.955-11.217-2.731 5.455-3.153 90.658-2.46 91.38.694.715 44.216 1.709 52.823 1.673-.257 8.958.129 23.156 3.124 31.435-13.211-2.016-33.721-4.826-46.081-5.805-2.867-.236-20.181 2.788-20.188 7.778-.029 20.017.35 42.408.4 52.903-9.744-3.017-32.663-13.469-39.383-31.978 5.727-5.34 11.067-10.23 14.19-19.245 2.431-7.013 3.318-15.714 2.017-22.877-2.066-11.41-7.378-27.295-26.63-30.977-1.701 1.244-4.804 6.334-4.847 9.937 2.488 2.331 6.549 7.936 7.743 11.095 1.622 4.283 2.487 8.915 2.666 13.477.179 4.682-.322 9.036-1.944 13.468-1.18 3.225-2.946 5.991-4.376 9.094 0 .014 0 .022-.007.036-4.503-.308-8.971-2.188-12.889-4.34-6.891-3.789-14.083-9.808-18.451-16.121-.272-.393-15.52 25.801 4.668 41.715zm242.109-40.814c-.107 1.051-.1 2.116.043 3.181-15.191 2.116-23.191-15.892 16.006-33.586 1.416 2.538 2.645 4.782 3.689 7.513-4.711 2.546-12.818 6.685-16.013 8.751-4.111 2.652-6.742 4.654-7.9 7.943-1.065 3.038.758 5.69 4.175 6.198zm18.201 9.923c1.18-3.039 1.401-5.927.965-8.493 10.63.093 18.68-15.128 13.261-28.254 2.073-1.086 7.077-2.959 9.587-3.495 4.568 12.689.228 37.547-23.813 40.242zm-4.411.579c-2.359 1.337-5.812 1.544-8.764-2.138-2.953-3.681-2.588-11.932 1.365-13.461 3.961-1.537 8.064 1.622 9.244 4.932 1.172 3.318.514 9.337-1.845 10.667zM141.118 335.193c.236-.071 1.28-.572 1.509-.672-.158 1.559 1.222 3.174 3.431 3.568 2.209.386 5.884-.472 5.891-4.876.007-3.446-3.339-5.469-6.041-4.282.322-.794.35-2.145.3-2.696 2.517-.75 6.491.808 7.907 3.618 1.937 3.853.65 7.764-2.273 9.565-4.926 3.031-11.095.837-10.724-4.225zm-.085-13.147c2.28 1.201 3.603 4.053 2.444 7.549-1.158 3.489-7.87 4.297-12.203 3.961-.078-2.431-1.629-7.121-7.384-7.685 1.958-5.727 12.474-6.277 17.143-3.825zm10.251-187.743c-13.704-.028-48.905-.357-49.691-.979-.78-.622.986-83.03 1.629-83.88.479-.63 56.312 10.566 59.786 10.701 3.474.136 53.116-2.645 53.709-2.123.608.53 12.525 65.958 13.518 78.626-18.844.815-65.497-2.316-78.951-2.345zm31.212 14.499c-4.032-1.13-19.845-2.86-28.045-2.874-.086-2.317-.107-4.662.014-7.007 2.652-.028 21.482.408 27.838.758.214 3.546.321 5.584.193 9.123zm-27.559 4.468c-.329-1.616-.479-3.296-.429-5.348 9.093-.279 18.93.958 27.873 2.595.015.007.022-.007.029-.007a85.438 85.438 0 01-.279 4.097c-8.493-1.559-18.522-1.909-27.194-1.337zm9.787 13.218c5.047.916 9.994.687 14.884 1.466-.308 1.058-.73 3.067-1.101 4.111-6.97-.415-14.334-.822-21.125-1.552-1.187-2.316-2.188-9.722-2.223-15.699 8.528-.858 21.989-.45 26.829 1.258.15 2.209-.429 3.289-.808 5.348-6.026-1.766-14.44-3.196-22.304-2.059-.651.093-.422 1.587.758 1.365 4.997-.951 14.834-.064 21.36 1.716a71.459 71.459 0 01-1.029 4.368c-4.904-1.394-10.201-1.837-15.12-1.38-.593.072-.758.951-.121 1.058zm26.229 154.436c5.261-3.654 11.495-.029 11.567 3.61-6.799-1.223-8.951 4.282-7.75 8.364-4.225.737-8.085.837-12.346.372-.3-2.767-3.374-6.012-7.063-6.363 1.123-7.649 8.8-8.235 13.333-5.976.615.035 1.458.007 2.259-.007zm-81.318-153.013c20.896 2.338 53.974 6.334 66.169 6.82 6.777.272 34.229 3.511 34.229 3.904-.029 3.002 1.473 32.807 2.216 44.374.772 11.989.336 53.168-.779 59.774-1.03 6.091-1.945 8.793-5.576 8.693-3.639-.107-13.94-1.144-17.336-1.465-15.32-1.444-64.082-8.515-73.111-12.883-1.566-.758-6.012-99.365-5.812-109.217zm-18.637 58.995c-.15-10.188-1.065-43.417-1.18-53.919-.021-1.837 12.74-5.626 16.957-5.305.093 9.13 1.823 94.29 4.44 107.301-4.168-1.115-16.22-4.647-18.487-8.714-.858-1.559-1.487-22.685-1.73-39.363zm-83.39-36.332c-6.285-9.616-5.155-21.183-.895-28.797 5.662 7.743 13.333 12.218 17.079 14.07 6.055 2.988 15.763 6.684 21.06.543.122-.143-.007-.45-.228-.357a15.188 15.188 0 01-4.619 1.158c1.795-3.696 3.74-7.099 4.84-11.174 1.387-5.133 1.23-13.119.386-18.359-.843-5.205-3.731-13.005-10.165-18.159.486-1.973 1.873-5.205 3.017-6.856 15.913 2.781 21.925 16.379 23.455 30.841.75 7.121-1.108 26.702-15.027 35.624 0-.021-1.451-4.461-2.466-6.627-2.86 4.204-9.465 11.424-13.84 13.834-7.893 4.346-17.708 1.758-22.598-5.741z" fill="#000"/><path d="M169.364 74.036c9.694-7.084 20.36-6.398 28.159-3.231 12.439 5.054 15.906 19.317 10.294 29.376-7.792 13.962-27.987 15.37-37.845 6.627-10.273-9.101-10.416-25.594-.608-32.772z" fill="#0096C4"/><path d="M171.73 76.331c8.336-6.098 17.515-5.505 24.221-2.78 10.701 4.346 13.682 16.606 8.85 25.257-6.699 12.01-24.07 13.211-32.549 5.698-8.829-7.821-8.95-22.005-.522-28.175z" fill="#000"/><path d="M172.923 100.431c7.156 8.05 21.947 5.898 27.616-1.902 4.146-5.705 3.367-13.054.515-17.258-4.454-6.563-14.977-9.387-23.377-5.04-9.236 4.797-10.931 17.244-4.754 24.2z" fill="#DDF9D8"/><path d="M129.008 68.11c9.322-6.77 22.59-4.025 27.359 3.252 7.234 11.053 1.994 23.27-8.5 26.967-7.664 2.695-20.181 2.845-25.436-8.558-2.845-6.19-2.738-14.884 6.577-21.661z" fill="#0096C4"/><path d="M130.223 69.61c8.321-6.047 20.16-3.595 24.406 2.896 6.463 9.866 1.78 20.761-7.578 24.064-6.841 2.402-18.007 2.538-22.697-7.635-2.545-5.526-2.445-13.276 5.869-19.324z" fill="#000"/><path d="M139.811 94.983c8.135-.4 14.176-4.883 14.784-12.168.636-7.65-3.217-12.346-8.772-13.962-5.605-1.637-11.209-.55-15.592 3.267-9.486 8.257-2.53 23.464 9.58 22.863z" fill="#DDF9D8"/><path d="M145.065 99.759c5.14 5.047 16.857 8.657 27.837 10.952 13.669 2.853 22.569 3.253 23.527 3.41.958.157-1.508 10.281-15.777 12.976-14.269 2.695-32.034-2.324-37.231-10.352-5.198-8.029.907-17.709 1.644-16.986z" fill="#000"/><path d="M192.975 116.888c-.007 0-2.051-.2-4.511-.472-.664 1.773-1.844 4.611-2.487 6.113 2.487-1.059 5.325-3.546 6.998-5.641zm-8.549 6.12c.822-1.659 2.166-4.705 2.945-6.699-2.431-.265-5.026-.565-6.42-.779-.786 2.159-2.73 6.62-3.91 8.972 2.538-.2 5.047-.658 7.385-1.494zm-8.836 1.565c1.43-2.931 3.303-7.535 4.039-9.222-2.909-.472-4.711-.715-7.613-1.301-1.416 3.002-3.517 8.064-4.647 9.966 3.167.586 4.911.672 8.221.557zm-10.045-.872c1.38-2.088 3.739-6.978 4.962-9.909-.344-.071-4.826-1.086-5.991-1.344-1.651 3.246-3.732 7.106-5.362 9.623 1.401.465 6.113 1.573 6.391 1.63zm-2.408-11.76c-1.487-.351-3.36-.951-5.255-1.616-.614 1.573-4.918 8.893-5.032 9.144 1.594.85 3.081 1.408 4.704 2.016 1.958-3.124 3.96-6.234 5.583-9.544zm-11.317 6.763c.686-1.301 4.068-7.035 5.019-8.765a138.607 138.607 0 01-5.269-2.03c-1.201 1.837-3.482 4.918-4.99 6.956 1.401 1.558 3.074 2.652 5.24 3.839zm-6.14-5.183c1.666-2.174 2.981-4.082 4.611-6.241-2.095-.994-3.067-1.752-4.79-3.189-2.066 3.339-1.444 6.92.179 9.43z" fill="#fff"/><path d="M201.261 189.509l-.686 18.473-34.493-1.194.693-20.168 34.486 2.889z" fill="#06C"/><path d="M204.451 186.249l-.686 18.473-34.494-1.194.701-20.175 34.479 2.896z" fill="#000"/><path d="M170.973 201.998l31.204 1.087.572-15.314-31.204-2.773-.572 17z" fill="#00CEFF"/><path d="M131.017 185.784c4.189-.115 7.485 4.561 7.671 10.888.186 6.327-2.831 11.174-7.013 11.295-4.189.115-7.492-4.568-7.678-10.888-.193-6.319 2.831-11.181 7.02-11.295z" fill="#06C"/><path d="M134.212 182.524c4.19-.114 7.485 4.561 7.678 10.888.186 6.32-2.831 11.174-7.027 11.289-4.189.121-7.485-4.562-7.671-10.889-.193-6.319 2.831-11.174 7.02-11.288z" fill="#000"/><path d="M134.821 203.121c2.43-.065 5.025-4.047 4.861-9.645-.165-5.604-2.995-9.436-5.426-9.365-2.431.064-5.033 4.039-4.861 9.651.164 5.598 2.995 9.43 5.426 9.359z" fill="#00CEFF"/><path d="M160.213 210.849c13.833-.372 25.335 7.521 25.628 17.615.301 10.088-10.716 18.609-24.549 18.995-13.833.379-25.328-7.52-25.628-17.615-.293-10.087 10.723-18.609 24.549-18.995z" fill="#06C"/><path d="M163.408 207.596c13.833-.386 25.336 7.514 25.629 17.608.3 10.095-10.716 18.609-24.549 18.988-13.826.379-25.329-7.514-25.629-17.608-.293-10.088 10.716-18.609 24.549-18.988z" fill="#000"/><path d="M164.438 242.333c12.775-.35 22.941-8.014 22.676-17.072-.264-9.065-10.873-16.157-23.641-15.806-12.768.357-22.941 8.014-22.669 17.079.258 9.058 10.866 16.15 23.634 15.799z" fill="#00CEFF"/><path d="M187.7 200.833c2.202-1.559 4.332-3.203 6.463-4.847 2.802-2.159 5.604-4.347 8.521-6.356l-.508 13.455-16.928-.594c.836-.564 1.673-1.108 2.452-1.658zm-48.026-7.407c.007.022.007.036.007.05.165 5.598-2.437 9.58-4.861 9.644-1.666.043-3.517-1.73-4.568-4.661 3.51-1.022 6.77-2.702 9.422-5.033zm19.874 40.586c8.743-2.202 20.159-5.956 26.579-13.09.579 1.379.937 2.824.98 4.332.271 9.058-9.894 16.722-22.677 17.072-8.986.243-16.885-3.203-20.881-8.422 5.276 1.366 10.344 1.537 15.999.108z" fill="#00B4E8"/><path d="M184.856 84.295c2.802-.071 5.132 1.888 5.204 4.382.071 2.503-2.138 4.583-4.94 4.662-2.802.078-5.133-1.888-5.204-4.383-.072-2.495 2.137-4.582 4.94-4.66zm-43.931-7.328c2.023-.057 3.71 1.48 3.767 3.432.057 1.952-1.53 3.575-3.56 3.632-2.023.057-3.71-1.487-3.768-3.432-.05-1.952 1.545-3.574 3.561-3.632zm34.307-13.54c.536.114 3.889.7 5.49.843-.085-.386.179-2.537.136-2.924 5.777.823 11.624.83 17.479.994-.307 1.423-2.066 7.714-2.43 7.793-.358.071-21.676-1.18-21.947-1.373-.265-.207.736-5.448 1.272-5.333z" fill="#000"/><path d="M159.112 3.839c3.625-.107 6.634 2.567 6.735 5.962.1 3.396-2.753 6.227-6.37 6.327-3.617.1-6.634-2.573-6.734-5.962-.1-3.403 2.752-6.234 6.369-6.327z" fill="#00CEFF"/><path d="M156.659 8.779c-1.451 1.072-2.574 2.373-3.303 3.796a5.779 5.779 0 01-.607-2.416c-.1-3.396 2.752-6.227 6.369-6.32 2.831-.079 5.276 1.544 6.255 3.882-2.63-1.387-6.09-.887-8.714 1.058z" fill="#52E6FF"/><path d="M122.603 327.479c3.06-.085 5.612 2.238 5.698 5.191.093 2.952-2.323 5.411-5.383 5.497-3.06.086-5.619-2.245-5.705-5.19-.086-2.953 2.331-5.412 5.39-5.498zm51.829 1.087c2.759-.079 5.061 2.016 5.132 4.675.079 2.667-2.094 4.883-4.854 4.962-2.759.071-5.061-2.023-5.14-4.683-.078-2.659 2.095-4.883 4.862-4.954z" fill="#006ECF"/><path d="M174.604 329.746c2.152-.058 3.953 1.58 4.011 3.66.064 2.073-1.638 3.81-3.796 3.875-2.152.057-3.947-1.58-4.011-3.661-.057-2.08 1.637-3.817 3.796-3.874zm-52.059.378c1.473-.042 2.703 1.08 2.746 2.496.042 1.422-1.116 2.609-2.595 2.652-1.48.043-2.703-1.087-2.746-2.502-.043-1.423 1.116-2.61 2.595-2.646z" fill="#000"/><path d="M200.924 325.856c2.76-.078 5.062 2.016 5.14 4.676.079 2.667-2.094 4.883-4.854 4.961-2.759.072-5.054-2.023-5.14-4.682-.078-2.667 2.102-4.876 4.854-4.955z" fill="#006ECF"/><path d="M130.831 197.816c.658-1.401 1.959-2.731 3.174-3.761-.079-.364.072-.779.479-.922-.272-1.101-.486-2.302-.55-3.41-.022-.279.421-.35.493-.079.314 1.073.679 2.331.579 3.468.808.214.765 1.522-.2 1.551a.783.783 0 01-.358-.064c-.472.55-.993 1.072-1.48 1.615-.571.644-1.108 1.294-1.73 1.888-.207.186-.521-.043-.407-.286zm57.162-6.57c.042-.408.614-.265.672.071.536 3.246.285 6.949-.158 10.202-.035.286-.557.308-.607.014-.579-3.281-.315-6.991.093-10.287zm-2.589-.472c1.044-.029 1.094 1.53.043 1.559-1.044.035-1.086-1.53-.043-1.559zm-4.008-.25c1.05-.029 1.093 1.53.05 1.565-1.051.029-1.094-1.529-.05-1.565zm8.712.622c.851-.022.887 1.244.043 1.265-.85.022-.886-1.244-.043-1.265zm3.711.171l.05-.028c.7-.322 1.444.436.879 1.044-.007.014-.021.021-.036.042-.722.794-1.808-.636-.893-1.058zm3.911.2l.029-.05c.243-.5 1-.471 1.279-.042.343.536-.171 1.229-.801 1.079a.133.133 0 00-.057-.014c-.464-.108-.636-.579-.45-.973zm-21.511-1.293c1-.029 1.05 1.472.042 1.494-1 .028-1.05-1.473-.042-1.494zm7.863 32.778c.965-.028 1.008 1.408.043 1.437-.966.029-1.008-1.408-.043-1.437zm-3.595-5.669c1.072-.029 1.122 1.58.05 1.601-1.073.036-1.123-1.565-.05-1.601zm-6.42-3.953c1.115-.029 1.165 1.637.05 1.672-1.115.029-1.158-1.637-.05-1.672zm-8.814-1.623c1.143-.036 1.201 1.687.05 1.715-1.151.029-1.201-1.687-.05-1.715zm-9.036 1.008a.105.105 0 01.036-.029c.6-.508 1.622-.257 1.644.608.028.858-.98 1.172-1.609.693a.153.153 0 01-.035-.021c-.372-.279-.394-.958-.036-1.251zm-6.985 3.874c1.208-.028 1.266 1.781.057 1.809-1.215.036-1.265-1.773-.057-1.809zm-4.767 6.163c.043-.014.078-.029.121-.036.88-.322 1.151 1.216.208 1.201v-.007c-.179.072-.365-.014-.501-.114-.021-.015-.036-.029-.064-.043-.4-.286-.15-.865.236-1.001zm-.474 6.563c.994-.029 1.044 1.465.043 1.494-1.001.029-1.044-1.465-.043-1.494zm20.833 6.734c.135-.286.429-.457.743-.536 1.423-6.141 3.882-12.582 6.67-18.237.257-.522 1.094-.186.958.357-1.508 6.12-3.875 12.447-6.391 18.281.143.157.286.314.422.479.593.7 0 1.808-.794 2.044-.901.265-1.801-.386-1.844-1.28-.029-.421.05-.729.236-1.108z" fill="#000"/><path d="M207.724 256.21c.315 5.748-1.258 27.238-3.767 28.746-2.874 1.737-35.988-2.187-37.346-3.932-.936-1.215 40.863-29.361 41.113-24.814z" fill="#4BAFFF"/></g><defs><clipPath id="clip0"><path fill="#fff" d="M0 0h300v343H0z"/></clipPath></defs></svg>