<svg width="294" height="190" fill="none" xmlns="http://www.w3.org/2000/svg"><g clip-path="url(#clip0)"><path d="M293.008 85.058c-.276-3.59-1.656-7.456-4.142-10.218-2.762-3.59-7.733-5.247-13.532-6.352-3.038-.552-8.837-.276-11.875.553-11.046.552-25.407 3.037-37.282 5.523-.828-.552-1.657-.829-2.762-.829-2.761 0-4.97 1.933-5.247 4.695-4.418 3.038-19.055 13.532-30.101 21.54-1.105-11.598-2.21-22.368-3.314-33.139-6.904.276-47.776 2.21-48.329 2.486-.276-2.486-1.104-9.114-1.381-11.875 4.695-.553 27.341-1.657 33.692-3.314 0-1.933 0-5.523-.276-7.457 1.105 0 3.314-.276 3.866-.552 0-2.485-1.104-16.846-1.933-19.055-.828-.276-3.038-.552-4.142-.552 0-1.105-.276-5.8-.553-7.457-3.037-.276-20.159-.276-37.005 0-.277-3.314-.829-8.837-.829-11.046 0-.277-1.381-.277-1.381 0 0 2.761.553 7.732.829 11.046-16.846.276-27.616.829-33.968 1.105-.276 1.657-.276 8.285-.276 11.323-1.381.276-3.038.828-3.314 1.656-.276.829.552 17.951 1.104 18.78.276.552 2.21 1.38 3.867 1.104.276 2.486.552 4.971.828 6.352 1.933.828 22.369-.829 34.797-1.657.276 3.038 1.104 8.837 1.38 11.875-8.837.552-37.282 2.21-42.252 2.762.276 6.904.828 23.197 1.104 28.997-2.485-.553-12.427-4.419-23.198-8.561-.552-2.486-2.761-4.419-5.247-4.419-1.104 0-2.209.276-3.037 1.105-10.218-4.143-23.198-9.39-25.131-9.942 6.352-7.457 8.285-22.37 2.761-32.587-1.104-.829-3.866-2.21-4.97-2.762-3.867 2.485-12.428 11.047-14.637 13.532.828.552 3.866 3.59 5.8 7.18 1.656 2.486 3.59 9.39 0 9.942-3.038.828-5.8-6.352-7.457-13.808-3.314-.829-9.39-2.486-11.047-2.762-.828 1.105-2.485 2.762-3.59 4.143-2.209 5.523 1.105 13.255 4.971 17.95 4.143 4.971 13.532 12.428 23.474 4.419 1.657.552 16.018 6.628 27.34 11.046.553 2.486 2.762 4.143 5.247 4.143 1.105 0 2.21-.276 3.038-.829 11.875 4.695 23.198 9.114 25.96 9.666.552 11.047 1.932 24.855 3.313 34.797 4.695 1.104 33.692.552 41.149.828 0 1.105.276 3.314.276 4.142-6.904-.828-36.178 0-43.91.829-1.657-2.762-4.695-3.314-7.733-2.762-5.8 1.105-8.56 8.009-4.142 13.256-2.486 2.486-10.218 13.532-15.19 21.265-2.208 3.314-1.104 7.18 2.763 8.008 4.142.553 9.665 1.105 15.74 1.381 6.905.276 12.428 0 16.57 0 3.591-.276 5.524-3.314 3.867-6.904-3.59-8.009-10.494-21.541-11.875-23.474.828-1.104 1.38-3.314 1.657-4.971 7.732-.828 33.416-1.38 42.805-1.933 0 .553 0 1.381.276 1.657 3.038 1.105 13.256.553 16.018 0v-1.933c3.59.552 41.424 1.657 44.738 2.209 0 1.105.276 1.934.828 2.762-2.761 3.314-11.046 19.884-12.427 23.75-1.657 4.419 0 6.628 2.486 7.18 4.694 1.105 25.407 1.933 29.273 1.381 2.209-.276 3.314-3.038 2.485-5.799-2.485-7.733-8.285-20.713-10.77-26.236 1.657-2.485 1.105-6.352-1.105-8.561-2.485-2.485-6.075-2.209-8.285-.276-3.59-.829-41.148-.829-46.671-.829 0-.552-.276-3.037-.276-4.142 5.799 0 36.177-.276 38.663-.552.276-3.867-1.381-33.968-1.381-34.797 7.732-5.523 26.511-19.331 33.139-24.026.553.276 1.105.276 1.933.276 2.486 0 4.419-1.657 5.248-3.59 8.008-1.933 25.13-4.418 34.796-4.695v3.038c.276.276 1.381.276 2.486.276.552 3.038 0 6.628-2.21 8.285-3.038 2.486-6.904 2.762-9.942 2.762-.276 1.657.277 6.628.553 8.008.828.829 6.351 4.695 8.008 5.248 3.867-.277 10.495-2.762 13.256-8.561 2.762-5.8 2.486-10.495 1.381-15.466 6.628 2.486 3.59 13.809-1.933 19.056.276 1.104 1.381 5.523 2.209 7.456 1.381.829 4.695 1.933 8.009 3.038 4.419-3.866 7.456-14.637 6.075-25.131z" fill="#000"/><path d="M22.093 60.756c-.829-1.105-1.934-2.486-3.038-3.314 2.761-2.762 9.942-10.218 12.98-11.599.276.276 2.485 1.657 3.037 1.933-3.59 2.486-11.046 10.77-12.98 12.98z" fill="#DEDEDE"/><path d="M17.398 71.526c1.104 2.21 3.313 5.523 6.351 4.419 2.762-1.105 2.762-4.971 2.21-7.457 1.104 2.486 1.657 4.971 1.104 6.904-.828 3.59-4.142 3.59-6.352 2.762-2.485-.828-7.456-4.971-8.56-12.151.828-1.105 1.656-2.486 2.485-3.314.552 3.038 1.38 6.352 2.762 8.837z" fill="#BFBFBF"/><path d="M25.96 68.488c.552 2.486.552 6.352-2.21 7.457-1.656.828-3.313-.276-4.418-1.381 0 .829 0 1.933.276 2.762.276.276.829.276 1.105.552 2.21.828 5.523 1.105 6.352-2.762.276-1.657-.277-4.142-1.105-6.628z" fill="#9F9F9F"/><path d="M4.694 59.375c3.038.552 6.076 1.105 8.838 2.21-.829 1.104-1.934 2.76-2.486 3.59-2.21-.83-6.628-2.21-8.837-2.762.276-.829 1.38-2.21 2.485-3.038z" fill="#DEDEDE"/><path d="M25.96 84.506c-6.352 3.866-13.532-.276-18.227-4.695-3.314-3.314-6.628-11.599-5.8-15.465 2.486.552 6.628 1.657 8.838 2.486 1.38 8.837 8.837 13.808 12.427 13.532 8.009-.553 5.8-11.876.552-18.78 2.762-2.761 9.114-9.39 11.875-12.15 3.59 9.389 1.933 17.674.829 21.54-1.933 5.523-5.524 10.494-10.494 13.532z" fill="#FFA00F"/><path d="M30.93 72.907c-.828.552-1.656 1.105-2.485 1.38-.276 3.039-1.657 5.524-5.247 5.8-1.38 0-3.314-.552-5.247-1.933-3.314.829-6.904 1.38-10.494 1.105l.276.276c4.695 4.419 11.875 8.561 18.227 4.695 4.97-3.038 8.561-7.733 10.494-13.809a34.75 34.75 0 00.829-2.761c-1.934 1.933-4.143 3.59-6.352 5.247z" fill="#CB7D00"/><path d="M56.613 93.067C46.395 88.925 33.69 83.4 30.93 82.849c.552-.552 1.104-1.38 1.657-1.933 2.761.552 15.189 6.075 25.13 9.942-.552.552-1.104 1.38-1.104 2.209zm9.942 4.143c.552-.83.828-1.658.828-2.486 9.942 3.866 19.332 7.732 23.198 8.561 0 .828.276 2.209.276 3.038-3.038-.553-13.256-4.695-24.302-9.114z" fill="#BFBFBF"/><path d="M79.258 154.927c-.552-3.866 1.657-6.904 5.523-7.456 3.866-.552 6.352 1.933 6.904 5.523.552 3.867-1.657 6.628-4.97 7.18-3.315.553-6.905-.828-7.457-5.247z" fill="#C9190F"/><path d="M83.676 172.878c-2.761-1.381-4.695-6.628-1.933-9.942 1.657-1.933 4.695-1.105 6.352.552 2.21 2.486 3.314 6.076 2.21 8.009-1.382 1.933-3.867 3.038-6.629 1.381z" fill="#BFBFBF"/><path d="M85.886 175.64c-.276.552-.552 1.104-.552 1.657v-.553c0-.552-.277-.828-.553-1.381.276 0 .829.277 1.105.277zm-5.523-15.466c.552.277 1.104.829 1.656.829-4.142 2.485-3.037 8.561-1.656 11.046-3.59-1.38-7.733-.276-10.219 1.934.553-.829 7.733-10.771 10.219-13.809zm-15.465 24.303c-.552-1.933 1.105-4.143 2.486-6.352-1.105 3.038-.277 6.904 2.209 9.113-2.21-.552-4.143-.828-4.695-2.761z" fill="#939393"/><path d="M73.183 187.791c-1.934-.829-3.315-2.21-4.143-4.143-.829-1.933-1.105-4.971.276-7.18 1.381-2.209 4.143-3.866 7.457-3.866 3.59.276 6.627 2.485 6.627 7.18 0 1.381-.828 4.419-3.314 6.352-2.485 2.209-5.799 1.933-6.903 1.657z" fill="#BFBFBF"/><path d="M80.916 188.067c1.657-1.381 3.038-3.038 3.866-4.971.276 2.209 1.105 4.142 2.21 5.247-2.21 0-3.867 0-6.076-.276zm20.712-3.038c-.552 1.933-2.761 2.209-4.694 2.486 2.761-1.657 3.59-6.076 3.037-9.39.277 1.105 1.934 5.247 1.657 6.904z" fill="#939393"/><path d="M91.685 187.791c-2.485 0-4.419-1.933-5.247-4.419-.829-2.485-.276-4.971.828-6.628.829-1.657 3.59-4.142 6.904-3.314 3.314.829 4.143 4.419 4.143 7.457 0 3.037-2.486 6.904-6.628 6.904z" fill="#BFBFBF"/><path d="M93.067 165.974c1.104 1.933 2.209 4.142 3.314 6.352-.553-.553-1.381-.829-2.21-1.105-.552-.276-1.104-.276-1.933-.276v-.276c.276-3.314-1.657-6.628-4.142-8.838.828-.276 1.657-.552 2.209-1.104.828 1.933 1.933 3.59 2.762 5.247zm105.217-7.457c.276.277.828.829 1.381 1.105-1.657 1.105-3.314 3.038-3.591 4.971-.552 1.933-.276 4.142.829 6.076-2.209-.553-4.143-.277-5.799 1.38 1.38-3.59 6.075-12.703 7.18-13.532zm-11.598 25.96c-.552-1.381.276-3.314.829-5.247 0 1.657.828 5.247 3.59 6.904-1.381 0-3.59.276-4.419-1.657z" fill="#939393"/><path d="M193.038 185.029c-3.038-1.105-5.247-6.352-3.314-9.942 1.933-3.314 7.456-4.418 9.942-.828 3.866 6.352-.276 13.256-6.628 10.77z" fill="#BFBFBF"/><path d="M198.838 186.962c1.381-.828 2.209-1.933 2.762-3.038.276 1.105 1.104 2.21 1.933 3.038-1.381 0-3.314.276-4.695 0zm2.76-12.703c.276.276.828.276 1.104.276-.276.276-.276.552-.552.828-.276-.276-.552-.828-.552-1.104zm15.742 12.427c-.276 1.105-1.657 1.381-3.59 1.105 1.381-1.381 2.485-3.314 3.038-5.524.276 1.657.828 3.314.552 4.419z" fill="#939393"/><path d="M215.13 178.677c.552 4.419-2.485 8.838-5.523 9.114-3.038 0-6.352-1.933-6.904-6.076-.553-4.142 1.933-7.732 4.418-8.561 4.695-1.933 7.457.829 8.009 5.523z" fill="#BFBFBF"/><path d="M208.779 162.107c1.381 1.934 2.761 6.076 3.866 8.838-1.381-.277-3.038-.553-4.418-.277 1.38-1.657 1.38-5.799.552-8.561z" fill="#939393"/><path d="M75.668 166.25c-2.762 3.59-5.247 7.18-5.524 7.733 1.381-1.105 3.038-1.934 4.695-2.486 1.105-1.933 2.21-3.866 4.419-4.695 0-.552 0-1.381.276-1.933-1.38.552-2.762.829-3.866 1.381zm-10.493 16.294c-.277.552-.277 1.38-.277 1.933.553 1.933 2.486 2.209 4.695 2.485-.828-.828-1.38-1.657-1.933-2.485-.828-.553-1.657-1.105-2.485-1.933zm20.988 4.694c-1.105-.276-2.485-.552-3.59-1.104l-1.657 1.657c2.21 0 4.142.276 6.076.276-.277 0-.553-.276-.829-.829zm13.255-3.59c-.552 1.657-1.38 3.038-2.762 3.866 1.933-.276 3.867-.552 4.695-2.209-.552-.552-1.105-1.104-1.933-1.657zm-7.732-16.293c.276 1.104.552 2.209.552 3.314v.276c.552 0 1.105 0 1.933.276.828.276 1.657.552 2.21 1.105-.553-1.105-1.105-2.21-1.934-3.591-.828-.552-1.657-1.104-2.761-1.38zm101.351.276l-2.209 4.418c1.933-1.381 3.59-1.933 5.8-1.381-.553-1.38-1.105-3.037-.829-4.418-.828.276-1.933.828-2.762 1.381zm-4.418 15.465c-.553.276-1.381.828-1.933 1.105v.276c.828 1.657 3.037 1.381 4.418 1.381-1.104-.553-1.933-1.657-2.485-2.762zm11.876 2.485c-.552.553-.829.829-1.657 1.381 1.381.276 3.314 0 4.695 0l-1.105-1.105c-.552 0-1.381 0-1.933-.276zm14.084.829c-.276.552-.552.828-1.104 1.381 1.933.276 3.314-.276 3.59-1.105v-.552c-.553.276-1.657.276-2.486.276zm-5.523-17.951c-.276.829-.553 1.657-1.105 2.21 1.381-.277 3.038-.277 4.419.276-.553-1.105-.829-2.486-1.381-3.867-.552.553-1.381 1.105-1.933 1.381z" fill="#747474"/><path d="M206.293 170.393c-1.933 2.485-6.628 2.485-8.009 0-1.381-2.486-1.657-5.524 0-7.733 1.657-2.209 6.076-3.59 8.009-.828 1.657 1.933 1.933 6.075 0 8.561z" fill="#BFBFBF"/><path d="M198.561 151.89c.828-3.038 4.971-4.143 7.18-1.934 2.209 2.21 2.209 5.8-.276 7.733-1.657 1.105-4.143.828-5.523 0-1.105-1.105-2.21-3.314-1.381-5.799z" fill="#C9190F"/><path d="M86.992 148.852c1.933.276 2.761 1.104 3.866 1.933-1.105-2.486-3.038-3.866-6.076-3.314-3.037.276-4.694 2.209-5.247 4.971 1.381-2.762 4.143-4.143 7.457-3.59zm116.816 1.104c1.657.553 2.485 1.105 3.314 2.21-.277-.829-.829-1.657-1.381-2.21-2.21-2.209-6.352-1.104-7.18 1.934.828-1.657 3.037-2.762 5.247-1.934z" fill="#FF845F"/><path d="M197.456 149.956c-.553.553-.829 1.381-.829 2.21-4.971-.553-39.491-.829-44.738-1.381v-1.657c3.59 0 42.253.276 45.567.828z" fill="#BFBFBF"/><path d="M169.287 28.169c.276 1.38 1.933 15.189 1.381 16.845-.552.277-1.657.277-2.209.277-.277-3.59-1.381-14.36-1.934-17.398 1.105 0 2.21 0 2.762.276zM91.686 51.09c-.277-.552-1.381-16.57-1.381-17.122.276-.552 2.209-.829 2.485-.829 0 2.762.552 14.637 1.105 18.78-.829 0-1.657-.277-2.21-.829z" fill="#C9190F"/><path d="M168.459 35.073c-.276-.553-.829-1.105-1.105-1.657l-.276-.276c.552 4.418 1.105 9.665 1.381 11.874.552 0 1.657 0 2.209-.276.276-.552 0-3.866-.276-7.18-.552-.552-1.381-1.38-1.933-2.485zM91.133 46.672c.276 2.209.276 4.142.552 4.142.276.552 1.381.828 2.21.828-.277-1.933-.553-5.799-.553-9.665-.828 1.657-1.38 3.314-2.21 4.695z" fill="#A40B00"/><path d="M127.864 56.613c-6.904.829-29.273 2.21-31.483 1.381-1.657-11.599-1.933-25.96-2.21-36.453 12.152-.553 64.623-2.21 70.422-1.381.553 5.247 2.762 29.273 2.762 32.587-5.799 1.38-32.587 3.038-39.491 3.866z" fill="#FFA00F"/><path d="M164.593 21.265c0-.553 0-.829-.276-1.105-5.523-.829-57.994.828-70.145 1.38v1.382c7.18.552 62.689-1.934 70.421-1.657z" fill="#FFCF74"/><path d="M131.453 57.718c.829 0 1.381-.276 2.209-.276.553 3.314 1.105 8.285 1.381 11.875-.552 0-1.657.276-2.209.276-.276-1.933-1.105-8.561-1.381-11.875z" fill="#E35B0F"/><path d="M92.79 152.994c0-.828-.276-1.933-.552-2.485 3.59-.277 36.454-1.934 43.358-.829v1.657c-2.762-.276-35.901.829-42.805 1.657z" fill="#BFBFBF"/><path d="M137.252 152.994c-.276-1.657-.552-6.628-.828-9.113 1.933 0 10.494-.276 14.084-.553 0 .553.276 8.285.276 9.39-3.038.552-10.77.552-13.532.276z" fill="#E35B0F"/><path d="M150.508 146.642v-3.037c-3.59 0-12.151.276-14.084.552 0 .828.276 2.209.276 3.59 4.695-.276 9.113-.552 13.808-1.105z" fill="#B85100"/><path d="M95.552 141.119c-2.21-10.77-4.418-56.06-4.695-66.831 11.875-1.381 68.489-4.143 92.515-5.247 1.657 14.636 4.971 60.755 4.971 71.526-25.131 1.104-83.125 2.485-92.79.552z" fill="#FFA00F"/><path d="M183.373 70.698c0-.829-.276-1.381-.276-1.933-23.75 1.38-80.64 3.866-92.515 5.247v2.761c2.762-.276 79.535-5.523 92.791-6.075z" fill="#FFCF74"/><path d="M188.618 105.77c0-.828-.276-2.485-.276-3.314 2.485-1.933 24.578-18.503 30.102-22.093.276 1.105.828 1.933 1.38 2.762-4.971 3.59-22.921 16.57-31.206 22.645zm75.116-31.482c-8.837.276-25.683 2.761-34.52 4.418 0-1.104-.552-2.209-1.105-3.037 8.838-1.934 21.817-4.419 35.625-4.971v3.59z" fill="#BFBFBF"/><path d="M35.624 82.02c-1.38-.552-2.485-.828-3.037-1.104-.553.552-1.105 1.38-1.657 1.933.552 0 1.38.552 2.761.828.553-.552 1.105-1.104 1.933-1.657zm52.749 23.75c1.104.276 1.933.553 2.485.553 0-.829-.276-2.21-.276-3.038-.552-.276-1.38-.276-2.21-.553-.275.829 0 1.934 0 3.038zm-18.78-10.218c-.829-.276-1.381-.552-2.21-.828 0 .828-.276 1.657-.828 2.485.828.276 1.657.553 2.485 1.105 0-.828.276-1.933.552-2.762zm96.934 53.576h-14.361v1.657c1.381.276 5.247.276 9.942.552 1.381-.828 2.762-1.381 4.419-2.209zm27.891.552c-.552.829-1.105 1.657-1.381 2.209 1.657 0 3.038.277 3.866.277.277-.829.553-1.657.829-2.21-.552 0-1.657-.276-3.314-.276zm-67.659 1.657c4.694-.276 8.008-.276 8.837-.276v-1.657c-2.21-.276-6.628-.276-11.875-.276 1.104.828 1.933 1.381 3.038 2.209zm-31.483-1.104c-1.657 0-2.762.276-3.038.276.276.552.553 1.657.553 2.485.828 0 1.657-.276 2.761-.276.276-.828 0-1.657-.276-2.485zm122.063-65.451c1.105-.829 1.933-1.38 2.485-1.933-.828-.829-1.38-1.657-1.38-2.762-.553.276-1.381.829-2.21 1.657.277 1.105.553 2.21 1.105 3.038zm-26.234 15.741a12.59 12.59 0 00-2.486 1.933c0 .829.276 2.486.276 3.314.829-.552 1.933-1.38 3.038-2.209-.552-1.105-.828-1.933-.828-3.038zm72.631-29.825h-1.933v3.59h1.933v-3.59z" fill="#9F9F9F"/><path d="M265.668 88.372c1.657-1.657 2.486-5.8 1.933-9.113h2.209c2.21 9.665-2.761 15.189-8.284 16.293-.553-.276-3.867-2.761-4.971-3.59 3.59-.276 6.904-1.38 9.113-3.59z" fill="#FFA00F"/><path d="M266.221 87.82c1.104.552 1.933 1.105 3.037 1.657 1.105-2.486 1.657-6.076.553-9.942h-2.209c.552 2.485 0 6.076-1.381 8.285z" fill="#CB7D00"/><path d="M256.003 98.314c-.276-1.381-.276-3.866-.552-5.247.829.828 3.866 3.038 5.247 4.142.276 1.657.829 3.866 1.105 5.247.276 0-4.695-3.314-5.8-4.142z" fill="#9A9A9A"/><path d="M274.782 93.895c-2.209 4.419-7.18 8.009-11.046 8.285-.277-1.104-1.105-3.59-1.105-5.247 10.218-2.762 9.389-13.808 8.561-17.95h4.142c1.933 5.523.829 12.427-.552 14.912z" fill="#BFBFBF"/><path d="M271.468 86.163c1.38 1.657 2.761 3.59 4.142 5.247.829-3.314 1.105-8.285-.276-12.151a10.461 10.461 0 00-4.143 0c.277 1.657.553 4.142.277 6.904z" fill="#9F9F9F"/><path d="M280.857 80.64c-2.762-3.59-7.181-3.867-15.189-3.038 0-2.486-.277-5.8 0-7.18 1.104-.277 5.247-.553 9.389 0 3.314.276 7.457 1.657 9.942 4.97 5.799 6.904 2.209 18.227-3.038 24.855-1.381-.276-2.761-.828-4.142-1.657 2.485-2.761 8.009-11.599 3.038-17.95z" fill="#FFA00F"/><path d="M286.104 85.334c-1.657-3.038-3.866-5.523-7.18-6.628.829.553 1.657 1.105 2.21 1.934 4.694 6.351-.829 15.189-3.038 17.95 1.381.829 2.761 1.381 4.142 1.657 2.486-3.038 4.419-7.18 5.247-11.323-.552-1.38-.828-2.485-1.381-3.59z" fill="#CB7D00"/><path d="M278.647 105.494c-.276-1.381-1.381-4.419-1.657-5.523 1.381.828 3.59 1.657 5.247 2.209 0 .829 1.105 4.695 1.381 5.523-1.657-.828-3.314-1.657-4.971-2.209z" fill="#9A9A9A"/><path d="M290.524 97.762c-1.105 3.866-2.762 8.008-5.247 9.941-.552-1.104-1.657-5.523-1.933-6.351 5.799-6.352 8.008-18.503 3.59-26.788 2.485 2.21 4.142 6.628 4.418 9.942.553 4.142 0 9.39-.828 13.256z" fill="#BFBFBF"/><path d="M288.314 92.514c.829 1.657 1.381 3.315 2.21 5.248 1.104-3.867 1.38-8.838.828-12.98-.276-3.314-1.933-7.733-4.418-9.942 2.761 5.247 3.037 11.875 1.38 17.674z" fill="#9F9F9F"/><path d="M156.583 37.282c-.276-7.732-5.799-12.427-12.979-12.98-6.904-.552-14.085 2.762-16.294 10.495-2.485-7.457-12.427-10.495-20.16-6.628-8.009 4.142-9.666 12.98-4.695 19.607 4.419 5.8 12.704 6.628 18.779 3.038 3.314-1.933 6.076-4.97 6.352-10.218 1.657 7.456 8.561 12.427 16.846 11.323 7.733-.829 12.428-6.628 12.151-14.637z" fill="#CB7D00"/><path d="M156.859 35.625c-.276-7.733-5.799-12.427-12.703-12.98-6.628-.552-13.808 2.762-15.741 10.218-2.21-7.18-12.152-10.494-19.608-6.628-7.732 4.143-9.39 12.704-4.419 19.608 4.143 5.523 12.428 6.352 18.227 3.038 3.314-1.933 5.8-4.695 6.076-9.942 1.657 7.456 8.285 12.151 16.57 11.322 7.18-1.104 11.598-6.627 11.598-14.636z" fill="#000"/><path d="M120.131 48.605c-5.247 1.933-11.598.828-14.912-3.59-4.971-6.352-2.486-18.78 9.942-19.056 8.561-.276 11.875 5.524 12.427 10.77.276 6.076-2.486 9.943-7.457 11.876zm21.54 0c-9.113-.829-12.427-8.285-12.427-13.808.276-6.352 6.904-11.323 13.256-11.047 6.076.276 11.875 3.866 12.427 10.494 1.105 7.733-3.038 15.19-13.256 14.36z" fill="#E35B0F"/><path d="M124.273 31.206c2.209 2.762 3.038 6.905 2.761 10.495.553-1.381.553-3.038.553-4.971-.276-5.247-3.867-11.047-12.428-10.77-6.075.275-9.941 3.313-11.598 7.18 3.59-5.524 15.465-8.562 20.712-1.934zm18.503-6.351c4.971.276 9.114 3.037 10.494 7.732 1.381 4.971.553 9.666-1.657 12.98 2.762-2.762 3.867-6.904 3.59-11.323-.552-6.628-6.351-10.218-12.427-10.494-4.971-.276-9.942 2.762-12.151 6.904 3.866-4.142 7.733-6.075 12.151-5.8z" fill="#FF924D"/><path d="M148.851 30.102c-2.762-3.038-8.561-3.59-12.151-.276s-2.762 9.665.552 12.703c3.314 3.038 9.114 2.762 12.151-.828 2.486-2.762 3.038-8.009-.552-11.6z" fill="#000"/><path d="M148.299 40.872c-2.486 3.038-6.904 3.038-9.39 1.38-4.142-3.037-3.59-8.56-1.104-11.046 2.209-2.485 7.18-3.037 9.942 0 1.933 2.21 2.761 6.628.552 9.666z" fill="#fff"/><path d="M87.82 150.785c-2.485-1.933-5.799-.829-6.351 1.657-.553 1.933.276 4.418 2.21 5.247 1.656.552 3.865.276 4.97-1.381.829-1.933.552-4.418-.829-5.523z" fill="#000"/><path d="M85.058 156.584c-2.485 0-3.59-2.761-2.485-4.695.828-1.38 3.314-2.209 4.695-.276 1.656 1.657 1.104 5.247-2.21 4.971z" fill="#BFBFBF"/><path d="M75.944 176.468c-2.209 0-3.866 1.657-3.866 3.866 0 2.21 1.657 3.867 3.866 3.867 2.21 0 3.867-1.657 3.867-3.867-.277-2.209-1.934-3.866-3.867-3.866z" fill="#000"/><path d="M75.945 177.296c-1.657 0-2.761 1.381-2.761 2.762 0 1.657 1.104 2.762 2.761 2.762s2.762-1.381 2.762-2.762-1.381-2.762-2.762-2.762z" fill="#C9190F"/><path d="M195.246 174.811c-1.933 0-3.59 1.657-3.59 3.59 0 1.933 1.657 3.59 3.59 3.59 1.933 0 3.59-1.657 3.59-3.59-.276-1.933-1.657-3.59-3.59-3.59z" fill="#000"/><path d="M195.247 175.916a2.474 2.474 0 00-2.485 2.485 2.474 2.474 0 002.485 2.485 2.475 2.475 0 002.486-2.485 2.475 2.475 0 00-2.486-2.485z" fill="#C9190F"/><path d="M209.056 175.916c-2.21 0-3.867 1.657-3.867 3.866s1.657 3.866 3.867 3.866c1.933 0 3.866-1.657 3.866-3.866-.276-2.209-1.933-3.866-3.866-3.866z" fill="#000"/><path d="M209.055 176.744c-1.381 0-2.762 1.105-2.762 2.762 0 1.381 1.105 2.761 2.762 2.761s2.761-1.104 2.761-2.761c0-1.381-1.381-2.762-2.761-2.762z" fill="#C9190F"/><path d="M202.426 162.936c-1.656 0-3.037 1.381-3.037 3.038 0 1.657 1.381 3.038 3.037 3.038 1.657 0 3.038-1.381 3.038-3.038 0-1.657-1.381-3.038-3.038-3.038z" fill="#000"/><path d="M202.428 163.765c-1.381 0-2.209 1.104-2.209 2.209 0 1.381 1.104 2.209 2.209 2.209 1.381 0 2.209-1.104 2.209-2.209.277-1.105-.828-2.209-2.209-2.209z" fill="#C9190F"/><path d="M127.034 0c-2.486 0-4.419 1.933-4.419 4.419 0 2.485 1.933 4.418 4.419 4.418 2.485 0 4.418-1.933 4.418-4.418 0-2.486-1.933-4.419-4.418-4.419z" fill="#000"/><path d="M127.035 1.657c-1.381 0-2.762 1.105-2.762 2.762s1.105 2.761 2.762 2.761c1.381 0 2.762-1.104 2.762-2.761s-1.105-2.762-2.762-2.762z" fill="#C9190F"/><path d="M125.653 3.038c.553-.276 1.381-.276 1.934 0 .828.276 1.657.828 2.209 1.657v-.276c0-1.381-1.105-2.762-2.762-2.762-1.104 0-2.209.828-2.485 1.933.276-.276.552-.552 1.104-.552z" fill="#FF845F"/><path d="M202.703 150.785c-1.381 0-2.762 1.104-2.762 2.761 0 1.381 1.105 2.762 2.762 2.762 1.381 0 2.762-1.105 2.762-2.762s-1.381-2.761-2.762-2.761z" fill="#000"/><path d="M202.703 151.337c-1.105 0-1.933.829-1.933 1.933 0 1.105.828 1.934 1.933 1.934 1.104 0 1.933-.829 1.933-1.934 0-.828-.829-1.933-1.933-1.933z" fill="#BFBFBF"/><path d="M85.61 164.869c-1.658 0-2.762 1.381-2.762 2.762 0 1.657 1.38 2.761 2.761 2.761 1.657 0 2.762-1.38 2.762-2.761 0-1.381-1.105-2.762-2.762-2.762z" fill="#000"/><path d="M85.61 165.698c-1.105 0-2.21.828-2.21 2.209 0 1.105.829 2.209 2.21 2.209 1.104 0 2.209-.828 2.209-2.209 0-1.381-1.105-2.209-2.21-2.209z" fill="#C9190F"/><path d="M92.515 177.296c-1.933 0-3.314 1.381-3.314 3.314s1.381 3.314 3.314 3.314 3.314-1.381 3.314-3.314c0-1.657-1.657-3.314-3.314-3.314z" fill="#000"/><path d="M92.515 178.125a2.475 2.475 0 00-2.486 2.485 2.476 2.476 0 002.486 2.486A2.475 2.475 0 0095 180.61a2.475 2.475 0 00-2.485-2.485z" fill="#C9190F"/><path d="M73.46 178.954c-.276.276-.276.828-.276 1.38 0 1.657 1.104 2.762 2.761 2.762 1.105 0 2.21-.828 2.486-1.657-1.933-.276-4.143-1.105-4.971-2.485zm123.443.552c-1.381-.276-3.038-1.381-3.59-2.762-.552.552-.829 1.105-.829 1.933a2.476 2.476 0 002.486 2.486c1.104 0 2.209-.829 2.485-1.933 0 .276-.276.276-.552.276zm11.324.552c-.828-.276-1.381-.828-1.657-1.381v.829c0 1.381 1.105 2.761 2.762 2.761 1.381 0 2.485-1.104 2.762-2.485-1.105.828-3.038.828-3.867.276zm-3.591-14.084c0 .552-.552.552-1.104.552-1.105-.276-2.486-.828-3.038-1.933-.276.276-.553.829-.553 1.381 0 1.381 1.105 2.209 2.21 2.209 1.657.276 2.761-.828 2.485-2.209.276 0 .276 0 0 0zm-120.959.828c-.277.277-.277.553-.277 1.105 0 1.105.829 2.209 2.21 2.209.828 0 1.38-.552 1.933-1.104-1.657-.277-3.038-.829-3.867-2.21zm6.905 12.428c-.276.276-.553.828-.553 1.381a2.475 2.475 0 002.486 2.485c1.104 0 1.933-.552 2.21-1.657-1.658.829-3.315-.276-4.143-2.209z" fill="#A40B00"/><path d="M133.11 48.605c-1.657.276-5.799.276-8.008 0-.276 1.104.552 3.037 1.104 3.59.829.828 1.934 1.38 3.038 1.38 2.762 0 4.419-2.209 3.866-4.97z" fill="#000"/><path d="M128.969 52.471c-1.381 0-2.486-1.38-2.762-2.762 1.381.276 5.247.276 6.076 0-.277 1.933-1.657 3.038-3.314 2.762z" fill="#fff"/><path d="M142.223 33.14c-1.933 0-3.59 1.657-3.59 3.59 0 1.933 1.657 3.59 3.59 3.59 1.933 0 3.59-1.657 3.59-3.59 0-1.933-1.657-3.59-3.59-3.59z" fill="#000"/><path d="M62.137 90.581c-1.933 0-3.59 1.657-3.59 3.59 0 1.934 1.657 3.59 3.59 3.59 1.933 0 3.59-1.656 3.59-3.59 0-1.933-1.657-3.59-3.59-3.59zm161.555-15.465c-1.933 0-3.59 1.657-3.59 3.59 0 1.933 1.657 3.59 3.59 3.59 1.933 0 3.59-1.657 3.59-3.59 0-1.933-1.657-3.59-3.59-3.59z" fill="#C9190F"/><path d="M65.727 93.343c-.276-1.657-1.933-2.762-3.59-2.762-1.933 0-3.59 1.657-3.59 3.59 2.21-1.38 5.247-2.209 7.18-.828zm161.555-14.637c0-1.933-1.657-3.59-3.59-3.59-1.933 0-3.59 1.657-3.59 3.59v.276c1.933-1.933 5.247-1.933 7.18-.276z" fill="#FF845F"/><path d="M143.328 34.244c-.828 0-1.381.553-1.381 1.381 0 .829.553 1.38 1.381 1.38.829 0 1.381-.551 1.381-1.38 0-.828-.552-1.38-1.381-1.38z" fill="#fff"/><path d="M141.671 36.177c-.276 0-.552.276-.552.553 0 .276.276.552.552.552.277 0 .553-.276.553-.552 0-.277-.276-.553-.553-.553z" fill="#fff"/><path d="M115.989 29.826c-4.419-.277-8.009 2.485-8.561 6.904-.552 4.418 2.485 8.008 7.18 8.56 4.419.553 8.285-2.209 8.837-6.627.829-4.419-3.037-8.561-7.456-8.837z" fill="#000"/><path d="M114.055 43.91c-3.314-.829-5.799-3.314-5.799-6.628.276-3.59 3.314-6.628 7.732-6.076 4.143.277 6.352 4.143 6.076 7.18 0 4.42-4.695 6.076-8.009 5.524z" fill="#fff"/><path d="M117.645 34.52c-1.933 0-3.59 1.657-3.59 3.59 0 1.934 1.657 3.59 3.59 3.59 1.933 0 3.59-1.656 3.59-3.59 0-1.933-1.657-3.59-3.59-3.59z" fill="#000"/><path d="M118.75 35.625c-.829 0-1.381.552-1.381 1.38 0 .83.552 1.382 1.381 1.382.828 0 1.381-.553 1.381-1.381 0-.829-.553-1.381-1.381-1.381z" fill="#fff"/><path d="M117.369 37.834c-.276 0-.553.276-.553.553 0 .276.277.552.553.552s.552-.276.552-.552c-.276-.277-.276-.553-.552-.553z" fill="#fff"/><path d="M122.063 103.837c-2.486-.552-4.971 1.105-4.695 3.866 0 .829.276 1.657 1.105 2.486-.829 1.657-5.524 10.77-5.8 11.046-.276-.276-1.104-.828-1.381-.828-.276 0-9.941.828-10.218 1.105-.552.552.277 9.665.553 14.912 0 .553.276.829.828.553.829 0 7.457-1.381 10.218-1.933 1.105-.277 3.59-6.905 1.381-12.704.276-.276 5.8-10.77 6.352-11.599 1.933.829 4.142-.276 4.971-2.209.276-1.933-1.381-4.143-3.314-4.695z" fill="#CB7D00"/><path d="M120.959 102.732c-2.762-.552-4.971 1.105-4.971 3.867 0 .828.276 1.657 1.105 2.485-.829 1.657-5.8 10.771-5.8 11.047-.276-.276-1.104-.829-1.381-.829-.276 0-9.941.829-10.218 1.105-.276.276.277 9.389.553 14.913 0 .552.276.828.828.552.829 0 7.457-1.381 10.218-1.933 1.105-.276 3.59-6.904 1.381-12.704.276-.276 5.799-10.77 6.352-11.599 1.933.829 4.142-.276 4.971-2.209.552-1.933-1.105-4.142-3.038-4.695z" fill="#000"/><path d="M109.636 119.855c.276 0 1.105.552 1.381.828l-1.657 3.314c-.553-1.657-1.381-3.038-2.21-4.142.277.276 2.21 0 2.486 0z" fill="#BFBFBF"/><path d="M101.352 134.768c-.276-4.143-.552-9.666-.829-13.809 5.8 0 6.076 11.875.829 13.809z" fill="#C9190F"/><path d="M100.799 125.654c0 3.038.276 6.352.552 9.113 1.933-.552 3.038-2.761 3.59-4.971l-4.142-4.142z" fill="#A40B00"/><path d="M103.56 134.491c3.314-3.314 3.59-11.599-.552-14.084.828 0 1.657-.276 2.761-.276 3.038 2.761 3.591 9.942 1.381 13.532-1.104.552-2.209.828-3.59.828zm7.457-1.657c-.276.276-2.21.553-2.486.553.829-1.657 1.105-4.695 1.105-6.905.552-1.38 2.209-3.59 2.485-4.418 1.657 4.971-.552 10.494-1.104 10.77z" fill="#BFBFBF"/><path d="M109.637 129.244c1.104-1.381 1.933-2.485 3.037-3.866 0-1.105-.276-1.933-.552-3.038-.276.553-1.657 3.038-2.485 4.419v2.485z" fill="#9F9F9F"/><path d="M122.341 107.427c-.553 1.105-1.933 1.381-3.314.829-1.381-.553-1.933-2.209-1.657-3.314.552-1.381 2.485-2.209 3.866-1.105 1.381.829 1.933 2.21 1.105 3.59z" fill="#C9190F"/><path d="M121.511 106.047c.552.276.828.828 1.104 1.104.553-1.381 0-2.485-1.104-3.314-1.381-.828-3.314-.276-3.866.829 1.38.276 2.761.552 3.866 1.381z" fill="#FF845F"/><path d="M179.229 104.666c0 2.209-1.657 4.142-3.867 4.418l-37.282 3.867c-2.209.276-4.142-1.657-4.418-3.867l-1.657-27.34c-.276-2.485 1.657-4.418 3.866-4.694l37.834-1.657c2.21 0 4.143 1.657 4.419 3.866l1.105 25.407z" fill="#CB7D00"/><path d="M179.781 103.285c0 2.209-1.656 4.142-3.866 4.418l-36.177 3.591c-2.209.276-4.143-1.381-4.143-3.867l-1.657-26.235c-.276-2.21 1.657-4.419 3.867-4.419l36.729-1.657c2.21 0 4.143 1.657 4.143 3.867l1.104 24.302z" fill="#000"/><path d="M178.402 101.904c0 2.209-1.657 4.142-3.866 4.419l-33.14 3.037c-2.209.277-4.142-1.38-4.418-3.866l-1.381-23.474c-.276-2.485 1.657-4.418 3.866-4.418l33.692-1.381c2.209 0 4.142 1.657 4.418 3.866l.829 21.817z" fill="#DCFF8A"/><path d="M159.897 99.695l9.114-14.913c1.657-2.762 3.314-5.8 4.971-8.561h-1.105l-11.323.552c-2.761 3.866-5.247 7.733-8.008 11.875-4.695 6.904-8.838 14.084-13.532 20.989h1.104l13.532-1.381c1.933-3.038 3.59-5.8 5.247-8.561z" fill="#F2FFC1"/><path d="M95.829 96.105c-.829 0-1.657.828-1.657 1.657 0 .828.828 1.657 1.657 1.657.828 0 1.657-.829 1.657-1.657 0-.829-.829-1.657-1.657-1.657zm5.799-.277c-.829 0-1.657.829-1.657 1.657 0 .829.828 1.657 1.657 1.657.828 0 1.657-.828 1.657-1.657 0-.828-.553-1.657-1.657-1.657zm6.076-.276c-.829 0-1.657.829-1.657 1.657 0 .829.828 1.657 1.657 1.657.828 0 1.657-.828 1.657-1.657 0-1.104-.829-1.657-1.657-1.657zm-.277-6.352c-.829 0-1.657.83-1.657 1.658s.828 1.657 1.657 1.657c.828 0 1.656-.829 1.656-1.657 0-.829-.828-1.657-1.656-1.657zm-.276-6.627c-.828 0-1.657.828-1.657 1.657 0 .828.829 1.657 1.657 1.657.829 0 1.657-.829 1.657-1.657 0-.829-.828-1.657-1.657-1.657zm-.553-6.076c-.828 0-1.657.829-1.657 1.657 0 .829.829 1.657 1.657 1.657.829 0 1.657-.829 1.657-1.657 0-1.105-.828-1.657-1.657-1.657zm68.766 51.09c-.828 0-1.657.552-1.657 1.657 0 .829.552 1.657 1.657 1.657.828 0 1.657-.828 1.657-1.657-.276-.828-.829-1.657-1.657-1.657zm.275 6.076c-.828 0-1.657.828-1.657 1.657 0 .828.829 1.657 1.657 1.657.829 0 1.657-.829 1.657-1.657-.276-1.105-.828-1.657-1.657-1.657zm-.552-11.875c-.829 0-1.657.828-1.657 1.657 0 .828.552 1.657 1.657 1.657.828 0 1.657-.829 1.657-1.657-.277-.829-.829-1.657-1.657-1.657zm-.276-6.352c-.828 0-1.657.829-1.657 1.657 0 .829.829 1.657 1.657 1.657.829 0 1.657-.828 1.657-1.657-.276-.828-.828-1.657-1.657-1.657zm-.552-5.8c-.829 0-1.657.829-1.657 1.657 0 .829.828 1.657 1.657 1.657.828 0 1.657-.828 1.657-1.657 0-.828-.829-1.657-1.657-1.657zM114.055 95c-.828 0-1.657.829-1.657 1.657 0 .829.829 1.657 1.657 1.657.829 0 1.657-.828 1.657-1.657 0-.828-.828-1.657-1.657-1.657zm5.799-.276c-.828 0-1.657.828-1.657 1.657 0 .828.829 1.657 1.657 1.657.829 0 1.657-.829 1.657-1.657 0-.829-.828-1.657-1.657-1.657zm5.524-.553c-.829 0-1.657.829-1.657 1.657 0 .829.828 1.657 1.657 1.657.828 0 1.657-.828 1.657-1.656 0-.829-.553-1.657-1.657-1.657zm5.799-.276c-.829 0-1.657.829-1.657 1.657 0 .829.828 1.657 1.657 1.657.828 0 1.656-.828 1.656-1.657 0-.828-.828-1.657-1.656-1.657z" fill="#000"/><path d="M129.244 128.692a4.95 4.95 0 00-4.971 4.971c0 2.761 2.21 5.247 4.971 5.247 2.762 0 4.971-2.21 4.971-5.247a4.95 4.95 0 00-4.971-4.971zm14.912-.552c-2.761 0-4.97 2.209-4.97 5.247 0 2.761 2.209 5.247 4.97 5.247 2.762 0 4.971-2.209 4.971-5.247s-2.209-5.247-4.971-5.247zm14.637-.553c-2.761 0-4.971 2.209-4.971 5.247 0 2.762 2.21 5.247 4.971 5.247 2.762 0 4.971-2.209 4.971-5.247s-2.209-5.247-4.971-5.247z" fill="#CB7D00"/><path d="M130.348 127.587c-2.762 0-4.971 2.209-4.971 5.247 0 2.762 2.209 5.247 4.971 5.247s4.971-2.209 4.971-5.247-2.209-5.247-4.971-5.247zm14.914-.552c-2.762 0-4.971 2.209-4.971 5.247 0 2.762 2.209 5.247 4.971 5.247s4.971-2.209 4.971-5.247-2.209-5.247-4.971-5.247zm14.637-.552c-2.762 0-4.971 2.209-4.971 5.247s2.209 5.247 4.971 5.247c2.761 0 4.971-2.209 4.971-5.247s-2.21-5.247-4.971-5.247z" fill="#000"/><path d="M160.451 127.863c-1.657 0-3.314 1.657-3.314 3.591 0 1.933 1.381 3.59 3.314 3.59 1.657 0 3.037-1.657 3.037-3.59 0-1.934-1.38-3.591-3.037-3.591z" fill="#FFEB00"/><path d="M163.212 132.834c.276-.552.276-1.104.276-1.657 0-1.933-1.381-3.59-3.038-3.59-.552 0-1.105.276-1.657.552 1.381 1.657 3.038 3.314 4.419 4.695z" fill="#FFF8A6"/><path d="M145.538 128.416c-1.657 0-3.038 1.657-3.038 3.59 0 1.933 1.381 3.59 3.038 3.59 1.657 0 3.314-1.657 3.314-3.59 0-1.933-1.657-3.59-3.314-3.59z" fill="#46C000"/><path d="M148.298 133.387c.276-.553.276-1.105.276-1.657 0-1.933-1.38-3.59-3.314-3.59-.552 0-1.104.276-1.656.552 1.933 1.657 3.313 3.314 4.694 4.695z" fill="#A2DF56"/><path d="M130.626 128.692c-1.657 0-3.038 1.657-3.038 3.59 0 1.933 1.381 3.59 3.038 3.59 1.657 0 3.037-1.657 3.037-3.59 0-1.933-1.38-3.59-3.037-3.59z" fill="#3DB1FF"/><path d="M133.385 133.663c.277-.553.277-1.105.277-1.657 0-1.933-1.381-3.59-3.038-3.59-.553 0-1.105.276-1.657.552 1.381 1.657 3.038 3.314 4.418 4.695z" fill="#94D4FF"/><path d="M141.395 101.076l.276 4.418 3.866-.276-.276-4.419-3.866.277zm-.276-5.248l.276 4.419 3.867-.276-.277-4.419-3.866.276zm5.524 4.971l.276 4.419 3.866-.552-.276-4.419-3.866.552zm4.97-.552l.276 4.419 3.867-.553-.276-4.142-3.867.276zm19.608-1.933v4.142l3.866-.276-.276-4.142-3.59.276zm-14.362 1.381l.277 4.418 3.59-.552v-4.142l-3.867.276zm-10.494-4.143l.276 4.419 3.867-.552-.276-4.143-3.867.276zm19.332 3.314l.276 4.143 3.591-.277V98.59l-3.867.276zm0-4.971v4.143l3.867-.276v-4.143l-3.867.276zm-25.131-3.59l.277 4.419 3.866-.276-.276-4.419-3.867.276zm16.018 4.419l.276 4.142 3.866-.276-.276-4.142-3.866.276zm-.277-5.524l.276 4.42 3.866-.277-.276-4.419-3.866.276zm-16.293-4.142l.552 4.419 3.866-.276-.276-4.42-4.142.277z" fill="#000"/></g><defs><clipPath id="clip0"><path fill="#fff" d="M0 0h293.285v190H0z"/></clipPath></defs></svg>