<svg width="169" height="190" fill="none" xmlns="http://www.w3.org/2000/svg"><g clip-path="url(#clip0)"><path d="M167.692 155.908c-.384-.766-14.038-10.343-14.808-11.301-.961-3.064-6.346-26.048-8.461-31.22 1.346-3.064 0-7.086-3.077-8.235-3.269-1.341-6.538.957-7.692 3.064-3.27 1.915-15 9.768-18.27 11.684-1.153-.958-2.5-1.724-3.846-1.724-.384-6.129-.961-12.45-1.346-18.579-.384-4.405-.577-8.236-.961-12.641 4.23 0 22.5-.383 27.115.192.577 0 3.846-4.789 3.846-4.98 0-.383-.961-1.15-1.346-1.341-.385-3.064-1.538-20.11-1.923-21.835 5.192-2.298 13.846-9.193 14.615-11.109.962-.957 5.385-5.554 6.731-6.703.385-.192-2.692-3.64-3.461-3.448-.193 0-6.154 6.32-7.116 7.47 1.539-2.681 6.539-11.109 7.308-13.599 0-.191-5-2.49-5.192-2.107-2.693 4.597-5.193 9.768-7.693 14.557h-1.346c.192-2.299-2.308-14.365-2.5-14.365-.769-.383-5 1.532-5 1.915s2.308 10.151 3.846 12.833c-.961.958-1.731 1.915-2.307 3.064-.385-.957-2.308-5.362-3.077-6.512-.193-.191-1.154 0-2.5 1.15-1.347 1.149-1.731 1.915-1.539 2.106.385 1.916 3.077 8.045 4.231 9.002-.769 1.724-1.923 4.98-1.923 5.363s.961 4.789 1.154 4.789c.192.191.769.191.961.383.193 3.639 1.539 14.94 1.539 16.088-.193.383-.962 1.724-.962 1.724-5-.191-19.423-.575-23.461-.191 0-.958-1.731-18.388-2.308-26.432-.577-8.044-2.308-12.832-7.308-18.004-4.423-4.597-10.961-7.47-17.307-7.47-.193-.957-.385-4.98-.385-6.512 3.846-2.681 5.962-7.661 6.73-11.875.193-4.022-.192-10.726-5-11.109-4.422-.383-8.845 5.363-10.384 9.385C70.577 8.62 65.192 6.321 65 6.13c.193-.957.193-1.532 0-2.298-.191-.958-.576-1.724-1.345-1.724-1.731-.383-2.693 1.532-2.885 2.873-.192.958.192 2.107.577 2.682.385.766 1.346.957 2.115.574.577-.191.962-.766 1.347-1.149 1.153 1.15 7.115 4.788 7.692 4.98-1.923 5.746-2.115 14.556 6.154 12.066 0 1.341.192 4.406.192 5.172-7.115 1.149-13.27 6.129-16.73 12.258-2.693 4.788-4.231 8.81-4.231 17.62-.193 9.003-.77 16.856-.962 22.027-5.577 0-19.808.192-25.385.766-.192-.383-.961-1.724-.961-1.724.384-1.34 5.192-18.195 6.154-22.6.769-.575 1.923-2.682 2.307-3.64.193-1.149.193-2.681.193-4.022 1.154 0 4.807-.574 5.769-.957.192 0 0-4.406-.77-4.406-1.345 0-4.615.575-5.384.958-.192-2.681.192-5.746.192-8.236 1.154-1.34 4.039-4.597 4.039-4.98-.192-.574-2.308-2.681-2.692-2.49-.77.383-5.193 4.98-6.154 6.13-.193-3.257 1.154-8.428 1.538-10.535-1.154-.574-5 .766-5 .958-.192.766-.384 1.34-.577 2.107-1.154.191-3.077.766-3.654 1.34-.384 2.682 0 8.62 1.923 10.726-.384.192-.576.383-.576.575.576 3.447 4.23 10.343 5.384 12.258-.192 1.15 0 2.681 0 3.256-1.154 4.405-7.115 24.708-7.115 27.006 0 0-.577.766-.577.958 0 .191 3.269 4.213 3.654 4.213.384-.191.769-.766.769-1.149 3.846.192 23.654.192 26.73.192-.192 4.596-.384 9.002-.384 13.598l-.577 14.94c-1.346-.192-2.884.383-4.038 1.532-2.693-1.724-12.693-7.278-15.577-8.81-1.154-2.873-4.039-5.746-8.077-4.214-4.039 1.532-4.616 6.129-2.693 9.577-1.538 4.788-6.73 24.324-7.692 29.496-3.846 1.915-15.961 9.768-17.115 10.917-.77 1.149-.577 5.363-.577 5.554 3.27 6.129 12.692 8.045 19.808 8.045 3.653 0 7.307-.192 10.961-.766 4.808-.766 9.423-2.682 9.808-3.448.961-1.532.769-5.746.192-6.512-1.346-2.298-10.577-9.768-16.154-13.216.962-3.83 6.731-25.282 6.923-26.814 1.154-.192 2.116-.766 2.885-1.533 3.077 1.916 11.538 6.896 14.808 9.002.577 3.257 2.5 6.896 5.769 7.662-.192 3.639-.385 9.385-.577 11.875 1.73 3.639 7.5 7.661 9.423 8.236 0 3.447-.192 6.703-.192 10.534-6.154 3.064-18.846 12.258-19.039 12.641-.384.958.193 7.087.577 8.044.385.958 5.385 4.98 16.346 5.938 10.77.958 23.462-3.639 27.116-9.002.192-1.532-.193-4.214-.385-4.405-5-4.98-14.038-11.492-16.346-13.025-.192-2.681 0-7.661 0-7.661 10.192 3.639 18.077 1.149 22.885-.383 6.923-2.298 15.769-7.087 18.461-13.216.192-1.723-.385-5.171-.385-7.086 3.654-.575 5.77-4.406 5.577-8.236 3.847-2.299 13.847-8.428 16.731-10.726.769.958 2.308 1.149 3.269 1.341 2.116 9.576 4.231 19.153 5.962 28.73-2.692 1.915-13.846 10.151-15.962 12.832-.192.766-.192 4.789.193 5.555 2.5 4.213 10 4.788 14.23 5.171 4.808.383 11.539-1.341 15.962-2.873 3.654-1.341 8.269-4.022 9.615-5.937-.192-1.15-.384-4.789-.769-5.363z" fill="#000"/><path d="M62.5 7.278c-.962-.191-1.154-1.724-1.154-2.49.192-.957.961-2.873 2.307-2.107.385.192.577.958.77 1.724 0 .958-.577 3.065-1.923 2.873z" fill="#2BABBA"/><path d="M43.075 45.776c.385.383.385 2.49.385 2.682-.192.191-3.077.574-4.615.766 0-.958-.193-1.915-.193-2.682.77-.383 4.231-.957 4.423-.766zm-3.461 117.218c-.193.766-8.077 2.873-10.193 3.256-3.461.575-6.923.766-10.384.766-3.654 0-7.116-.383-10.577-1.724-5.385-2.298-7.308-4.788-7.5-4.98-.192-.383-.192-2.681-.192-4.022.577 1.149 1.73 1.916 2.884 2.49 2.5 1.532 5.385 2.682 8.27 3.256 9.038 2.49 19.23.958 27.692-2.873.384.766.384 3.256 0 3.831z" fill="#B3B3B3"/><path d="M39.422 158.014c-1.923.958-7.116 2.681-10.77 3.448-4.423.957-9.23.957-13.654.383-2.5-.383-5-1.15-7.5-2.299-1.73-.766-5.384-2.298-6.346-4.405 5.193-3.639 10.77-7.087 16.154-10.151.962 2.107 5.192 2.107 6.539.574 4.615 2.49 12.884 9.385 15.577 12.45z" fill="#2BABBA"/><path d="M23.075 144.032c-.961 1.341-3.654 1.341-4.807.192 1.346-5.938 5.769-22.41 7.5-28.539.961.958 2.5 1.916 3.846 2.107-.962 4.597-5.577 22.218-6.539 26.24z" fill="#B3B3B3"/><path d="M30.576 115.302c-1.923.383-3.461-1.34-4.423-2.873-1.538-2.49-.577-5.363 2.5-6.512 3.077-.957 4.808 1.916 5.385 3.256.77 2.873-.77 5.555-3.462 6.129z" fill="#FF7800"/><path d="M49.23 122.772c-3.462-1.915-11.539-6.129-14.039-8.044.577-1.149.962-2.873.77-4.022 3.077 1.723 10.769 5.937 14.423 8.235-.577.958-1.154 2.49-1.154 3.831z" fill="#B3B3B3"/><path d="M54.807 130.05c-2.115-.574-3.27-2.873-3.654-4.596-.384-1.724-.192-3.448.385-4.98.77-1.916 2.115-2.873 3.654-2.873 0 1.34-.193 9.959-.385 12.449z" fill="#FF7800"/><path d="M138.268 81.976c0 .383-1.923 2.873-2.307 3.064-.193.192-2.308-2.49-2.885-3.639 0-.383.577-1.15.769-1.15.385-.19 4.423 1.342 4.423 1.725z" fill="#2BABBA"/><path d="M154.807 38.69c.192 0 2.115 2.106 2.115 2.106-.192.192-4.807 4.789-5.961 6.13-.769-.575-1.539-1.15-2.5-1.533.961-1.34 5.961-6.512 6.346-6.703zm-4.423-8.237c.192-.191 3.077 1.341 3.077 1.533 0 .191-5.577 10.342-6.923 12.832-1.154-.383-2.308-.766-3.462-.766 2.308-5.171 6.346-12.832 7.308-13.599zm-16.154 1.341c.77-.574 2.308-1.149 3.077-1.34.77 3.255 1.923 9.768 2.308 13.215-.577 0-1.154 0-1.731.192-.577-1.15-2.884-8.236-3.654-12.067zm-5.769 12.066c.385-.574 1.731-1.914 2.308-2.106.769 1.34 2.5 5.555 3.077 6.704-.385.766-1.539 2.873-1.731 3.256-1.539-2.49-3.077-5.938-3.654-7.853z" fill="#B3B3B3"/><path d="M133.654 51.522c1.154-2.298 4.038-6.512 4.231-6.512.192-.191 9.423.766 11.73 3.065.385.383-7.884 6.895-13.653 9.768-.385.191-5 .766-5.193.383-.192-.192 1.731-4.597 2.885-6.704zm-2.116 10.918c-.193-.192-.77-3.065-.577-3.065.192 0 4.423-.383 4.423-.192.192 0 .577 2.682.384 2.873 0-.191-4.038.383-4.23.383z" fill="#2BABBA"/><path d="M132.5 63.206c1.154-.192 3.077-.384 3.462-.384.192 0 .961 13.216 1.538 17.238-.577-.191-2.308-.574-3.269-.766 0-2.298-1.346-12.45-1.731-16.088z" fill="#B3B3B3"/><path d="M136.346 66.079a85.84 85.84 0 00-.384-3.256c-.385 0-2.308.383-3.462.383 0 .766.192 2.106.385 3.447l3.461-.574z" fill="#8C8C8C"/><path d="M132.498 82.359c.385.766 1.347 2.107 1.731 2.873-1.154 0-20.384-.575-25.384-.192l-.193-3.064c7.885-.192 15.77 0 23.846.383z" fill="#B3B3B3"/><path d="M67.115 7.853c1.923.766 6.923 2.49 9.616 3.064-.193.575-.577 1.533-1.154 2.299-1.539-.958-7.885-4.789-8.462-5.363z" fill="#2BABBA"/><path d="M64.423 4.597c0-.192 0-.383-.193-.575 0 .192-.192.383-.384.575-.193.383-.577.957-1.154.957-.577.192-1.154 0-1.346-.574 0 .766.192 2.107 1.154 2.107 1.346.383 1.923-1.724 1.923-2.49zm6.729 5.937c1.731.958 3.654 2.299 4.423 2.873.385-.383.577-.766.77-1.34-1.731-.384-3.462-.958-5.193-1.533z" fill="#008A9B"/><path d="M72.692 21.069c-.77-1.724-.77-5.938.192-8.62.77.384 1.538.958 2.308 1.533-.577 1.149-.77 1.34-.193 1.149 2.308-.191 4.616-4.788 3.077-6.895-.192-.192-.577-.192-.577 0-.192.574-.192 1.34-.577 1.915-.961-.191-1.923-.383-3.076-.766 1.538-3.639 4.615-8.236 8.653-8.81 2.885 1.34.385 9.385-.384 11.492-.77 2.106-1.731 4.022-2.885 5.937-.577.766-1.154 1.532-1.923 2.298-1.538 1.724-3.846 2.682-4.615.767z" fill="#B3B3B3"/><path d="M82.5.958c-.385 0-.77.191-1.155.191.193 2.107-.384 4.405-1.346 6.512-.384.766-.961 1.34-1.538 2.107.192 2.298-1.731 5.363-3.654 5.554-.385 0-.385-.191.192-1.149-.384-.191-.77-.574-1.154-.766-.384 0-.769.192-1.346.383-.577 2.682-.577 5.746.192 7.278.77 1.724 3.077.958 4.616-.574.769-.766 1.346-1.34 1.923-2.299 1.154-1.915 2.115-3.83 2.885-5.937.769-1.915 3.269-9.96.384-11.3z" fill="#8C8C8C"/><path d="M75.191 22.984c3.462-.958 6.924-8.428 7.693-10.535.769-1.915 2.692-9.576.192-11.491 4.615.574 3.846 7.086 3.654 9.385-.577 4.213-3.077 8.235-6.539 10.917-1.346 1.15-3.269 1.915-5 1.724z" fill="#2BABBA"/><path d="M84.039 3.256c.961.383 1.73.958 2.5 1.724-.385-1.916-1.347-3.64-3.654-4.022.769.383 1.154 1.149 1.154 2.298z" fill="#82D6E3"/><path d="M79.422 19.153c-1.346 1.915-2.692 3.448-4.23 3.83 1.73.192 3.653-.574 4.807-1.532 2.308-1.915 4.23-4.405 5.385-7.278-1.154 1.724-3.654 4.214-5.962 4.98z" fill="#008A9B"/><path d="M80.768 29.113c-.385 0-1.346.191-1.346.191-.193-.957-.385-4.405-.385-5.362.577-.192.962-.384 1.539-.767-.193 1.15 0 4.214.192 5.938z" fill="#B3B3B3"/><path d="M80.576 26.24c0-1.15-.193-2.298 0-3.065-.577.383-.962.575-1.539.767 0 .574 0 1.532.192 2.681.385-.192.77-.383 1.347-.383z" fill="#8C8C8C"/><path d="M63.077 42.52c3.461-6.32 9.23-10.917 16.346-11.875 7.307-1.149 15.192 2.107 19.807 7.661 2.308 2.682 3.847 6.321 4.616 10.343 0 9.194-7.116 16.28-15.577 19.345-5.193 1.915-10.962 1.532-16.346-.192-3.27-1.149-6.154-2.873-8.654-5.17-1.154-.959-3.27-2.874-4.039-4.598-.384-4.405.962-10.15 3.847-15.514z" fill="#2BABBA"/><path d="M65 40.988c4.807-5.363 12.5-8.62 19.615-8.045 7.692.575 14.23 4.789 17.885 11.492-.77-2.298-1.923-4.213-3.27-5.937-4.615-5.555-12.307-8.81-19.807-7.661-7.116 1.149-12.885 5.746-16.346 11.875a17.484 17.484 0 00-1.346 2.681c.961-1.724 2.115-3.256 3.269-4.405z" fill="#82D6E3"/><path d="M60.768 61.482c1.923 1.915 4.423 4.405 6.538 5.363 5.385 3.064 12.115 4.597 18.27 3.447 5-.957 13.46-4.596 16.922-12.64.577 1.723 1.154 5.554-2.884 10.15-2.693 3.256-8.846 5.555-13.27 6.13-9.423 1.34-21.538-3.257-25.576-12.45z" fill="#fff"/><path d="M59.037 62.44c2.116 3.064 5.577 6.895 8.654 8.81 6.154 3.83 11.73 4.98 17.692 4.597 11.731-.575 18.269-8.045 19.616-13.982.192 4.98.769 10.151.961 11.3-.961 5.172-10.577 12.45-23.846 12.833-9.038.383-19.23-5.363-23.077-13.79V62.44z" fill="#B3B3B3"/><path d="M99.806 71.825c-2.307 2.106-5.192 3.639-8.269 4.788.192 2.681.192 5.171.385 7.853 3.461-1.15 6.346-2.682 8.654-4.406-.193-2.106-.385-4.022-.577-6.129.192-.766 0-1.34-.193-2.106z" fill="#D3D3D3"/><path d="M103.652 77.379c1.346-1.34 2.116-2.873 2.308-4.214-.192-1.149-.577-6.32-.962-11.3-.384 1.34-.961 2.873-1.73 4.214.192 3.83.384 7.66.384 11.3zm-41.73-11.3c-1.154-1.15-1.923-2.49-2.693-3.64 0 2.299-.192 8.81-.192 9.96a30.146 30.146 0 002.885 4.597c0-3.64-.193-7.278 0-10.917z" fill="#8C8C8C"/><path d="M35.96 56.885c-.576-.191-1.73-.383-2.307-.383-.192-.575-.192-1.915-.192-2.681.385 0 3.077.574 3.654.574 0 .192-.77 2.107-1.154 2.49z" fill="#2BABBA"/><path d="M135.385 60.716c.192 0 .384 0 .577-.192 0-.766-.193-1.34-.385-1.532-.192 0-4.231.192-4.423.192-.192 0 0 .957.192 1.915 1.346-.192 2.693-.383 4.039-.383zM36.73 55.544c.192-.574.576-1.149.576-1.149-.577 0-3.269-.574-3.654-.574v1.149c.962.191 1.923.383 3.077.574z" fill="#008A9B"/><path d="M40 31.22c.577.191 1.346 1.149 1.538 1.34-.77.767-3.27 3.256-3.846 4.214-.962-.191-2.308 0-3.462.383.193-.383 4.424-4.98 5.77-5.937zm-9.04-3.831c.385-.383 2.5-.958 3.077-.766-.769 3.064-1.73 8.81-1.154 10.917-.961.383-1.73.766-2.5 1.34-.576-3.064 0-8.043.577-11.491zm-4.037 3.064c.577-.383 1.73-.766 2.5-.957-.77 3.256-.384 7.47 0 9.768-.192.191-.77.575-.961.958-1.154-2.107-1.731-7.087-1.539-9.769z" fill="#B3B3B3"/><path d="M28.46 41.562c1.924-1.915 5.962-3.83 9.04-3.639-.385 3.065-.77 10.343 0 15.514-.962-.383-3.078-.766-4.231-.574-.962-1.916-3.846-8.81-4.808-11.3z" fill="#2BABBA"/><path d="M145.768 48.649c.769.383 1.346.575 2.115.958 1.154-.958 1.923-1.724 1.731-1.724-2.5-2.299-11.538-3.256-11.731-3.065 0 0-.577.767-1.346 1.724 3.077.575 6.154.958 9.231 2.107zM37.5 38.498v-.575c-3.078 0-7.116 1.916-9.04 3.64 0 .191.193.574.386.957 2.692-1.915 5.576-3.256 8.653-4.022z" fill="#82D6E3"/><path d="M33.845 57.46c.384 0 1.346.191 1.346.191-1.154 4.022-5.385 19.345-5.962 22.792-.769.383-2.5 1.916-2.692 2.107 1.539-4.022 5.385-19.536 7.308-25.09z" fill="#B3B3B3"/><path d="M28.46 87.147c-.191.192-2.5-2.681-2.5-2.873 0-.192 3.655-3.256 3.655-3.064.192.191.577.766.769.957.192.192-1.73 4.788-1.923 4.98z" fill="#2BABBA"/><path d="M29.807 86.381c.384-1.15.961-2.49 1.346-3.639 5.577-.192 19.808 0 25.384-.192 0 1.15 0 2.299-.192 3.448-3.077.383-22.5.383-26.538.383z" fill="#B3B3B3"/><path d="M40.192 46.16c-.77.19-1.539.19-1.731.382 0 .958.192 1.724.192 2.682.577 0 1.346-.192 1.923-.192 0-1.149-.192-2.107-.384-2.873zm109.614-2.49c-.769.765-1.346 1.34-1.538 1.723.961.383 1.73.958 2.5 1.532l1.153-1.149c-.769-.574-1.346-1.34-2.115-2.107zm-5.96-1.533c-.384.575-.577 1.15-.961 1.724 1.154.191 2.307.383 3.461.766.193-.575.77-1.34 1.346-2.299-1.153 0-2.5-.191-3.846-.191zm-6.924-.957c.384 1.34.769 2.298.961 2.49.577 0 .962-.192 1.731-.192-.192-.958-.192-2.107-.384-3.448-.77.575-1.539.958-2.308 1.15zm-6.346 7.66c.577.958.962 1.916 1.539 2.682.192-.383 1.346-2.298 1.73-3.256-.192-.383-.577-1.34-1.153-2.49-.577 1.34-1.347 2.298-2.116 3.064zm.769 36.009c.193 0 .385.191.385.383h2.692c-.577-.575-1.538-2.107-1.73-2.873h-2.116c.192.766.577 1.532.769 2.49zm-19.038-3.065h-3.461l.192 3.065h3.654c-.192-.958-.385-1.916-.385-3.065zM35.768 35.242c-.962.958-1.539 1.532-1.73 1.724 1.153-.383 2.5-.575 3.46-.383l.962-.958c-.769-.192-1.73-.192-2.692-.383zm-3.076-.383c-.961.383-1.73.766-2.692.957 0 .958 0 1.916.192 2.682.77-.575 1.539-.958 2.5-1.34v-2.3zm-5.001 2.681c.193.958.577 1.916.962 2.49.192-.191.77-.575.962-.958a20.245 20.245 0 01-.385-4.022c-.385.958-.962 1.724-1.539 2.49zm6.923 22.41c.192-.958.384-1.724.577-2.299-.193 0-1.154-.191-1.347-.191a24 24 0 00-.576 1.915c.384.191.961.383 1.346.575zm-1.923 22.792h-1.538a75.56 75.56 0 00-1.346 3.639h2.307c.193-1.15.385-2.49.577-3.64zm18.269 0v3.639c2.693 0 4.809 0 5.578-.192 0-1.149 0-2.298.192-3.447h-5.77z" fill="#8C8C8C"/><path d="M87.115 180.423c-5.384 4.98-12.307 7.662-21.346 8.045-5.192.191-9.423-.575-12.5-1.532-3.076-.958-5.769-2.682-7.5-4.214-.192-1.149-.384-4.022-.384-4.214.769 1.149 2.115 1.915 3.269 2.682 3.461 2.298 7.115 3.256 11.154 4.022 5 .766 10.577.191 15.384-1.533 4.616-1.723 9.616-4.213 11.731-6.32 0 .766.192 2.49.192 3.064z" fill="#B3B3B3"/><path d="M71.539 165.292c4.23 2.49 10.576 7.278 14.615 11.301-2.885 1.915-6.154 4.022-9.423 5.363-4.23 1.915-8.27 2.681-13.077 2.681-4.039 0-8.27-.766-11.923-2.49-1.923-.958-6.154-3.447-6.346-6.129 5.769-4.405 14.038-9.768 18.269-11.875-.385 1.724 2.115 2.873 3.461 2.873 1.154 0 3.654.192 4.424-1.724z" fill="#2BABBA"/><path d="M66.153 130.242c-2.693-.766-2.693-4.788-2.5-6.895.384-2.107 3.461-6.321 7.115-2.873 2.5 2.49 1.923 11.683-4.615 9.768z" fill="#FF7800"/><path d="M65.19 131.583c1.347.766 3.462.957 4.809.383.192 3.639 0 28.346.384 31.794-.961 1.149-4.615.958-5.384-.192-.385-6.129 0-31.028.192-31.985zm6.156-.767c1.346-1.149 2.115-3.064 2.307-5.171 0-.766 0-1.532-.192-2.298 1.346 1.34 10.962 8.236 11.346 8.81.193.192.77 1.532.385 2.49-.385.958-1.539 1.915-2.115 1.532-1.154-.383-9.424-4.022-11.731-5.363z" fill="#B3B3B3"/><path d="M85.575 131.199c-.769-.574-2.115-1.532-3.654-2.681 2.5-1.724 5-1.532 7.308 1.341 1.923 2.107 2.5 5.171 1.923 7.853-.769 3.064-3.077 5.746-6.153 6.32-4.424.575-8.078-3.831-7.308-8.427.769.191 4.038 1.915 5.577 2.298 1.538.383 3.077-1.341 3.461-2.681.192-1.15-.384-3.448-1.154-4.023z" fill="#FF7800"/><path d="M94.037 152.843c-6.73 2.49-15.77 3.064-22.5.574 0-1.724.192-18.578 0-20.877a51.86 51.86 0 004.615 2.299c-1.153 5.554 2.116 9.193 5.77 10.342 4.615 1.341 8.461-1.149 10.384-4.979 2.116-4.214.962-9.002-2.307-12.259-2.5-2.489-6.154-2.681-9.039-.574-.577-.383-5.77-4.597-8.077-6.321-.961-2.49-5-4.98-8.654-1.723-3.654 3.256-2.692 9.193-.192 11.3 0 3.064-.385 15.131-.385 19.345-2.115-.958-6.538-4.406-7.5-7.087.385-3.831 2.693-66.653 2.693-68.569 5.192 9.003 14.807 12.642 23.269 12.642 13.846 0 22.884-7.853 24.231-11.684.384 4.597 4.615 57.077 5.192 65.121-1.731 3.639-6.731 8.427-17.5 12.45z" fill="#2BABBA"/><path d="M101.345 91.17c-.192-1.724-.192-2.682-.192-2.874-2.692 1.724-5.577 3.256-8.462 4.214v2.298c3.077-.574 5.962-1.915 8.654-3.639zm-2.115 8.235c.962-.574 1.732-1.149 2.501-1.915-.193-1.915-.193-3.83-.385-5.171a23.706 23.706 0 01-8.846 3.447c0 1.532.192 3.448.192 5.746 2.308-.192 4.423-.766 6.539-2.107zm-5.77 17.238c.77 14.94 1.732 31.986 1.924 35.817 4.038-1.533 7.115-3.256 9.615-4.789-.192-4.405-1.346-20.302-2.115-34.475-2.885 1.915-5.962 3.256-9.423 3.447zm9.232-4.98c-.384-4.597-.576-8.81-.769-12.64-.577.574-1.346.957-2.115 1.34-2.308 1.341-4.423 1.915-6.923 2.298.192 3.639.384 8.045.577 12.641 3.461 0 6.538-1.532 9.23-3.639z" fill="#82D6E3"/><path d="M61.346 78.145c-.962-1.15-1.923-2.298-2.693-3.639 0 1.915-2.307 64.738-2.692 68.569.77 1.915 3.077 4.213 5.192 5.745-.769-23.558.193-47.116.193-70.675zm44.615 40.413c.385 9.002.769 18.004 1.539 26.815 2.115-1.724 3.269-3.448 3.846-4.789-.577-7.852-4.808-60.332-5.193-65.12-.384.957-1.153 2.106-2.307 3.447.384 13.407 1.538 26.623 2.115 39.647zm-13.846 21.835c-1.923 3.831-5.77 6.321-10.385 4.98-2.692-.766-5-2.873-5.769-5.938-1.538-.574-3.077-1.149-4.423-1.915 0 5.746-.192 14.748-.192 16.089 1.346.574 2.692.766 4.038 1.149 0-3.448-.192-6.895-.77-10.151-.191-.575.578-.958.962-.383 1.539 2.107 2.885 4.213 5.577 4.597 3.462.383 6.923-.767 8.846-3.64.962-1.532 1.731-3.256 1.924-5.171.384 0 .192.192.192.383z" fill="#008A9B"/><path d="M61.345 80.444c2.692 2.873 6.154 5.362 9.807 6.703 6.923 2.49 15 3.065 21.923.575 6.539-2.299 12.693-6.512 13.077-11.3v-.767c-1.346 3.83-10.384 11.684-24.23 11.684-8.654 0-18.077-3.64-23.27-12.641v1.149c.962 1.34 1.539 3.256 2.693 4.597z" fill="#008A9B"/><path d="M116.152 125.837c.385 4.022-1.923 6.703-3.653 7.086 0-.383-.962-12.641-.962-13.215 1.731.191 4.039 2.106 4.615 6.129z" fill="#FF7800"/><path d="M118.075 125.071c-.192-1.533-.961-2.873-1.923-4.214 3.27-1.916 14.231-9.194 16.923-11.109-.577 1.724-.384 3.448.577 4.98-1.73 1.724-12.307 8.236-15.577 10.343z" fill="#B3B3B3"/><path d="M136.731 114.919c-2.308-.957-3.077-3.447-1.924-5.746 1.154-2.298 3.077-4.213 5.962-3.256 3.077 1.149 3.462 4.98 1.346 8.045-1.154 1.532-3.654 1.723-5.384.957z" fill="#FF7800"/><path d="M34.038 109.365c0-.192-.193-.383-.385-.766 0 .574 0 1.149-.192 1.532-.77 2.107-3.462 2.681-5.192 1.532-1.154-.766-1.924-1.724-2.5-2.873-.385 1.149-.193 2.49.576 3.639.77 1.533 2.5 3.256 4.424 2.873 2.5-.574 4.038-3.256 3.269-5.937zm17.114 16.472c.385 1.723 1.731 3.83 3.654 4.213 0-1.724.193-5.937.385-9.002-.962 1.916-2.116 3.639-4.039 4.789zm20.77-1.916c-.769 2.107-2.884 4.406-5.384 3.831-1.346-.383-2.5-1.341-3.077-2.49 0 2.107.577 4.597 2.5 5.171 4.808 1.15 6.538-3.064 5.962-6.512zm8.077 17.047c2.692-.958 7.115-3.448 6.73-6.321v.192c-.576 1.532-2.115 3.256-3.46 2.681-1.54-.383-4.809-2.107-5.578-2.298-.384 2.107.192 4.405 1.539 5.937.192 0 .577 0 .769-.191z" fill="#C45700"/><path d="M90.19 131.199c.77 3.065.385 6.129-1.73 8.811-2.115 2.681-4.423 3.064-7.308 3.256 1.154.575 2.308.958 3.654.766 3.077-.383 5.385-3.256 6.154-6.32.77-2.299.385-4.597-.77-6.513zm21.925-4.405c.193 3.065.385 5.938.385 6.129.961-.191 2.308-1.34 3.077-3.064-1.346-.575-2.5-1.724-3.462-3.065zm30.576-15.514c-1.731 1.532-4.616 2.107-6.539.766-.769-.574-1.346-1.149-1.538-1.723-.385 1.915.384 4.022 2.307 4.788 1.731.766 4.039.574 5.193-.958.769-1.149 1.154-2.298 1.346-3.447-.385 0-.577.383-.769.574z" fill="#C45700"/><path d="M140 117.218c1.538-.192 2.885-.958 3.654-2.299.961 3.448 7.308 28.156 7.5 30.454-.577 1.532-3.269 2.49-5.192 1.149-1.347-6.512-5-24.899-5.962-29.304z" fill="#B3B3B3"/><path d="M29.038 120.665c.385-1.149.577-2.107.77-2.873-1.539-.191-3.077-.958-3.846-2.107-.193.958-.577 2.107-.962 3.639 1.154.767 2.5 1.341 4.038 1.341zm7.307-5.171c.77-1.341.962-2.682.962-4.214-.577-.191-.962-.574-1.346-.766.192 1.341-.193 2.873-.77 4.022.385.383.77.766 1.154.958zM70 135.413v-3.447c-1.347.574-3.462.383-4.809-.383v3.447c1.539.575 3.27.766 4.808.383zm1.346-4.597c.384.192.961.575 1.73.958 1.539-2.107 2.308-4.405 1.924-7.087a12.496 12.496 0 01-1.539-1.34c.192.766.192 1.532.192 2.298-.192 1.915-.961 3.831-2.307 5.171zm4.614 2.299c3.078 1.532 6.54 2.873 7.309 3.256.577.191 1.73-.575 2.115-1.532 0-.192 0-.383.192-.575a77.612 77.612 0 01-9.615-1.149zm41.731-13.216c-.577.383-1.154.766-1.539.958 1.154 1.341 1.731 2.681 1.923 4.214.385-.192.962-.575 1.539-.958-.385-1.532-1.154-2.873-1.923-4.214zm26.732-2.298c-.385-1.149-.577-2.107-.769-2.682-.769 1.341-2.116 2.107-3.654 2.299.192.574.192 1.34.577 2.298 1.346-.383 2.692-.958 3.846-1.915z" fill="#8C8C8C"/><path d="M129.615 159.163c2.693-2.49 11.923-9.768 15-12.066.962 2.681 7.116 2.298 8.269-.766 2.116 1.915 12.116 9.385 13.27 10.151-7.116 4.788-14.616 7.278-23.077 7.086-4.616 0-11.346-1.149-13.462-4.405z" fill="#2BABBA"/><path d="M36.922 159.163c.961-.383 1.923-.766 2.5-1.149-2.693-3.064-10.962-9.96-15.385-12.258 0 0-.192.192-.385.192a215.484 215.484 0 0113.27 13.215zm47.692 18.387c.577-.383.961-.766 1.538-1.149-4.038-3.831-10.384-8.619-14.615-11.3-.193.383-.385.766-.77.957.77.958 12.308 10.343 13.847 11.492zm80.001-20.111c.385-.383.962-.574 1.346-.957-1.154-.958-11.154-8.428-13.269-10.151-.192.574-.577.957-.962 1.34 2.5 2.49 11.539 8.619 12.885 9.768z" fill="#82D6E3"/><path d="M5.769 158.78c5-3.256 9.038-8.044 13.269-12.258-.77-.191-1.346-.766-1.538-1.341-5.385 3.065-10.962 6.512-16.154 10.152.577 1.34 2.692 2.681 4.423 3.447zM50 181.189c5-4.979 9.23-10.725 13.653-16.088-.192-.383-.192-.575-.192-.958-4.231 2.107-12.308 7.47-18.27 11.875.385 2.107 2.885 4.022 4.808 5.171zm84.231-18.961c1.538-1.533 2.884-3.065 4.423-4.597a176.651 176.651 0 007.884-9.002c-.961-.192-1.73-.766-1.923-1.532-3.077 2.298-12.307 9.576-15 12.066.769 1.341 2.5 2.299 4.616 3.065z" fill="#008A9B"/><path d="M146.152 167.974c-4.423.383-14.23 0-16.923-4.597 0 0-.192-1.724-.192-2.681 3.077 3.256 9.808 4.022 13.654 4.022 7.692.191 17.115-2.873 23.654-7.279 0 .575.384 2.107.384 2.682-1.538 1.915-9.615 6.895-20.577 7.853z" fill="#B3B3B3"/><path d="M77.884 61.673h-.961c-.192-3.447-.77-8.236-4.423-9.768-1.923-.766-3.654-.766-5.385.383C65.77 53.246 65 55.544 65 56.885c-.385-.383-.77-.191-.77-.191 1.347 4.213 9.808 7.278 13.654 5.362.385 0 .193-.383 0-.383z" fill="#000"/><path d="M65.768 57.46c0-1.916 1.346-5.746 4.423-5.363-.77.383-1.539 1.532-1.539 2.681 0 1.724.962 3.065 2.692 3.64 1.347.382 3.077-.192 3.654-1.341.385 1.532.77 3.256.77 4.596-2.693.192-7.693-1.532-10-4.213z" fill="#fff"/><path d="M92.883 56.694c-.192.191-.577.383-.77.574-.96-3.447-4.614-6.895-8.268-6.32-2.308.383-3.846 2.298-4.231 4.405-.385 1.724-.577 4.597.385 6.32-.77 0-.577.383-.577.383 3.846 2.107 12.307-.574 14.038-4.98 0-.382-.192-.574-.577-.382z" fill="#000"/><path d="M86.73 60.716c-1.923.766-3.846.957-5.769.957-.962-2.873-1.154-7.661 2.115-9.385-.384.575-.577 1.916-.577 2.682.193 2.107 1.731 3.639 4.231 3.256 1.73-.192 2.885-2.299 2.885-3.83.769.957 1.538 2.297 1.73 3.447-1.153 1.149-2.692 2.298-4.615 2.873z" fill="#fff"/><path d="M76.73 47.883c-1.154-1.724-3.461-2.298-5.384-2.107-2.885.192-5.193 2.107-5.385 3.83.192.192.962 1.341 1.538 1.916 2.116-2.298 6.347-2.49 8.27-1.15.192-.574.577-1.723.961-2.489z" fill="#008A9B"/><path d="M75.385 46.734C74.23 45.01 71.922 44.435 70 44.627c-2.885.191-5.192 2.107-5.385 3.83.193.192.962 1.341 1.539 1.916 2.115-2.298 6.346-2.49 8.269-1.15.192-.574.577-1.723.962-2.49z" fill="#000"/><path d="M65.96 49.224c-.192-.192-.576-.575-.769-1.15.193-.957 2.116-2.681 4.616-2.872 2.115-.192 3.654.383 4.808 1.34-.193.383-.385 1.15-.578 1.34-1.346-.765-5.576-1.531-8.076 1.342z" fill="#82D6E3"/><path d="M92.884 50.181c-1.154-2.298-3.27-4.213-5.962-5.17-2.115-.767-4.615-.384-6.346 1.531.193.575.962 2.107 1.539 2.49 1.538-1.34 5.192-2.107 8.461 2.873 0 0 1.73-.957 2.308-1.724z" fill="#008A9B"/><path d="M91.538 48.266c-1.154-2.298-3.461-4.214-5.961-5.171-2.116-.767-4.808-.383-6.346 1.532.192.575.961 2.107 1.538 2.49 1.538-1.34 5.192-2.107 8.462 2.873 0 .191 1.73-.766 2.307-1.724z" fill="#000"/><path d="M85.768 45.585c-1.538-.767-3.654-.575-5.192.574-.192-.383-.385-.766-.77-1.149 1.154-1.15 2.885-1.915 5.385-1.15 2.116.575 4.039 2.49 5.385 4.406-.192.192-.962.766-1.346.958-.577-1.532-1.923-2.873-3.462-3.64z" fill="#82D6E3"/><path d="M87.499 52.863c-.77 0-1.347.575-1.347 1.34 0 .767.577 1.341 1.347 1.341.769 0 1.346-.574 1.346-1.34 0-.767-.577-1.341-1.346-1.341zm-1.922 2.298c-.385 0-.577.192-.577.575 0 .383.192.574.577.574.385 0 .577-.191.577-.574 0-.192-.385-.575-.577-.575zm-12.501-1.532c-.77 0-1.154.575-1.154 1.15 0 .574.577 1.148 1.154 1.148.769 0 1.154-.574 1.154-1.149.192-.574-.385-1.149-1.154-1.149zm-1.538 2.107c-.192 0-.577.191-.577.574 0 .192.192.575.577.575.192 0 .577-.191.577-.575 0-.383-.385-.574-.577-.574z" fill="#fff"/><path d="M98.845 66.845c-.192-1.34-.384-2.682-.961-4.022 0-.192-.193-.192-.193 0 .193.957.385 2.107.577 3.064.193 1.34 0 2.873.385 4.022 0 .192.192.192.192 0 .193-.766 0-1.915 0-3.064zm-6.345.191c0-.191-.385-.191-.385 0 0 1.916.77 3.83.77 5.938 0 .383.576.383.576 0 0-1.916-.384-4.022-.961-5.938zM86.537 72.4c-.192-.959-.192-2.108-.384-3.065 0-.192-.193-.192-.193 0-.192 1.149 0 2.106.193 3.256.192.766.192 1.723.577 2.298 0 .192.192 0 .192 0 .192-.958-.192-1.724-.385-2.49zm-6.538.382c0-.958-.192-1.915-.192-3.064h-.193c-.192 1.149-.192 2.298-.192 3.447 0 .575 0 1.724.577 2.107h.192c.192-.766-.192-1.724-.192-2.49zm-5.577-1.34c0-.958.192-1.916-.192-2.682h-.193c-.384.575-.192 1.34-.192 2.107 0 .766 0 1.724.192 2.49 0 .191.385.191.385 0v-1.915zm-4.23-4.022s-.192 0 0 0c-.384.765-.384 1.723-.384 2.49 0 .574-.193 1.531.192 2.106 0 .191.192 0 .192 0 .193-.575 0-1.34 0-2.107 0-.766.193-1.724 0-2.49zm-4.039-.384c0-.574 0-.957-.193-1.532 0 0-.192-.192-.192 0-.192.575-.192.958-.192 1.532 0 .575-.193 1.15 0 1.532 0 .192.192.192.192 0 .577-.383.385-.957.385-1.532zm-2.693-2.298v-1.15c0-.19-.192-.19-.192 0-.385.575-.193 1.533-.193 2.299 0 .192.577.192.577 0 0-.383 0-.766-.192-1.15z" fill="#000"/><path d="M137.307 107.641c1.154-1.341 3.27-.958 4.039.575.961 1.34-5.385 1.149-4.039-.575zm-72.5 15.706c0-1.341 1.73-3.64 3.269-2.682 2.115 1.341-3.27 5.363-3.27 2.682zm-36.923-15.323c.385-1.341 2.885-1.724 3.654-.191.77 1.532-4.23 2.106-3.654.191z" fill="#FFB273"/></g><defs><clipPath id="clip0"><path fill="#fff" d="M0 0h168.077v190H0z"/></clipPath></defs></svg>