<svg width="147" height="214" fill="none" xmlns="http://www.w3.org/2000/svg"><g clip-path="url(#clip0)"><path d="M7.574 108.839c-.54.551-.811 1.653-.27 2.479l.811.827c-.27 1.377-1.352 2.203-2.434 2.479-1.352.275-2.434-.276-2.975-1.928-.541 0-1.623.275-2.164.275.811 3.306 2.975 4.683 5.41 4.132 2.163-.551 4.327-2.755 3.786-5.234.27 0 .541-.275.541-.275.27 0 .541-.276.541-.551 1.082 0 2.976-.276 4.599-.276 0 1.378.27 2.755.54 4.132 1.083.827 4.329 2.479 5.951 2.479.27 0 .812 0 1.082-.275v9.916c-.27.276-.54.551-.54 1.102-3.787.827-5.14 3.306-4.87 6.336.271 4.132 2.976 6.611 6.222 6.611v-2.755c-2.164-.826-3.246-2.203-2.976-4.132 0-1.928.812-2.754 2.435-3.305.811.826 1.893 1.102 2.975.551.541-.276.812-.551 1.082-1.102 1.623.551 2.705 1.928 2.976 3.581.27 1.653-.541 3.03-2.705 3.581 0 .826 0 1.928.27 2.754 4.058-.55 6.222-3.581 5.951-6.611-.27-2.754-3.246-6.06-6.221-5.509 0-.275-.27-.551-.541-.826l-.541-.551v-10.467c4.598-.827 10.008-1.653 10.549-1.653 2.434 2.754 7.574 7.713 8.656 8.815v17.078c1.081 1.377 4.057 4.407 6.491 5.509 1.894.275 6.763.275 8.927.275 0 1.929.27 3.857.27 5.51-2.975 1.928-4.057 4.682-4.057 8.263 0 4.132 2.434 7.713 6.22 8.815v3.856c-2.433 1.378-4.868 5.234-4.327 9.091-6.762 3.58-20.828 13.497-22.18 15.976 1.893 1.377 9.467 1.928 16.23 2.204 5.95.275 14.606.275 19.745-.276.27-2.479.811-9.09.541-12.671 1.082-.826 3.246-3.581 3.246-7.162 0-3.856-1.893-6.335-4.598-7.712v-3.857c2.434-1.102 4.598-4.132 4.598-7.988.27-3.306-1.352-6.887-4.057-8.539 0-1.102-.27-4.683-.27-6.06 3.786-.276 11.36-.827 12.442-.827 0 1.102.27 3.03.54 4.408-1.622 1.652-2.975 3.856-3.245 6.06-.541 4.682 1.623 9.09 5.41 11.018 0 .826.27 3.581.27 4.958-2.164 1.928-2.975 4.407-2.705 7.162 0 3.306 1.353 5.234 3.517 7.437-1.353 1.929-6.222 10.192-7.033 13.773 5.95 1.102 13.524 1.378 19.475 1.653 5.68.275 14.066.275 19.205-1.102-3.517-4.132-14.336-11.294-18.664-14.048 2.975-1.928 4.869-4.683 4.869-8.539 0-2.755-1.623-6.611-5.139-8.264-.271-1.377-.541-3.03-.541-4.407 1.893-1.653 3.245-3.857 3.245-6.887 0-4.407-1.893-7.988-5.139-9.916-.27-1.653-.54-3.857-.54-4.959 2.975-.55 6.761-.826 9.196-1.928a193.314 193.314 0 01-.812-6.335c6.492 1.377 21.369-.276 24.074-.827.541-.826.811-2.479.811-3.305h1.623c.541 1.102 2.435 5.234 3.246 6.611 1.082 0 2.976-.827 3.787-1.928-.811-1.653-2.434-4.683-3.516-6.887.27-.275.541-.551.811-1.102 2.435 1.102 5.681 1.929 8.656 2.755.541-.826 1.082-3.03 1.082-4.407-2.705-.827-6.221-1.102-8.926-1.378 0-.826 0-1.928-.271-2.754 2.164-.551 5.41-1.377 7.574-2.204.541-1.102-.271-3.856-1.353-4.683-1.081 0-7.032 2.204-8.385 3.306-.541-.276-.811-.827-1.352-1.102.811-1.377 2.434-4.683 2.975-6.06-.27-.826-1.893-1.653-2.975-1.653-.541 1.102-2.164 4.408-2.976 6.611-1.082 0-2.434.551-3.245 1.653a15.778 15.778 0 01-1.082-1.928c-5.41 3.305-12.984 5.233-21.91 6.335-.541-3.581-1.082-6.886-1.353-8.263 1.623 1.101 7.304 2.203 10.009.275.27 0 .541.275.811.275 1.893.551 3.246-.55 3.787-2.203 1.352.826 5.41-1.928 4.598-3.857 2.976-2.754 6.762-12.12 6.492-21.485 2.705-.551 5.139-2.48 6.221-4.408 1.894-3.58 1.623-7.988.812-12.12-1.082-.275-2.705-.275-3.517.276.271 2.203 0 5.784-1.623 8.539-.811 1.377-2.975 3.58-5.68 4.407.541-1.928 2.435-10.467 2.705-12.67 1.352 0 2.434-.827 3.246-1.93 1.352-2.478.27-5.508-2.164-6.335-2.434-1.101-4.869-.55-5.951 1.929-.811 2.203 0 4.958 2.164 5.784-.811 2.48-1.893 7.988-2.705 11.294-1.352-2.48-2.434-5.234-2.975-8.815-.271-1.652-.271-4.132.541-6.886-.812-.551-2.164-.826-2.705-1.102-2.705 2.48-3.516 7.437-2.705 10.743.541 3.03 2.164 4.958 4.598 7.162-1.893 6.61-3.246 9.64-5.68 12.395-3.516 4.408-8.115 6.06-13.524 4.959-1.623-6.06-3.787-13.222-6.492-19.007-2.705-.55-7.303-.55-10.55-.55 0-1.654-.27-4.133-.54-5.51 2.434-.275 14.606-1.928 17.311-3.305 1.082-4.132 3.516-14.875 4.869-19.007-1.353-5.785-4.598-16.252-5.95-19.557-4.87 1.101-23.534.826-28.132 1.101 0-2.754-.27-5.509-.27-8.263 4.057 0 6.491-1.102 8.385-2.204 1.352-1.102 3.516-3.857 3.246-6.611-.541-.275-1.894-.275-2.435 0-.27 2.755-1.623 4.132-3.787 4.958-1.082.551-3.516.826-5.139.826 0-1.928-.27-3.58-.27-5.509.54 0 2.704-1.101 1.893-3.856-.54-1.928-2.975-2.755-4.598-1.928-1.623.826-2.164 2.203-1.623 3.856 0 .551 1.082 1.928 1.623 1.928v5.51c-4.87 0-7.845-2.48-8.656-6.887-.54-.275-2.434-.275-2.975 0 .54 6.336 6.22 10.467 11.63 9.917v8.539c-6.491.275-22.72 1.652-25.966 2.203-1.894 1.929-5.14 5.51-7.304 7.989 0 1.928.541 23.689.812 27.545 1.082.827 6.762 4.959 8.656 5.785 1.893.275 10.278.275 15.147.275 0 1.653.27 3.857.541 5.234a379.677 379.677 0 01-9.738 1.377c-2.434 1.653-4.868 5.234-5.68 6.336-.27 2.204-.27 6.336-.27 7.713-3.246.275-16.5.826-19.746 1.102-.27-3.306-1.082-9.366-1.623-12.12.27-.276.54-.276.54-.551.271-.276.271-.551.271-.827 3.246 0 5.41-3.58 5.41-6.335 0-3.03-2.705-5.51-6.762-5.51 0 .827 0 1.929.27 2.755 2.164.276 3.246 1.377 3.246 3.03 0 1.653-.811 3.306-2.434 4.132-.27-.275-.541-.55-1.082-.826-1.082-.276-2.434 0-2.976 1.102-1.622-.276-2.704-1.102-2.975-3.03-.54-2.204.27-3.582 2.434-4.683 0-.551-.27-1.928-.27-2.48-3.246.276-5.68 3.306-5.14 7.438.271 3.03 1.894 5.234 5.952 5.509 0 0 .27.551.54.551.541 3.305 1.623 10.467 1.894 12.12-1.082 0-2.164.276-2.976.551-.81.551-3.245 3.03-4.057 4.132v3.03c-1.623.275-3.516.275-4.869.551-.27-.276-.54-.276-.811-.276-.812-3.03-2.975-3.581-5.14-3.305-3.245.551-4.868 2.754-4.598 5.234.541 0 1.623 0 1.894-.276.54-1.653 1.352-2.754 2.975-2.754s2.705.55 2.975 1.652zm32.46 5.509c1.622-.275 3.516-.55 5.139-1.101 0 1.101.27 5.233.27 6.335-1.352-1.377-3.787-3.581-5.41-5.234z" fill="#000"/><path d="M19.205 85.425c-2.434-.55-3.246-1.928-3.516-3.856-.27-2.204.27-3.857 2.434-5.234 0-.55 0-.826-.27-1.377-2.435.55-4.328 3.03-3.787 6.886.54 3.306 3.245 4.958 4.868 4.683.27-.276.27-.826.27-1.102zm5.14.275c2.164 0 4.598-2.478 4.598-6.06-.27-3.58-3.516-4.407-5.41-4.407 0 .276 0 1.102.27 1.378 2.165.55 3.247 1.652 3.517 3.305.27 1.928-.811 4.683-2.705 5.234-.54 0-.54.275-.27.55zm6.762 48.757c0 1.652-.811 3.03-2.975 3.856v1.377c1.893-.275 4.869-1.928 4.598-5.233-.27-3.581-3.246-5.509-5.41-5.234v.551c2.164 0 3.787 2.754 3.787 4.683zm-8.656-5.509c-1.623 0-4.328 1.928-4.057 5.233 0 3.857 2.164 5.785 4.869 6.06v-1.377c-2.435-1.102-3.246-2.479-3.246-4.683 0-1.653.54-3.305 2.705-4.132-.27-.275-.27-.826-.27-1.101z" fill="#98BDDF"/><path d="M22.451 84.323c-1.352-.55-2.164.276-2.164 1.653 0 1.102.812 2.204 2.434 1.377 1.353-.55.812-2.479-.27-3.03z" fill="#E4040C"/><path d="M22.722 88.18c-.27.275-1.082.275-1.353.275.27 3.03 1.353 9.917 1.623 11.57.541 0 .812 0 1.352-.276-.27-3.856-1.352-9.09-1.622-11.57z" fill="#98BDDF"/><path d="M42.197 38.047c-1.353 1.652-4.869 5.509-5.95 6.886.27 4.132 1.081 25.342 1.081 26.444 1.893 1.102 5.41 3.58 7.033 4.407.811-5.784 2.705-13.222 4.057-18.455-1.082-4.132-5.41-16.803-6.221-19.282z" fill="#3D71A0"/><path d="M45.712 48.79c1.082 3.305 2.164 6.61 2.705 8.538-1.352 5.51-3.246 12.671-4.057 18.456-1.623-.826-5.14-3.305-7.033-4.407 0-.551-.27-4.958-.27-10.192 1.082-1.653 7.032-9.917 8.655-12.396z" fill="#1D5687"/><path d="M78.443 23.447c2.434-1.377 3.787-3.58 3.787-6.06h-1.353c-.54 5.234-5.95 6.336-10.278 6.06-.27-2.203-.27-5.784-.541-7.162.811 0 1.352 0 1.893-.826.27-.551.541-1.928-.27-2.755-.812-.826-1.623-1.102-2.705-.826-1.353.826-1.623 2.204-1.353 3.305a2.037 2.037 0 001.894 1.378c.27 0 0 .826-.27.826v6.336c-1.083 0-3.788.275-6.222-1.378-1.893-1.377-3.516-3.305-3.787-5.784h-1.623c.541 2.479 1.082 4.132 3.517 6.06 2.434 1.928 4.598 2.479 8.114 2.479 0 1.102.27 6.335 0 9.365H70.6v-9.09c2.705-.275 5.14-.826 7.844-1.928z" fill="#E4040C"/><path d="M100.082 72.203c.541-4.132 3.246-13.222 4.869-18.456-.811-3.305-3.516-12.67-5.68-18.455-9.197 0-20.828-.276-27.59-.276-6.763.551-19.205.827-28.402 2.48.812 2.203 5.951 18.455 6.222 19.832-1.082 3.03-3.787 16.803-4.058 19.007.541 0 19.746.55 29.754-.275 8.656-.827 16.77-1.929 24.885-3.857z" fill="#98BDDF"/><path d="M43.55 38.047c0-.276-.27-.551-.27-.827 9.196-1.377 21.638-1.928 28.4-2.203 6.763-.276 18.394 0 27.59.275.271.551.271 1.102.542 1.653-8.385 0-37.598-.551-56.262 1.102z" fill="#C0D9EC"/><path d="M100.081 72.203c.541-4.132 3.246-13.222 4.869-18.455-11.63.55-46.254 2.479-55.18 3.305-1.082 3.03-3.787 16.803-4.057 19.007.54 0 19.746.55 29.754-.276 8.385-.55 16.5-1.653 24.614-3.58z" fill="#75A2CD"/><path d="M61.133 77.988c.27 1.928.54 4.132.811 5.233 3.787-.55 17.853-1.652 21.099-1.652 0-1.378-.271-3.581-.271-5.234-4.057.826-16.23 1.653-21.64 1.653z" fill="#4956A4"/><path d="M119.828 76.61c-.541-2.203-.811-6.61 0-9.365-.541-.276-1.352-.55-1.622-.55-1.894 2.754-2.435 5.233-1.894 8.814.541 4.958 4.328 8.263 7.844 9.365-2.434-2.203-3.516-5.509-4.328-8.263z" fill="#98BDDF"/><path d="M130.916 68.898c1.082-1.928 0-4.132-1.623-4.958-1.893-.827-3.516-.551-4.327 1.101-1.353 2.204-.271 4.408 1.623 5.234 1.893.826 3.516.275 4.327-1.377z" fill="#E4040C"/><path d="M127.943 71.653c-.27 0-.811-.276-1.082-.276-.811 3.581-1.893 8.264-2.705 12.12.271.276.271.827.541 1.102.271 0 .541-.275.541-.275.541-2.48 2.164-10.192 2.705-12.671z" fill="#98BDDF"/><path d="M126.049 74.132c.27-.827.541-1.928.541-2.755.541.276 1.082.276 1.352.276-.27.55-.27 1.652-.541 2.754-.27 0-1.352-.275-1.352-.275zm.002 5.784c-.541 1.928-.812 3.581-1.082 4.407l-.541.276c-.271-.276-.271-.826-.541-1.102l.811-4.132c.541.276 1.082.276 1.353.551z" fill="#7099BF"/><path d="M135.245 82.67c1.352-2.478 1.352-7.712.811-10.742h-1.623c.271 3.856-.541 6.611-1.893 8.815-1.353 1.928-4.058 4.958-6.763 4.958 1.082.55 2.435.826 3.787 1.102 1.623-.551 4.058-1.378 5.681-4.132z" fill="#98BDDF"/><path d="M116.582 70.275c.271-1.377.812-2.48 1.623-3.58.27 0 1.352.275 1.623.55-.271 1.102-.541 2.204-.541 3.581-.812-.275-1.623-.275-2.705-.551zm18.933 4.959h-1.622c0-1.102.27-2.204 0-3.306h1.622c.271 1.102.271 2.204.271 3.58.27-.274 0-.274-.271-.274z" fill="#C0D9EC"/><path d="M118.747 112.145c1.623 0 3.516-1.653 3.516-2.204-2.164-1.653-5.68-3.581-7.574-3.03-.27 1.377 1.353 3.581 4.058 5.234zm-1.082.826c-1.352-1.102-3.516-3.03-4.057-5.509-1.623 1.102-1.623 4.132 0 6.06 1.352 1.653 3.516 1.102 4.057-.551z" fill="#E4040C"/><path d="M112.794 114.348c-1.082-1.101-1.623-2.754-1.352-4.682.27-2.479 1.893-4.132 4.598-3.857 1.893.276 4.328 1.378 6.221 2.755 2.705-2.755 6.492-12.671 6.222-20.935-1.894-.55-6.763-1.928-7.574-2.755-1.353 6.336-4.057 10.743-5.951 12.947-4.057 4.958-8.656 6.06-13.524 4.958.811 3.306 1.623 7.438 2.164 10.468 2.704 1.652 7.573 1.928 9.196 1.101z" fill="#44A4A1"/><path d="M115.23 99.75c-2.976 3.029-6.221 3.856-9.738 3.305 3.246-.276 6.492-1.929 9.197-5.234 1.352-1.653 3.516-4.683 4.869-8.815 0 3.857-1.623 7.713-4.328 10.743z" fill="#88C5C4"/><path d="M120.367 86.527c.271-.55.271-1.102.541-1.928.812.826 5.68 2.479 7.574 2.754v1.378c-2.705 0-5.41-.827-8.115-2.204zm-10.548 28.372c-.541-2.754.27-5.784 2.434-7.437-.541.551-.541 1.377-.812 2.204-.27 1.928.271 3.581 1.353 4.682-.541.276-1.623.551-2.975.551zm-5.95-11.844c1.082 3.581 1.893 7.437 2.164 11.294-1.082-.276-1.894-.551-2.705-1.102-.541-3.03-1.352-7.162-2.164-10.468 1.082 0 1.893.276 2.705.276z" fill="#1B858A"/><path d="M136.328 112.42c-.271-.275-1.082-1.101-1.623-.826-.812 1.653-1.623 3.581-2.705 5.785.27 0 1.082.275 1.623.551l2.705-5.51zm9.465 17.63c.271-.551.541-1.929.541-2.48-2.434-.551-5.409-1.101-8.114-1.377 0 .551-.271 1.377-.271 1.653 2.435 1.102 5.951 1.653 7.844 2.204zm-8.113-8.54c0 .276 0 .276 0 0 0 0 6.491-1.652 7.303-1.928 0-.826-.541-2.203-.812-2.754-.811.275-5.95 1.928-7.573 3.03.27.826.541 1.101 1.082 1.652zm-.811 15.426c.811-.276 1.893-.551 2.164-1.102-.812-1.653-2.164-4.132-2.976-5.785-.54.551-1.352.827-1.893 1.102.541 1.928 1.893 4.407 2.705 5.785zm-6.223-12.396c.27 1.378 2.164 2.204 3.516.827.812-.827.271-2.48-.811-2.755-1.623-.826-2.976.551-2.705 1.928z" fill="#E4040C"/><path d="M132.541 121.51c1.623 0 2.975 1.928 2.705 3.857-.271 1.377-1.623 2.479-3.787 1.652.27.827.27 2.204.27 2.755 4.328 1.377 6.492-3.856 5.14-7.713-.541-1.653-2.164-3.03-3.787-3.581-1.353-.551-3.517-.275-4.328 1.378.541 1.101 1.082 1.928 1.352 3.03.271-.827 1.082-1.653 2.435-1.378z" fill="#98BDDF"/><path d="M128.754 119.858c.811-1.653 2.975-1.929 4.328-1.378 1.623.551 2.975 2.204 3.787 3.581.541 1.102.541 2.479.27 3.857-.811-6.06-5.951-8.264-8.385-6.06z" fill="#C0D9EC"/><path d="M129.835 133.631c1.353-4.683-1.082-11.845-3.246-15.426-3.245 2.479-14.065 5.509-21.368 6.06.541 3.306 1.082 8.264 1.352 10.192 6.221 1.102 19.205 0 23.262-.826z" fill="#4956A4"/><path d="M107.115 124.265c7.303-1.102 16.5-3.581 19.476-6.06.27.551.541.826.811 1.377-6.762 4.408-17.582 5.234-20.287 4.683z" fill="#748CCB"/><path d="M117.394 199.74c-1.894-1.928-11.902-9.09-16.771-12.396-3.246 1.929-8.385 1.378-10.549.276.812.826 10.279 10.743 12.443 12.671 2.164 0 11.09 0 14.877-.551z" fill="#98BDDF"/><path d="M93.59 191.476l-3.787-3.856c2.164 1.102 7.573 1.653 10.549-.276 1.082.551 2.434 1.653 3.787 2.48-2.976 2.203-6.763 2.754-10.55 1.652z" fill="#7099BF"/><path d="M83.582 198.914c5.41.551 10.82 1.102 16.77 1.377-.54-.551-11.36-11.844-11.63-11.844-1.353 1.928-4.058 7.437-5.14 10.467z" fill="#75A2CD"/><path d="M87.639 190.099c.54-.826.811-1.653 1.082-2.204 0 0 1.352 1.653 3.245 3.306-1.352 0-2.975-.276-4.327-1.102z" fill="#5282B5"/><path d="M86.018 179.631c.27 5.785 4.869 7.989 10.549 7.713 4.869-.275 8.656-4.407 8.926-8.814.271-4.132-2.975-8.54-9.467-8.54-5.41 0-10.55 3.581-10.008 9.641z" fill="#98BDDF"/><path d="M96.026 169.99c4.327 0 7.303 1.929 8.655 4.683-5.139-4.683-13.795-4.407-16.23 1.378-1.622 3.305-1.081 6.611.812 9.641-1.623-1.378-2.705-3.03-2.975-5.785-.811-6.336 4.328-9.917 9.738-9.917z" fill="#C0D9EC"/><path d="M100.354 169.44c0-.827-.541-2.48-.541-3.581-2.164 1.377-6.492 3.03-11.09 1.377 0 .826 0 2.755.27 3.581 3.246-1.928 8.115-2.204 11.361-1.377z" fill="#4956A4"/><path d="M83.313 157.871c0 5.784 4.598 9.365 10.008 9.365 4.868-.275 9.196-3.856 9.196-9.09 0-5.509-4.598-10.743-10.82-9.916-7.032.826-8.385 6.611-8.385 9.641z" fill="#98BDDF"/><path d="M84.665 155.392c-.812 2.203-1.082 4.682-.27 6.886-.541-1.377-1.082-2.755-1.082-4.407 0-3.03 1.352-8.815 8.385-9.641 4.328-.551 7.573 1.652 9.467 4.682-5.68-6.06-14.607-3.305-16.5 2.48z" fill="#C0D9EC"/><path d="M97.649 148.23c-.27-1.378-.541-3.306-.812-4.132-.811 0-8.385 1.101-11.36 1.377 0 1.102.27 2.755.54 3.856 2.165-1.928 8.115-3.03 11.632-1.101z" fill="#4956A4"/><path d="M39.492 197.812c2.435 1.102 13.254 1.377 16.5 1.377.27-6.611.27-12.12.541-13.772-1.623 1.101-15.147 10.191-17.04 12.395z" fill="#98BDDF"/><path d="M41.656 198.363c-1.082-.275-1.623-.275-2.164-.551 1.894-2.204 15.418-11.294 17.041-12.395v1.652c-5.14 3.581-10.008 7.438-14.877 11.294z" fill="#C0D9EC"/><path d="M57.614 184.865c0 3.306-.27 11.845-.27 14.6 4.869 0 9.737 0 14.606-.551 0-1.653.541-8.815.541-10.192-2.164 1.377-4.869 1.653-7.032 1.377-3.246-.551-5.41-3.03-6.222-6.06-.27 0-1.352.551-1.623.826z" fill="#75A2CD"/><path d="M57.615 184.865c.27-.275 1.082-.55 1.623-.826.541 3.03 2.705 5.509 6.221 6.06 2.164.276 4.87 0 6.763-1.377v3.03c-4.87 2.479-13.525.826-14.607-6.887z" fill="#5282B5"/><path d="M60.59 178.806c-1.082 4.682.811 9.365 5.68 9.916 3.246.551 6.492-.826 8.386-4.407 1.893-3.581.811-9.09-3.517-10.743-4.057-1.377-9.467.551-10.549 5.234z" fill="#98BDDF"/><path d="M60.59 178.805c1.082-4.682 6.221-6.611 10.278-4.958 2.705 1.102 4.058 3.581 4.328 6.06-1.082-2.754-3.245-4.958-6.22-5.234-4.87-.55-8.386 4.132-7.575 8.815.27 1.377.812 2.755 1.353 4.132-2.164-1.653-2.976-5.234-2.164-8.815z" fill="#C0D9EC"/><path d="M70.6 169.99c-1.894.827-5.41.551-6.493.276v3.03c1.353-.551 4.058-1.102 6.222-.275.27-1.378.27-1.929.27-3.031z" fill="#4956A4"/><path d="M58.428 160.35c-.27 5.509 3.516 9.09 9.196 8.814 4.328-.275 7.845-4.132 7.304-9.09-.27-4.407-2.976-7.988-8.386-7.988-4.598 0-7.844 2.755-8.114 8.264z" fill="#98BDDF"/><path d="M60.59 157.32c-1.352 2.755-1.352 5.509-.54 7.988-.812-1.377-1.353-3.305-1.353-5.233.27-5.51 3.517-8.264 8.385-8.264 4.058 0 6.492 1.928 7.574 4.958-3.787-3.856-11.36-5.234-14.065.551z" fill="#C0D9EC"/><path d="M71.14 152.086c0-.827-.271-4.683-.271-5.509-1.082 0-7.574.275-8.656 0v4.958c2.434-.826 6.492-.826 8.926.551z" fill="#4956A4"/><path d="M61.674 83.221c-.27-1.101-.541-3.305-.541-5.233 5.41 0 17.582-.827 21.368-1.653.271 1.377.271 2.755.271 3.856-6.492-1.928-14.877-.826-21.098 3.03zm58.694 49.032c2.164.276 6.492.827 9.738.276 0 .551-.271.826-.271 1.377-4.328.826-17.041 1.928-23.532.826-.271-1.377-.541-4.958-1.082-7.712 4.598 2.754 9.467 4.682 15.147 5.233zm-31.645 38.289v-3.03c1.352.551 2.705.551 4.057.551-1.352.551-2.705 1.377-4.057 2.479zm-2.976-22.588c0-.826-.27-1.652-.27-2.203 2.975-.551 10.278-1.377 11.36-1.377 0 .55.27 1.652.541 2.754-3.516-2.204-8.115-1.653-11.63.826zm-21.368 23.69v-1.653c.811.275 4.328.826 6.492-.276v1.653c-2.164-.826-4.599-.551-6.492.276zm-2.166-22.313v-2.479h8.656v2.755c-2.705-1.102-5.951-1.377-8.656-.276z" fill="#323C8C"/><path d="M52.474 145.2c6.763.551 22.722.275 30.295-.551 4.328-.551 19.746-2.204 22.992-3.306-.811-8.263-2.705-20.384-3.787-27.27-.811-4.958-1.623-9.916-2.975-14.875-1.353-4.958-3.516-10.742-5.14-15.7-3.245-.276-7.303-.552-10.82-.276-3.515 0-6.22.275-9.737.55-7.303.552-14.877 1.102-21.91 2.48.542 9.64 1.082 46.828 1.082 58.948z" fill="#98BDDF"/><path d="M51.393 86.802v-1.101c7.032-1.102 14.606-1.928 21.91-2.48 3.516-.275 6.22-.55 9.737-.55 3.246 0 7.303 0 10.82.275 0 .276.27.826.27 1.102-12.983-.551-30.836 1.102-42.737 2.754z" fill="#C0D9EC"/><path d="M46.524 140.517c1.082 1.102 3.246 3.03 5.14 4.407 0-7.713-.541-47.93-.812-58.672-1.352 1.102-3.787 3.856-4.869 5.233 0 1.929-.27 7.162-.27 7.438h2.975c0 .55.541 13.497.541 13.773 0 .275-2.164.551-2.975.826 0 1.102.27 6.06.27 7.437l2.976 3.03c.54.827 0 3.03-1.353 2.48-.54-.551-1.082-1.102-1.623-1.378v15.426z" fill="#3D71A0"/><path d="M46.253 117.103c0-1.653-.27-3.305-.27-3.856.54 0 1.893-.276 2.434-.551-.541 1.377-1.353 2.754-2.164 4.407zm1.624 9.09h.27c-.54 1.102-1.082 1.928-1.893 3.03v-4.407c.54.275 1.082.826 1.623 1.377zm3.788 13.773v4.683c-1.894-1.102-4.058-3.03-5.14-4.407v-8.264c1.894 2.754 3.517 5.509 5.14 7.988z" fill="#1D5687"/><path d="M48.149 125.091c.54 0 .811-.826.54-1.377-3.516-3.306-6.491-6.336-9.737-9.366-.27 0-1.082.276-1.352.276.54.275 8.655 8.814 10.549 10.467z" fill="#98BDDF"/><path d="M23.264 129.499c.27 1.102 1.352 1.652 2.434 1.102 1.082-.551 1.352-2.48-.27-3.031-1.353-.55-2.164.827-2.164 1.929z" fill="#E4040C"/><path d="M25.428 116.828c-.541 0-1.082.275-1.623.275 0 2.755 0 7.437.27 9.641.27 0 1.082-.275 1.353 0 0-2.204.27-6.335 0-9.916z" fill="#98BDDF"/><path d="M22.18 116.001c4.058-.826 20.558-3.305 25.968-4.407 0-2.755 0-9.09-.27-12.12-3.788.275-20.829 1.102-27.59 1.928.27.826 1.352 11.845 1.892 14.599z" fill="#44A4A1"/><path d="M20.558 103.055c0-.551 0-1.102-.27-1.102 6.761-.827 23.532-1.928 27.59-1.928v.275c-6.493.551-21.1 1.653-27.32 2.755z" fill="#88C9C7"/><path d="M17.04 114.348c.812.276 2.975 1.377 4.057 1.653-.54-3.306-1.352-11.018-1.893-14.048-.27.275-2.434 2.479-2.976 3.581 0 .275 0 1.377.271 2.479.812 0 1.623-.276 2.164-.276.54.276.54 1.928.27 2.479-.811 0-1.622.276-2.434.276 0 1.653.27 3.03.541 3.856z" fill="#27767E"/><path d="M10.82 110.492c1.353 0 4.87-.275 7.574-.826.27-.276 0-.827-.27-1.102-1.894 0-5.41.551-7.304.826 0 .276.27.827 0 1.102zm-5.411 4.683c-1.082 0-2.434-.551-2.975-1.929-.271 0-.812 0-1.082.276.27 1.377 1.893 3.856 4.327 3.305 2.705-.551 4.058-2.754 3.517-4.682h-.541c.27 1.652-1.623 3.03-3.246 3.03z" fill="#98BDDF"/><path d="M8.115 111.043c.541.826 1.894.826 2.164-.551.27-1.102-.811-1.653-1.623-1.653-.811.276-1.082 1.377-.54 2.204z" fill="#E4040C"/><path d="M8.116 108.564c.27 0 .54-.276.811-.276-.27-1.377-1.623-3.03-4.328-2.754-2.705.275-4.328 2.203-4.328 4.132h1.082c.541-1.929 1.623-2.755 3.246-3.03 1.623-.276 2.705.275 3.517 1.928z" fill="#98BDDF"/><path d="M28.673 138.038c1.623-.827 2.434-2.204 2.434-3.581v-.276c.541-.826.812-1.928.812-3.03.54.827 1.082 1.929 1.082 3.03.27 3.581-2.705 4.959-4.599 5.234v-1.102l.27-.275zm-7.844-.826c.54.551 1.352 1.101 2.434 1.652v1.378c-2.705-.276-4.598-2.204-4.869-6.06v-.827c.271 1.653 1.083 3.03 2.435 3.857zm.811-45.727c-.27-1.101-.27-2.203-.27-3.03.27 0 1.081 0 1.352-.275 0 .826.27 1.653.54 3.03-.54.275-1.081.275-1.622.275zm2.434 6.061c0 .826.27 1.652.27 2.479-.54 0-.81 0-1.352.275 0-.55-.27-1.377-.54-2.203.54-.276 1.081-.551 1.622-.551zm15.959 19.282l-2.164-2.204c.27 0 1.082-.276 1.353-.276.54.551 1.352 1.102 1.893 1.653-.541.551-.812.551-1.082.827zm6.49 4.958l2.164 2.203c0 .551-.27 1.378-.54 1.378-.542-.276-1.083-1.102-2.165-2.204.27-.551.27-.826.541-1.377zm-22.718-2.479v-2.48c.54 0 1.082-.275 1.623-.275v2.204c-.541.275-1.082.551-1.623.551zm-8.386-10.468c1.082 0 2.164-.275 2.975-.275.27.275.27.826.27 1.102-1.081.275-2.434.275-3.516.275 0-.275.27-.826.27-1.102zm-11.361 7.437c.54 0 1.082-.275 1.352-.275.812-.276 1.623-.826 2.164-1.653.811-.551 1.352-1.377 1.352-2.203h.541c.27 1.652-1.082 4.131-3.516 4.682-.811.276-1.623 0-2.164-.275 0-.276 0-.276.27-.276z" fill="#7099BF"/><path d="M59.509 56.778c3.786 4.683 11.63 6.335 17.311 6.335 4.328 0 10.279-.275 13.795-2.754-.27-.551-.811-1.653-.811-1.928 0-.276.54-.276.54-.276s2.435 4.683 2.435 4.958c0 .276-.812.551-1.082 0-2.975 3.03-8.656 4.408-12.443 4.683-2.705.276-5.95.551-10.82.276-4.868-.276-9.466-1.929-11.36-4.959.541-1.928 1.894-6.886 2.435-6.335z" fill="#000"/><path d="M91.427 62.011c-.27-.55-.27-.826-.54-1.377-1.353 1.102-2.706 1.653-4.329 2.204-.27.826-.81 1.652-1.081 2.479 2.163-.551 4.057-1.653 5.95-3.306zm-6.762 3.581c.54-.826.811-1.928 1.352-2.754-1.082.275-3.516.55-5.14.826a35.15 35.15 0 00-.81 2.755c1.352 0 2.975-.276 4.598-.827zm-5.682 1.102c.27-.826.541-1.928.811-2.755-1.893.276-5.139 0-6.22 0-.271 1.102-.542 2.48-.812 3.03 1.893 0 4.598 0 6.221-.275zm-6.762.276c.27-.826.812-2.48.812-3.03a205.089 205.089 0 00-5.14-.826c-.54 1.101-.811 2.479-1.352 3.58 1.623 0 4.057.276 5.68.276zM66 66.419c.541-1.378.812-2.48 1.623-3.857-2.975-.826-5.95-2.203-8.114-4.683-.541 1.378-1.082 3.306-1.353 4.683 2.164 2.48 5.41 3.581 7.845 3.857z" fill="#fff"/><path d="M56.533 42.178H93.59c.27 1.929 1.082 7.162 1.082 9.366-1.082 0-30.024 1.102-36.245 1.102-.812-1.928-1.623-7.713-1.894-10.468z" fill="#000"/><path d="M59.238 51.82c1.623 0 32.189-.827 34.352-1.102 0-1.929-.54-5.785-.811-7.713-2.975 0-27.05 0-35.164.275.541 2.204 1.082 6.336 1.623 8.54z" fill="#D2F33A"/><path d="M84.395 43.005h8.385c.27 1.928.812 5.784.812 7.713-1.082 0-7.303.275-14.336.275 1.893-2.479 3.516-5.233 5.14-7.988zm-14.338 0h5.68c-1.622 2.755-3.516 5.784-5.41 8.54-1.893 0-3.786 0-5.409.274 1.623-3.03 3.246-6.06 5.14-8.814z" fill="#E8FF9C"/><path d="M76.82 47.412c1.083 2.204 3.788 2.204 5.14.276 1.623-2.204-.27-5.234-2.705-4.959-2.164 0-3.787 2.204-2.434 4.683zm-17.31.551c1.082 2.48 4.328 2.48 5.68.275 1.623-2.479-.27-5.784-2.975-5.509-2.435 0-4.058 2.48-2.705 5.234z" fill="#000"/><path d="M60.32 45.484c.54.826 1.623.826 2.164.275.54-.826 0-2.203-1.082-1.928-1.082-.275-1.623.551-1.082 1.653z" fill="#fff"/><path d="M62.213 46.586c.27.275.54.275.811 0 .27-.276 0-.826-.27-.826-.541 0-.541.275-.541.826zm15.419-1.653c.27.826 1.352.826 1.623 0 .54-.826 0-1.653-.812-1.653-.811.276-1.352 1.102-.811 1.653zm1.624 1.102c0 .275.54.275.54 0 .271-.276 0-.551-.27-.551s-.27.275-.27.55z" fill="#fff"/><path d="M62.486 88.18c2.164-1.928 5.139-2.754 8.655-3.03 3.246-.275 6.762-.275 10.008.551 2.976.826 4.87 2.48 5.68 5.51.812 2.203 0 4.407-1.081 6.06-1.623 2.478-4.328 3.305-7.303 3.58-3.246.276-5.14.276-8.115 0-4.058-.551-6.492-1.102-8.385-3.305-1.623-2.755-1.353-7.713.54-9.366z" fill="#000"/><path d="M63.026 88.731c-1.623 1.928-1.894 5.234 0 7.988 2.164 3.03 8.926 3.03 12.442 3.03 3.517 0 6.221-.55 8.115-1.652 2.975-1.929 3.787-6.611 1.352-9.366-1.352-1.653-2.975-2.204-5.139-2.755-2.164-.55-5.68-.55-8.115-.275-3.245.55-7.032 1.377-8.655 3.03z" fill="#3D71A0"/><path d="M63.025 88.73c.54-.826 1.623-1.376 2.705-1.652-1.353 1.102-2.164 2.48-1.623 4.683 1.623 5.785 11.09 4.407 15.147 3.58 2.435-.55 5.68-2.203 6.763-4.406.54 2.479-.27 5.509-2.705 7.161-1.894 1.378-4.87 1.653-8.115 1.653-3.516 0-10.279 0-12.443-3.03-1.622-2.479-1.352-6.06.27-7.988z" fill="#1C5787"/><path d="M89.534 154.841c1.352-1.653 3.516-1.653 5.139-.827 1.894 1.102 2.164 3.306 1.894 4.683-.541 2.755-3.787 3.306-5.951 2.479-2.164-1.101-2.435-4.407-1.082-6.335z" fill="#000"/><path d="M91.155 159.799c1.352.827 3.245.551 4.327-.826.812-.827.812-2.755-.54-3.857-1.082-1.101-3.246-.826-3.787-.275-1.894 1.102-1.623 3.856 0 4.958z" fill="#E4040C"/><path d="M91.426 176.877c.27-1.652 1.893-3.581 4.869-3.305 2.705.551 3.787 2.754 3.516 5.234-.27 2.479-2.434 3.581-4.598 3.305-2.705-.275-4.328-3.305-3.787-5.234z" fill="#000"/><path d="M94.672 180.734c1.893.551 3.787-.551 4.327-2.204.541-1.928-.54-3.856-2.434-4.132-1.893-.275-3.516.551-3.787 1.928-.811 1.929 0 3.857 1.894 4.408z" fill="#E4040C"/><path d="M63.026 158.972c.27-1.928 2.975-3.03 4.598-2.479 1.623.551 2.975 2.204 2.705 4.408-.27 2.203-2.705 3.581-4.869 3.03-2.434-.551-2.975-2.755-2.434-4.959z" fill="#000"/><path d="M65.189 162.829c1.623.551 3.516 0 4.057-1.653.541-1.653-.27-3.305-1.893-3.856-1.353-.276-2.976.275-3.517 1.652-.54 1.378 0 3.581 1.353 3.857z" fill="#E4040C"/><path d="M64.919 179.081c.811-2.204 4.598-2.479 5.95.275 1.353 2.479-1.081 5.234-3.516 4.958-2.705-.55-3.516-3.03-2.434-5.233z" fill="#000"/><path d="M66.543 182.937c1.352.826 3.516-.275 3.786-1.653.27-2.479-2.705-4.132-4.057-2.479-1.353 1.102-1.082 3.306.27 4.132z" fill="#E4040C"/><path d="M26.779 104.432c1.352 0 2.705.826 3.246 1.928 1.352-3.03 5.41-3.03 6.762-.275.27-.827 1.082-2.479 2.976-2.755 1.893 0 4.057 1.102 4.327 3.581.27 1.928-.811 3.856-2.705 4.407-1.352.276-3.245 0-4.327-1.652-1.082 3.305-6.222 3.305-7.033.275-.541 1.377-1.623 2.479-3.246 2.479-2.434.276-4.057-1.377-4.328-3.581.27-2.203 1.894-4.407 4.328-4.407z" fill="#1B858A"/><path d="M27.861 103.054c1.352 0 2.705.827 3.246 1.929 1.352-3.03 5.41-2.755 6.762-.276.27-.826 1.082-2.479 2.976-2.754 1.893 0 4.057 1.101 4.057 3.581.27 1.928-.812 3.856-2.705 4.407-1.352.275-3.246 0-4.328-1.653-1.082 3.306-5.95 3.306-6.762.276-.541 1.377-1.623 2.479-3.246 2.479-2.434.275-4.057-1.378-4.328-3.581.27-2.204 1.894-4.408 4.328-4.408z" fill="#000"/><path d="M38.41 106.636c.27 1.377 1.623 3.03 3.246 2.754 1.894-.275 2.705-2.204 2.434-3.856-.27-1.929-2.164-2.755-3.786-2.479-1.353.55-1.894 2.203-1.894 3.581zm-4.058 3.305c1.894 0 3.246-1.377 3.246-2.755 0-1.377-1.082-3.305-2.975-3.305-1.894 0-2.976 1.377-3.246 3.03.27 1.377 1.082 3.03 2.975 3.03zm-6.492.276c1.894 0 2.976-1.378 2.976-3.03 0-1.653-.812-3.03-2.435-3.306-1.893-.275-3.516 1.102-3.516 3.306 0 1.928 1.352 3.03 2.975 3.03z" fill="#27767E"/><path d="M74.656 126.193c.812-.275 2.435 0 4.87.276-.812-1.378-1.894-3.857-2.165-4.959 1.353 0 3.246-.275 4.599-.275-1.082-1.653-1.894-3.306-2.705-5.234.54-.275 3.516-.275 4.868-.275-.54-.551-1.623-2.204-2.163-2.755 2.434-5.509 5.41-10.743 7.844-15.425.54 1.928 1.352 12.395 0 17.629 0 0 1.893 3.305 2.164 4.958-1.353.276-2.705.276-3.787.276.27.826 1.082 1.652 1.352 2.203-.54.827-1.352 2.479-1.893 3.581 1.352 1.102 2.434 2.755 3.246 4.132-1.894.551-4.058.276-5.951.276.27.826.54 1.652.54 2.479-1.893 1.377-6.761 4.407-8.655 5.233 0-1.652 1.082-6.06 1.623-7.437-.54 0-2.705-3.305-3.787-4.683z" fill="#000"/><path d="M84.392 133.355c0-.826-.541-2.204-.541-3.306h5.14c-.812-1.101-1.624-2.203-2.976-3.03.54-.826 1.623-2.754 2.164-3.581-.27-.826-1.623-2.754-1.894-3.305 1.082 0 2.705 0 4.058-.276-.541-1.377-1.082-2.479-1.894-3.856.812-4.132 1.082-9.365.541-15.426-2.434 4.683-4.328 8.54-6.22 12.671.81.827 1.892 2.204 2.975 3.306-1.083.275-3.787.275-5.41.275.811 1.653 1.893 3.857 2.975 5.234-1.082 0-3.516.276-4.869 0 .812 1.928 1.623 3.581 2.435 4.958-1.082 0-3.787-.275-5.14-.275.812 1.102 2.164 3.305 2.976 4.407-.541 1.377-1.082 3.581-1.353 5.785 2.705-.827 5.14-2.479 7.033-3.581z" fill="#FF7600"/><path d="M81.419 118.48c-.27-.551-.541-.826-.812-1.377 1.353 0 3.517 0 4.87-.275 0 0-3.517 1.377-4.058 1.652zm-1.894 5.234c-.27-.276-.27-.826-.54-1.102h4.598c-1.353.276-2.705.551-4.058 1.102zm-2.164 4.683c-.27-.551-.811-1.102-1.082-1.377 1.082.275 2.976.275 4.058.275-.812.551-1.894.826-2.976 1.102zm9.467-.827c.812.827 1.623 1.653 2.164 2.479h-.811c-.27-.826-.812-1.652-1.353-2.479zm-2.975-13.497l-.54-.551c1.622-4.407 3.516-8.264 6.22-12.671 0 .826 0 1.928.271 2.755-1.352 1.377-4.057 6.335-5.95 10.467z" fill="#FFB363"/><path d="M70.327 111.869c1.082-2.203 2.705-5.509 3.516-6.886.811 5.234 1.082 14.324 1.082 17.078-1.352-1.102-3.516-4.132-4.598-6.06-1.082 3.581-2.435 6.336-2.976 6.611-1.352-3.581-2.434-9.09-3.786-14.324 1.352 0 4.868 2.204 6.762 3.581z" fill="#000"/><path d="M69.788 114.348c1.082 1.929 2.705 3.581 4.057 5.234 0-2.204-.27-8.539-.54-12.395-.812 1.928-2.165 4.958-2.706 6.335-1.623-1.102-4.328-2.755-5.95-3.581.81 3.306 1.622 6.887 2.704 10.467.812-1.928 1.894-4.407 2.435-6.06z" fill="#E4040C"/><path d="M68.975 116.552a29.015 29.015 0 00-1.352 3.305c-.27-.826-.541-1.377-.541-2.203.541-.276 1.353-.827 1.894-1.102zm4.871-3.305c0 2.479.27 4.958 0 6.335-1.083-1.102-2.164-2.754-3.246-4.132 1.352-.551 2.163-1.377 3.246-2.203z" fill="#AF040C"/><path d="M41.386 104.708c1.352.275 2.164 1.652 1.082 2.754-.812 1.102-2.164.827-2.705-.275-.27-1.378.812-2.755 1.623-2.479z" fill="#000"/><path d="M40.573 106.911c.54.551 1.352.551 1.623 0 .27-.551.27-1.102 0-1.377-.27-.551-1.353-.826-1.894 0-.27.826.27 1.102.27 1.377z" fill="#F25361"/><path d="M34.622 104.983c1.352.275 2.164 1.653 1.352 2.754-.81 1.102-2.163.827-2.704-.275-.812-1.102.27-2.479 1.352-2.479z" fill="#000"/><path d="M33.812 107.737c.541.551 1.353.551 1.894 0 .27-.551.27-1.102 0-1.377-.27-.551-1.623-.826-1.894 0-.54.551-.27 1.102 0 1.377z" fill="#F25361"/><path d="M27.59 105.258c1.353.276 2.165 1.653 1.353 3.03-.811 1.102-2.164.826-2.705-.275-.811-1.378.27-2.755 1.353-2.755z" fill="#000"/><path d="M26.78 108.013c.54.551 1.352.551 1.893 0 .27-.551.27-1.102 0-1.653-.27-.551-1.623-.826-1.894 0-.54.826-.27 1.377 0 1.653z" fill="#F25361"/><path d="M40.574 106.636c.27-1.102 1.352-1.378 2.164-.827 0-.275 0-.275-.27-.551-.271-.551-1.353-.826-1.894 0-.27.827-.27 1.102 0 1.378zm-7.034-.551c.541-.827 1.623-.551 1.894 0-1.082-.551-1.894.826-1.353 1.928-.27 0-.27-.275-.54-.275 0-.276-.271-.827 0-1.653zm-6.76.275c.54-.826 1.622-.551 1.893 0-1.353-.276-2.164.826-1.353 1.928-.27 0-.27-.275-.27-.275-.541-.276-.812-.827-.27-1.653z" fill="#FF807B"/><path d="M123.886 119.307c1.623 1.101 2.705 3.856 3.246 5.784.811 3.03 1.082 6.887 0 9.917 0 .275-.541.275-.271 0 .812-3.03.541-6.06 0-9.366-.541-2.204-1.352-4.407-2.975-5.785-.271-.55 0-.826 0-.55zm-3.246 1.377c-.271 0 0-.276 0 0 2.164 1.928 2.975 4.407 3.246 7.162.27 2.479-.271 6.611-1.082 7.437-.271.276-.271 0-.271-.275.541-.827 1.082-4.683.812-7.162-.271-2.479-1.082-5.234-2.705-7.162zm-3.517.826s.271-.275 0 0c1.893 1.653 2.975 4.408 3.246 6.887.27 2.479 0 5.509-1.082 7.437 0 .276-.541 0-.271-.275 1.082-2.204 1.082-4.683.812-7.162 0-2.479-1.082-4.683-2.705-6.887zm-2.704.827c-.271-.276 0-.551.27-.276 1.353 1.377 1.894 3.581 2.164 5.509.541 2.755.541 5.234-.27 7.989 0 .275-.541.275-.271 0 .541-2.204.541-4.683.271-7.162-.271-2.204-1.082-4.408-2.164-6.06zm-2.165.826c1.082 1.653 1.353 3.581 1.623 5.509.271 2.204.271 4.683-.27 6.886 0 .276-.271.276-.271 0 .271-2.203.541-4.682.271-6.886-.271-1.928-.812-3.856-1.623-5.509-.271-.276.27-.276.27 0zm-3.245 0c.811 1.653 1.352 3.581 1.623 5.509.27 2.204.27 4.683-.271 6.887 0 .275-.27.275-.27 0 .27-2.204.541-4.408.27-6.611-.27-2.204-.811-3.857-1.352-5.785-.271 0 0-.276 0 0zm-2.975.275c.812 1.653 1.353 3.306 1.623 4.959.271 1.928.271 4.407-.27 6.335 0 .276-.271.276-.271 0 .271-1.928.541-4.132.271-6.06-.271-1.653-.812-3.581-1.353-5.234-.27.276 0 0 0 0zM60.861 81.293c3.787.551 8.656.276 12.172 0 3.516-.275 7.844-.826 10.279-1.928.27 0 .27.276.27.276-2.705 1.652-7.032 1.928-10.278 2.203-4.599.276-9.197.276-12.443 0-.27 0-.27-.55 0-.55zm-.271-2.203c3.787.55 8.385.275 11.901 0 3.517-.276 7.574-.827 10.279-1.928.27 0 .27.275.27.275-2.434 1.653-7.032 1.928-10.008 2.204-4.598.275-9.196.275-12.172 0-.27-.276-.27-.551-.27-.551zM48.688 56.778c.811 0 16.77-.827 21.098-1.102.27 0 .27.55-1.082.55-4.328.552-18.934 1.653-19.746 1.653 0 0-.27-.826-.27-1.101zm30.567 30.025c3.517-.276 5.951 2.203 6.492 5.233.541 2.755-1.623 5.51-4.328 5.785-2.705.55-4.869-.826-5.95-3.305-1.353-2.755-.271-7.162 3.786-7.713z" fill="#000"/><path d="M76.01 93.689c.54 2.479 3.246 3.856 5.41 3.305 2.975-.826 3.787-3.03 3.245-5.784-.54-2.48-3.516-4.132-5.41-3.581-2.975.55-3.786 3.58-3.245 6.06z" fill="#98BDDF"/><path d="M68.164 87.63c3.246.275 5.139 3.305 4.598 6.61-.541 3.03-2.975 4.683-5.68 4.132-2.705-.275-4.328-2.755-4.599-5.51-.27-2.754 2.164-5.784 5.68-5.233z" fill="#000"/><path d="M67.893 97.546c2.164 0 4.058-1.929 4.328-4.132 0-2.48-1.352-4.408-3.516-4.959-2.164-.55-5.68 1.378-5.14 4.959.271 2.754 1.894 4.132 4.328 4.132z" fill="#98BDDF"/><path d="M79.254 87.629c1.894-.551 4.869 1.102 5.41 3.58 0 .552.27 1.103.27 1.378-.27-1.377-1.081-2.755-2.163-3.305-2.164-1.653-4.599-.827-5.951 1.377-.541 1.102-.812 2.204-.541 3.305v-.275c-.812-2.48 0-5.51 2.975-6.06zm-10.819.827c2.164.55 3.517 2.203 3.517 4.407-.541-2.48-4.058-4.683-6.492-3.03-1.623 1.102-2.705 3.03-1.082 6.335-.541-.55-1.082-1.652-1.082-2.754-.54-3.581 2.975-5.51 5.14-4.959z" fill="#C0D9EC"/><path d="M80.607 90.108c1.623 0 2.976 1.928 1.894 3.58-.812 1.378-2.976 1.378-3.787-.275-.812-1.652 0-3.305 1.893-3.305z" fill="#000"/><path d="M79.254 92.863c.541 1.101 1.893 1.101 2.705.55.541-.55.541-1.652 0-2.479-.541-.55-1.353-.826-1.893-.55-.812.55-1.623 1.652-.812 2.479z" fill="#E4040C"/><path d="M67.623 90.66c1.622 0 2.975 1.927 1.893 3.58-1.082 1.377-2.976 1.377-3.787-.275-.811-1.653.27-3.306 1.894-3.306z" fill="#000"/><path d="M66.271 93.689c.54 1.102 1.893 1.102 2.705.55.811-.55.54-1.927 0-2.478-.541-.551-1.353-.827-2.164-.551-.541.275-1.082 1.377-.541 2.479z" fill="#E4040C"/><path d="M20.289 85.977c.811.55 1.893.55 2.434-.276 0-.275.27-.275.27-.55.542.826.542 1.927-.54 2.478-1.353.276-2.435-.55-2.164-1.653-.27-.275-.27-.275 0 0 0-.275 0-.275 0 0zm49.769-69.692v1.378c-.27 0-.811.275-1.082.275v-.826c.27 0 .541-.826.27-.826-.81 0-1.622-.551-1.893-1.378a1.785 1.785 0 010-1.653c.27.551.541.827.812 1.378.811.55 2.164.275 2.975-.551.27-.276.27-.551.541-1.102.541.826.27 1.928 0 2.48-.27.825-.811.825-1.623.825zm-.812 15.151H70.6v2.754h-1.353v-2.754z" fill="#AF040C"/><path d="M58.427 16.285c.811 4.408 4.598 7.438 9.467 7.713 3.787.276 12.172-.275 13.524-5.233.27 0 .27-.276.541-.276-.54 1.928-1.623 3.581-3.516 4.407-2.434 1.378-5.14 1.653-7.844 1.653v1.378h-1.353v-1.378c-3.246 0-5.68-.55-8.114-2.479-2.435-1.928-2.976-3.58-3.517-6.06 0 .275.541.275.812.275zm66.54 48.756c.271-.55.541-.826 1.082-1.101-.811.826-.811 1.928-.27 3.03.811 1.652 2.975 2.754 4.598 1.377.541-.276.812-.827 1.082-1.377 0 .55 0 1.101-.27 1.652-.812 1.653-2.435 2.204-4.328 1.377-2.164-.55-2.976-2.754-1.894-4.958zm-3.515 46.277c-.541.551-1.623 1.102-2.705 1.102-2.705-1.653-4.058-4.132-4.058-5.233h.271c1.623 1.928 3.787 3.58 6.492 4.131zm-8.116-3.856c.27 0 .27 0 0 0 .811 2.479 2.705 4.132 4.057 5.234v.275c-1.893-.826-3.516-3.03-4.057-5.509zm3.517 6.886c-.811.551-2.164.551-3.246-.826a5.46 5.46 0 01-1.082-4.407c.812 2.203 2.164 4.132 4.328 5.233zm17.852 1.653c-.271.827-.812 1.653-1.082 1.929-.271-.276-1.082-.551-1.623-.551.27-.551.541-1.378.811-1.929.812 0 1.353.276 1.894.551zm5.409 12.671l-2.434-.826c.27-.276.27-1.377.27-1.653.812 0 1.623.276 2.435.276.27.55 0 1.377-.271 2.203zm-1.621-9.916c.541.826.811 1.377 1.082 2.204l-2.164.55c-.27-.55-.541-1.101-1.352-1.652.811-.276 1.623-.551 2.434-1.102zm-3.517 14.874c-.271-.826-.541-1.377-.812-2.203.541-.276 1.353-.827 1.893-1.102.271.551.541 1.102.812 1.928-.541.276-1.082.827-1.893 1.377zm-3.788-10.742c0 .275.271.826.541 1.102.541.55 1.894 1.101 2.435.275 0 .551 0 .826-.271 1.377-1.352 1.378-2.975.551-3.516-.826 0-.826.27-1.653.811-1.928zm-107.113 6.61c.541.276 1.082.276 1.623-.275.27-.276.541-.826.541-1.102.541.826.27 1.928-.54 2.479-1.083.551-2.165 0-2.435-1.102v-.826l.811.826zM8.657 110.492c.812 0 1.082-.551 1.353-1.102.27.275.54.551.27 1.377-.27 1.102-1.623 1.377-2.164.551-.27-.275-.27-.551-.27-.826.27-.276.54 0 .811 0zm82.77 48.756s.27 0 0 0c1.893 0 3.246-1.928 3.246-3.581v-.275c1.081 1.101 1.081 3.03.54 3.856-1.081 1.377-2.704 1.653-4.327.826-.27-.275-.812-.551-.812-1.101.541 0 1.082.275 1.353.275zm2.975 19.833c1.623.275 2.976-.827 3.246-2.479 0-.551 0-1.102-.27-1.653a3.62 3.62 0 011.352 3.581c-.27 1.653-2.434 2.479-4.328 2.204-1.623-.551-2.164-2.204-2.164-3.581.27 1.101 1.082 1.928 2.164 1.928zm-27.051-18.18c.812-.827 1.082-1.653.812-2.755.811.827 1.082 1.928.811 3.306-.54 1.652-2.434 2.203-4.057 1.653-.812-.276-1.352-1.102-1.352-1.929 1.352.827 2.975.827 3.786-.275zm-1.621 18.18c0 .551 0 1.102.54 1.653.812.826 2.706.826 3.247-.276.27-.551.27-1.102.27-1.377.541.551.812 1.377.541 2.203-.27 1.378-2.164 2.755-3.787 1.653-1.352-.826-1.623-2.754-.811-3.856zM79.524 90.66c-.27.55 0 1.101.27 1.377.812.826 1.624.55 2.165-.276 0 .55 0 1.102-.541 1.377-.541.551-1.894.551-2.705-.55 0-.551.27-1.378.811-1.929zm-12.982.825c0 .551 0 1.102.54 1.377.542.551 1.083.827 1.894.276.27 0 .27-.276.541-.551 0 .55-.27.826-.54 1.377-.812.551-1.894.551-2.706-.55-.54-.827-.27-1.653.27-1.929z" fill="#AF040C"/></g><defs><clipPath id="clip0"><path fill="#fff" d="M0 0h147v214H0z"/></clipPath></defs></svg>