<svg width="148" height="194" fill="none" xmlns="http://www.w3.org/2000/svg"><g clip-path="url(#clip0)"><path d="M2.8 175.265c2.612 2.286 6.719 4.381 9.892 5.906 4.666 2.286 9.518 4.762 14.37 6.858 4.107 1.714 8.026 3.619 12.32 4.762 2.425.762 4.665 1.143 7.651 1.143 2.427 0 8.4 0 12.505-.19 3.36-.191 6.906-.191 10.266-.762 4.852-.762 8.025-3.239 8.772-7.811 6.345 3.239 12.691 6.096 19.97 6.287 3.173 0 13.438-.572 17.918-2.096 4.479-1.524 6.159-4.953 6.159-8.382.186-3.81-1.493-7.239-3.92-10.478-2.986-4-6.346-8.001-9.705-11.811-2.053-2.477-4.479-5.334-6.532-6.668-1.68-1.143-4.107-1.905-6.16-2.095v-38.673c2.8 1.524 9.332 4.001 12.692 4.953 1.12 3.429 7.279 3.429 7.279-2.096 2.053-2.095 8.772-11.049 10.079-13.144.186 0 .559.19.746.19.747 2.667 4.293 11.049 4.853 11.24.373.19 5.039 1.143 5.599.571 1.866-1.714 8.212-9.525 8.399-11.049 0-.571-5.226-3.239-5.599-3.048-.374.19-3.173 5.906-5.04 8.573-.933-2.096-3.173-6.858-3.919-8.192.933-1.143 2.053-4.953-.933-6.668 1.119-2.095 4.106-8.382 5.412-11.24 2.427 2.858 6.533 9.145 6.906 9.526.373.38 4.666-1.334 5.412-1.715 0-3.429-9.705-12.002-10.451-12.383-.56 0-4.666.19-5.04.572-.373.38-4.479 9.335-6.159 14.097-3.173.381-3.733 4.953-2.986 6.287-1.68 2.477-8.212 10.668-9.705 12.764-1.307-.572-2.8 0-3.733 1.143-2.8-1.143-10.639-4.572-13.252-5.715 0-3.239-.373-9.526-.373-10.478-1.12-1.143-26.13-7.24-28.556-7.62V83.25h4.853c5.599-.191 12.131 0 17.73-.572.187 0 .187-12.383.187-14.288 4.853.19 8.399-2.667 8.212-7.81-.186-4.382-2.8-8.002-8.212-8.002 0-1.524.187-5.144 0-5.525-.186-.38-16.61-11.049-20.157-12.764-.373-.19-3.36-.19-4.48-.19 0-1.334 0-12.383-.186-13.716.747-.381 1.493-.953 1.866-1.905 1.68 0 7.28.19 8.772 0 .56 1.333 2.427 2.476 4.107 2.286 1.866-.19 3.36-1.524 3.36-3.62.186-3.239-2.24-4.763-4.48-4.382-1.493.19-2.613 1.334-2.987 2.477-1.68 0-5.972-.19-8.585 0-.373-.953-1.12-1.524-1.866-2.096 0-2.286.186-2.667 0-5.905 2.8-1.334 2.24-5.525 0-6.859-2.613-1.143-5.786-.38-6.72 2.477-.746 2.096.374 4.382 2.427 5.144-.187 1.524-.187 3.429 0 5.715-.933.571-1.493 1.143-1.867 1.905h-8.958c-.747-1.143-1.68-1.905-2.986-2.096-2.8-.571-5.6 1.143-5.413 4.572.187 2.287 1.68 4.192 4.293 4.382 2.24.19 4.292-1.143 4.666-3.238 1.306.19 7.279.19 8.772 0 .373.38.746.762 1.306 1.143-.186 1.905-.186 13.145-.186 14.288-4.107 0-16.985-.191-18.664.38-.187 0-.374 8.383-.374 9.907-2.986-.19-5.785-.762-8.025.19-3.36 1.524-4.293 4.572-4.293 7.62 0 3.43 1.12 6.097 4.106 8.002 1.867 1.333 4.853 2.286 7.28 2.667v5.334c.186.381 12.877 13.335 13.25 13.526.56.19 3.733.572 5.413.762v3.43c-13.251-.572-26.13-.953-30.236-.191 0 .19-.56 13.907-.373 17.717-1.493 0-13.251 0-16.798.19-1.68-1.143-4.292-1.333-5.599.191-1.12 1.333-1.493 3.81-.186 5.143.56.572 1.306.953 2.053 1.334.186 4.191.933 14.669 1.306 18.479-.933 1.524-1.306 4.763.187 6.287-1.12 2.476-2.427 9.144-2.8 11.239 1.867 1.906 8.399 4.192 13.998 3.239 2.053-1.714 2.613-5.906 2.24-5.906-3.36.191-8.212.572-11.385-.571.746-2.477 1.306-4.763 2.053-7.62 1.68-.381 2.426-2.667 2.24-3.81 2.053-.953 7.279-2.477 9.332-3.049.186.191 1.68 2.477 2.24 3.43-.187 3.429-.187 10.858-.187 12.382.746.572 2.053 1.334 2.8 1.715-4.294.762-7.84 2.858-11.573 5.144-3.546 2.095-7.652 4.381-11.011 6.667-2.986 2.096-6.906 4.953-8.026 8.573-.933 3.048-.186 5.715 2.427 8.192zm11.571-46.674c-.186-4.001-1.306-15.622-1.68-17.908.374-.19.56-.571.747-.952 1.866 0 13.998.19 14.931.19-.186 2.858 0 12.002 0 15.812-1.12-1.143-2.426-2.667-3.546-3.238-.373 0-3.173 1.905-5.226 4-1.12 1.334-2.426 2.667-3.546 4.001 0-.762-1.306-1.715-1.68-1.905z" fill="#000"/><path d="M50.206 16.384c-.373-1.524-2.24-2.096-3.546-1.905-2.053.19-2.613 1.714-2.613 3.238s.933 3.239 3.733 3.048c2.613-.38 2.8-2.857 2.426-4.381z" fill="#D4D4D1"/><path d="M59.35 16.193h-8.21c.186.381.373 1.334.373 1.905 1.306-.19 6.532 0 8.026 0-.187-.38-.187-1.333-.187-1.905z" fill="#8F8F87"/><path d="M79.696 19.813c1.307 0 2.426-.953 2.613-2.096.373-2.286-1.12-3.429-2.613-3.429-1.306 0-2.613.762-2.8 2.477 0 1.714.934 3.048 2.8 3.048z" fill="#D4D4D1"/><path d="M75.777 17.908v-1.334c-1.12 0-5.413-.19-8.399 0 0 .381 0 1.143-.187 1.524 1.12-.19 7.093 0 8.586-.19z" fill="#8F8F87"/><path d="M90.147 67.44c1.306 0 2.8-.382 4.106-.953 2.426-1.334 2.986-3.239 2.986-5.715 0-4.192-2.986-7.24-7.093-7.05V67.44z" fill="#FA6900"/><path d="M142.967 89.728c.933-.19 2.239-.952 3.359-1.143-1.866-4.19-8.585-10.668-9.145-10.858-.56-.191-2.427.19-3.173.571 3.359 3.048 7.465 8.573 8.959 11.43zm-8.213-8.953c-.56-.762-1.307-1.525-1.867-2.287-1.119 2.858-3.732 8.192-5.785 12.955.746-.19 1.866.19 2.426.571 1.12-2.286 3.919-8.572 5.226-11.24zm2.241 31.242c.373-.19 5.972-6.858 7.652-9.525-.933-.952-3.173-1.905-3.92-2.476-.746 1.905-4.666 8.572-7.465 11.62 1.12.381 3.359.572 3.733.381zm-4.481-.952c.747-.953 1.307-1.715 2.053-2.667-.746-2.096-2.986-6.858-4.106-8.382-.56.571-1.306.762-2.053.952.56 2.477 2.8 7.811 4.106 10.097z" fill="#D4D4D1"/><path d="M126.729 99.444c1.866.762 3.919-.952 4.106-2.476.373-2.096-.56-4.001-2.986-4.382-2.24-.381-3.92 1.524-3.733 3.81 0 1.334 1.306 2.667 2.613 3.048z" fill="#FFC700"/><path d="M115.903 112.78c2.427-3.049 7.466-9.716 9.519-12.383-.747-.572-1.307-.762-1.68-1.715-1.493 2.286-7.279 9.906-9.332 12.193.56.571 1.12 1.143 1.493 1.905z" fill="#8F8F87"/><path d="M110.865 116.78c.933.762 2.427.762 3.173.191 1.68-1.334 1.493-3.81-.186-4.763-1.68-.953-2.987-.381-3.547.572-.746.952-.56 3.048.56 4z" fill="#FFC700"/><path d="M108.625 115.066c-.187-.953 0-1.715.373-2.477-2.986-1.143-10.078-4.001-12.691-5.334v2.667c2.426 1.143 9.332 4.191 12.318 5.144z" fill="#8F8F87"/><path d="M31.17 135.45c.933-.381 1.866-1.334 2.24-2.096-2.427-4-7.093-8.954-8.213-9.525-.373 0-1.306.571-1.306.762 0 .19 6.532 9.525 7.279 10.859zm-5.786-7.049c-.56-.762-1.68-2.477-2.24-3.239-1.493.953-4.293 4.001-5.6 5.716 2.427-.953 5.973-1.906 7.84-2.477z" fill="#D4D4D1"/><path d="M12.879 129.353c-2.427.191-2.8 3.049-2.427 4.192.56 1.905 2.613 2.286 3.92 1.524 2.613-1.905.933-5.906-1.493-5.716z" fill="#FFC700"/><path d="M9.52 146.309c2.426 2.095 9.145 2.857 11.945 2.667.746-.953 1.493-2.477 1.493-3.429-2.8.19-8.4.19-11.199-.953-.56.381-2.053 1.334-2.24 1.715z" fill="#D4D4D1"/><path d="M135.688 77.727c.746-.19 1.306-.19 1.679 0 .56.19 7.279 6.667 9.146 10.858-.56.191-.934.382-1.493.572-1.867-4.572-5.413-8.382-9.332-11.43zm4.292 23.813c.374-.572.56-1.143.747-1.524.933.381 2.986 1.524 3.919 2.476a5.749 5.749 0 01-.933 1.334c-1.306-.762-2.426-1.524-3.733-2.286zM32.289 134.497c-1.867-3.429-3.733-6.668-5.973-9.906 1.867 1.714 5.04 5.334 6.906 8.573-.187.381-.373.952-.933 1.333zm-10.826 11.05h1.493c-.186.952-.747 2.667-1.493 3.429h-1.68c.56-1.143 1.307-2.286 1.68-3.429z" fill="#EAEAE9"/><path d="M9.145 144.975c.373-.381 1.68-1.143 2.24-1.524.56-1.905 1.306-4.382 1.866-7.049-.747.191-1.493 0-2.24-.381-.56 1.905-1.68 7.62-1.866 8.954z" fill="#D4D4D1"/><path d="M130.836 83.251c.933-1.905 1.68-3.62 2.24-4.763.56.763 1.119 1.525 1.866 2.287-.373.952-1.12 2.286-1.68 3.81a32.885 32.885 0 00-2.426-1.334zm2.053 21.527c.747 1.334 1.306 2.858 1.68 3.62-.56.952-1.307 1.714-2.053 2.667-.374-.762-1.12-2.096-1.68-3.429.747-.953 1.306-1.905 2.053-2.858zM19.783 128.21c1.12-1.333 2.426-2.476 3.36-3.048.56.762 1.68 2.477 2.24 3.239-.56.19-1.307.381-2.24.762-1.12-.381-2.24-.762-3.36-.953zm-8.959 8.764c.374 1.333.934 2.857 1.307 4.191-.187.762-.373 1.524-.747 2.286-.56.381-1.866 1.143-2.24 1.524.187-1.143.934-5.715 1.68-8.001z" fill="#B1B1AB"/><path d="M11.012 128.592c.747-.381 1.493-.381 2.427-.191-.187-5.715-.934-12.192-1.493-17.336-.747.191-1.493.381-2.053.381.186 2.858.933 13.145 1.12 17.146z" fill="#8F8F87"/><path d="M11.945 105.159c-1.12-1.143-2.427-.952-3.546-.571-1.12.571-1.494 2.095-1.12 3.238.373 1.905 2.8 2.096 4.292 1.715 2.053-.572 1.494-3.239.374-4.382z" fill="#FFC700"/><path d="M130.088 95.444c-1.12-1.334-3.173-2.096-4.666-1.144-.747.572-1.12 1.334-1.307 2.096 0-2.096 1.493-4 3.733-3.62 2.24.382 3.36 2.287 2.986 4.192-.186-.572-.373-1.144-.746-1.525zm-18.29 17.526c-1.12.381-1.867 1.715-1.68 3.048-.56-.952-.56-2.476.187-3.429.559-.762 1.866-1.524 3.546-.571a2.853 2.853 0 011.306 2.857c-.373-1.333-1.68-2.476-3.359-1.905zm-98.919 16.384c1.493-.191 2.8 1.524 2.8 3.048-.374-.572-1.12-1.143-1.867-1.334-1.306-.381-2.8.381-3.173 1.715 0 .381-.187.762-.187.952v-.19c-.373-1.334 0-4.001 2.427-4.191zm-4.481-24.576c1.12-.571 2.24-.762 3.547.572.56.381.933 1.143.933 1.905-.56-1.143-1.493-1.905-2.8-1.905-1.493 0-2.613 1.143-2.8 2.477v.381c-.373-1.524 0-2.858 1.12-3.43z" fill="#FFE073"/><path d="M13.252 105.159c.933 1.144 1.12 2.477.933 3.62h24.823c.56-1.143.56-2.857-.186-3.62-5.973-.19-20.717.191-25.57 0z" fill="#8F8F87"/><path d="M39.568 109.731c-.746.191-2.24.191-2.986.191.56 1.715 1.866 2.858 4.48 2.477 2.799-.381 3.172-4.192 2.986-6.287-.187-2.477-1.867-5.144-3.92-6.668-2.986-2.095-4.48 1.905-4.853 4.382 1.307 0 2.613 0 4.107.19.933.953 1.68 4.191.186 5.715z" fill="#FA6900"/><path d="M30.236 104.016h4.48c0-2.476 1.12-6.096 4.105-6.096 3.733.19 5.786 4.382 6.72 7.43.746 3.238 0 7.239-3.36 8.382-2.613.953-6.16-.572-6.906-3.81h-5.599c.187 3.238.187 14.669.187 16.955 1.68 1.905 3.92 4.382 4.852 6.668-.56 1.333-2.24 3.048-3.733 3.429-.373-.572-1.306-1.905-1.493-2.477-.186 2.096-.186 7.049-.186 9.335 2.986 1.714 9.892 5.525 21.65 9.144 0-9.716-.187-50.484-.187-56.2-5.412-2.476-16.424-6.857-20.157-8.762-.186 4.381-.373 12.954-.373 16.002z" fill="#DBA300"/><path d="M36.208 45.721c-4.666.382-5.412 5.335-4.852 8.954 1.306 7.43 13.81 7.811 14.184 7.811.187 0 2.053-3.239 2.427-7.24.373-4-.187-5.905-1.494-8.572 0-.19-6.719-1.334-10.265-.953z" fill="#FA6900"/><path d="M43.115 44.769c1.493.19 3.732.571 4.106.762 3.546 4.763 2.24 15.05-.933 18.098-.374.19-2.613-.19-3.733-.19v4.953c2.24 2.667 9.332 9.715 11.571 11.62 0-4.19 0-29.909.187-33.72-2.986-2.666-10.639-9.524-11.012-9.715 0 2.096-.186 6.096-.186 8.192z" fill="#DBA300"/><path d="M33.036 109.922h2.053c.747 3.238 4.293 4.763 6.906 3.81.187 0 .373-.191.56-.191-2.24 2.287-5.6 3.049-7.652-.381-.187-.381-.56-.381-.934-.19-1.306.952-2.8 1.715-4.106 2.477v-3.811c.934-.571 2.053-1.143 3.173-1.714zM46.288 63.82c1.68-1.525 2.8-5.335 2.986-9.145.933 5.716-.747 11.812-3.733 16.955-1.306-1.333-2.24-2.476-2.986-3.238v-4.953c.933.19 3.36.571 3.733.38z" fill="#B88A00"/><path d="M65.138 1.715c-1.68-1.524-3.92-.572-4.48 1.524-.746 2.286 1.494 4.762 4.293 3.429 1.867-1.143 1.307-4 .187-4.953z" fill="#D4D4D1"/><path d="M64.951 8.001a4.46 4.46 0 01-2.24 0c0 2.286-.186 2.667 0 5.334.56-.19 1.307-.19 2.054 0-.187-2.286-.187-3.81.186-5.334z" fill="#8F8F87"/><path d="M66.256 17.336c.187-1.333-.746-2.857-2.8-3.048-1.866-.19-2.799 1.524-2.612 2.858.186 1.524 1.12 2.286 2.8 2.286 1.306.19 2.239-.762 2.612-2.096z" fill="#D4D4D1"/><path d="M46.474 14.478c1.493-.19 3.173.572 3.547 1.906.373.761.373 1.905 0 2.667 0-.572 0-.953-.187-1.524-.56-1.334-2.24-1.906-3.546-1.334-1.493.572-2.24 2.286-1.493 3.62-.56-.572-.934-1.524-.934-2.287 0-1.333.56-2.857 2.613-3.048zm33.594.953c-1.306 0-2.426.953-2.613 2.096v.952c-.186-.571-.373-1.143-.373-1.714.187-1.715 1.306-2.668 2.8-2.477 1.493.19 2.986 1.333 2.613 3.43-.187-1.334-.934-2.287-2.427-2.287zM64.578 2.667c-1.306-.762-3.173-.381-3.733.953-.186.38-.373.762-.373 1.143a2.696 2.696 0 010-1.715c.747-2.095 2.986-2.858 4.48-1.524.933.762 1.493 2.477.933 3.62 0-.953-.374-1.905-1.307-2.477zm-1.12 11.43c2.053.19 2.986 1.715 2.8 3.048 0 .381-.187.953-.56 1.143.186-.38.186-.952.186-1.333-.186-1.143-.933-1.905-2.053-2.096-1.12 0-2.24.762-2.613 1.906-.187.38-.187.761-.187 1.142-.186-.19-.186-.571-.373-.952 0-1.143.933-2.858 2.8-2.858z" fill="#EAEAE9"/><path d="M64.577 20.956c-.56.19-1.867 0-2.24-.19.187 1.333-.187 15.43 0 17.907.747.38 1.493.38 2.24 0V20.956z" fill="#8F8F87"/><path d="M69.803 35.434c-.374-.19-3.733-.19-4.293-.19 0 1.143 0 2.286-.187 3.429-.933 1.333-3.173 1.143-4.106.19-.186-.19-.186-3.238-.186-3.81-4.293 0-15.305 0-17.545.381 1.12 1.143 10.826 9.716 11.012 9.716.187.19 15.491.381 19.224.572 2.8 0 11.945.38 13.252.38-1.867-.57-14.745-9.715-17.171-10.668z" fill="#FFE57D"/><path d="M85.668 45.721c.747.382 1.12.763 1.493.953-1.306-.19-10.265-.381-13.251-.381-3.733-.19-19.037-.381-19.224-.572 0 0-.373-.38-.933-.761-.187-.382 31.729.571 31.915.761z" fill="#FFF3C1"/><path d="M61.592 46.674c.186.953.56 2.477.933 3.43 2.426-.572 4.48-1.906 6.532-3.43h-7.465zm17.918.762c.933.381 6.719 3.048 6.905 3.048.187 0 .187-2.667.187-2.858-1.866-.19-6.532-.19-7.092-.19z" fill="#D4D4D1"/><path d="M81.375 81.727c.56-.38.933-.571 1.493-1.333 0-2.096.187-7.811 0-9.716-1.307.381-2.8.762-4.106.953v10.287c.933 0 1.68 0 2.613-.19zm-3.173.191c0-1.715 0-8.383.187-10.097-1.493.19-4.106.38-5.04.19v10.097c1.494 0 2.987-.19 4.853-.19z" fill="#fff"/><path d="M82.868 69.725c1.68-.952 3.173-1.905 4.106-3.048 1.493 3.81 0 12.574-3.733 15.24h5.786v-33.91h-1.68c0 .382 0 3.62-.373 3.81-.373.191-8.399-3.619-9.705-4.38-1.493 0-6.346-.191-7.28-.382-2.052 1.905-5.412 3.81-8.211 4.382-.374 0-1.307-3.62-1.307-4.382-1.866 0-5.226-.19-5.226 0s-.186 31.243-.186 34.482c2.8.19 5.599.38 8.398.38-3.919-3.619-3.36-14.097-2.24-18.097.934 1.143 2.24 2.667 4.667 4.19 2.053 1.144 4.48 2.096 6.905 2.477 2.987.762 8.4.19 10.079-.762z" fill="#FFC700"/><path d="M83.615 79.822c2.987-3.62 3.173-10.287 2.987-11.43-.747.952-1.68 1.714-2.987 2.095 0 1.715.187 8.001 0 9.335z" fill="#fff"/><path d="M66.258 83.442c-1.68 0-3.546-.19-5.04-.19v8.763c1.494.571 3.734.38 5.227.19-.187-3.048-.187-6.096-.187-8.763z" fill="#8F8F87"/><path d="M63.645 68.201a10.81 10.81 0 01-2.053-2.095c-.747 8.001.56 12.764 2.053 14.288 0-2.858.186-10.478 0-12.193zm8.957 13.907V71.821c-1.306-.19-2.613-.572-3.92-.953 0 3.048-.186 8.954-.186 11.24h4.106zm-4.664 0v-11.43c-1.307-.572-2.426-1.143-3.546-1.905 0 1.905-.187 9.716-.187 12.192.56.572 1.12.953 1.68 1.334.746-.19 1.306-.19 2.053-.19z" fill="#fff"/><path d="M67.377 88.966v3.049c1.12 0 1.493.761.56.952-1.12.381-3.173.381-4.852.381-1.493 0-3.173-.19-4.107-.762-.56-.381 0-.953.934-.953v-4c-3.92-.19-25.01-.953-28.93-.381 2.613 1.143 6.346 2.667 9.146 4 3.733 1.715 7.652 3.24 11.385 4.763 3.92-.38 36.955 0 43.114-.19-3.546-1.334-23.33-6.097-27.25-6.859z" fill="#FFE57D"/><path d="M92.386 95.063c1.12.38 1.867.571 2.427.761-6.346.191-39.381-.19-43.114.191-.373-.19-.56-.19-.933-.381 5.785-.381 37.514-.381 41.62-.572z" fill="#FFF3C1"/><path d="M61.59 39.054c-2.426-1.334-4.852-2.667-7.465-3.81h7.279c-.187.571-.187 3.62.187 3.81-.187 0-.187 0 0 0zm-1.68 52.579c-.746 0-1.12.381-1.12.572-9.518 0-18.663-2.667-27.622-5.144 4.106-.38 25.01.381 28.93.381-.187 1.524-.187 2.858-.187 4.191zm7.654 0v-2.667c1.12.19 3.733.762 7.093 1.524a49.687 49.687 0 01-7.093 1.143z" fill="#E8C954"/><path d="M51.887 96.968c.373 12.573.186 45.15.56 56.008 6.905-.571 35.088-2.857 42.554-3.238 0-7.43.186-48.77 0-52.96-7.84.38-35.089 0-43.114.19z" fill="#FFC700"/><path d="M53.007 96.968c.186 0 .746 56.008.56 56.008h-1.12c-.187-10.859-.187-43.435-.56-56.008h1.12z" fill="#FFE270"/><path d="M94.44 187.458c2.24-.381 4.106-2.096 4.853-4.572.56-2.477.373-4.763-.747-7.049-1.12-2.477-4.106-4.001-6.906-3.81-4.106.19-6.159 3.048-6.719 6.096-.373 2.095-.187 4.572 2.053 6.477 2.24 2.096 5.226 3.239 7.466 2.858z" fill="#D4D4D1"/><path d="M99.293 174.885c1.68 2.667 2.054 5.905.934 8.763-.934 2.476-1.867 3.619-3.173 4.381 5.226-1.143 6.346-5.334 6.159-8.953-.373-4.191-3.733-8.383-6.532-11.621-1.867-2.286-3.733-4.572-5.786-6.668 1.306 4.001 0 9.144-3.36 11.621 3.733-2.096 9.145-1.715 11.758 2.477z" fill="#B0B0AA"/><path d="M89.961 166.502c.747-2.476.373-5.905-1.306-7.81-1.307-1.524-2.24-2.668-4.48-3.049-3.92-.762-8.772.953-9.892 5.525-1.493 5.334 1.68 10.859 7.466 11.621 4.48.572 7.279-2.858 8.212-6.287z" fill="#D4D4D1"/><path d="M83.242 154.691c-1.68-.572-3.173-1.334-5.04-1.524-.56.952-1.306 2.286-1.866 3.238 2.053-1.333 4.666-1.905 6.906-1.714z" fill="#B0B0AA"/><path d="M77.082 152.595c-.746-.19-15.118 1.334-20.717 1.905 4.48 2.858 9.519 8.002 13.438 12.383 2.053-4.762 4.48-9.906 7.28-14.288z" fill="#DBA300"/><path d="M78.948 183.648c2.24 1.143 5.04 2.857 7.652 3.81 3.733 1.524 6.16 2.096 10.079 2.477 6.346.571 16.984-1.334 19.784-2.287 2.613-.952 3.919-2.476 4.479-4.381.56-1.905.747-3.81.187-5.906-.933-4-4.106-7.43-6.532-10.478l-5.6-6.858c-2.239-2.667-5.226-5.906-6.905-7.049-1.68-1.143-5.04-2.286-8.586-1.905-3.92.191-9.332.762-13.438 1.143 2.613.381 5.6 1.715 8.212 3.81 4.48 3.62 7.653 8.383 11.199 12.764 2.986 3.81 5.785 8.002 5.039 12.955-.373 2.857-2.613 6.667-6.906 6.858-6.719.381-11.385-2.667-18.664-6.477-.186.571 0 1.143 0 1.524z" fill="#8F8F87"/><path d="M84.921 184.219c-2.426-3.619-.933-8.572 2.053-11.239-1.493.952-3.92 1.333-5.786.952-5.786-.952-8.585-5.715-8.025-10.859l-2.427 4.953c3.36 3.811 7.093 7.811 8.026 12.955 2.053 1.333 3.733 2.095 6.159 3.238zm-32.101 6.478c2.799-1.334 3.732-4.573 3.545-7.24-.186-5.334-4.666-9.715-8.212-13.335-1.68-1.715-3.173-3.62-5.04-5.715.747 3.238 0 6.858-2.052 9.525-.187.191-.373.381-.373.572 1.866-.572 4.106-.762 6.345 0 4.666 1.333 8.212 6.096 7.652 10.858-.373 2.667-2.053 5.144-4.292 6.478.746-.572 1.68-.762 2.426-1.143zm-17.918-10.859c.56-1.334 1.306-2.477 2.24-3.429-2.987.952-6.72.19-9.333-1.524a10.106 10.106 0 01-2.8-2.858c-.372 3.239-2.425 6.096-6.718 7.049-.56.19-.933.19-1.307.19l7.84 4.001c3.732 1.905 7.651 3.429 11.571 4.953-2.053-2.286-2.8-5.334-1.493-8.382z" fill="#B0B0AA"/><path d="M18.291 177.933c4.853-.572 6.346-6.097 5.413-10.097-.747-4.001-3.173-5.334-6.16-5.906-3.732-.762-7.278 1.524-8.212 4.953-1.493 5.525 2.987 11.812 8.96 11.05z" fill="#D4D4D1"/><path d="M7.653 168.598c0-4.572 3.36-7.811 7.839-8.192 2.613-.19 5.972.953 7.839 3.239.186-.953.373-2.096.746-3.048 1.493-4.001 5.6-6.287 9.706-5.335-2.053-1.905-4.48-2.667-7.28-2.286-3.732.381-10.451 5.144-14.557 8.002-4.106 2.857-7.653 5.715-7.093 9.334.374 2.858 3.547 4.763 5.413 5.716-1.68-2.287-2.613-4.954-2.613-7.43z" fill="#B0B0AA"/><path d="M100.225 183.648c.934-2.858.56-6.096-.933-8.763-.746-1.334-1.68-2.096-2.8-2.858 0-3.81-2.426-7.239-5.039-10.097 0-.381-.186-.952-.373-1.333 2.053 2.095 3.92 4.381 5.786 6.667 2.8 3.239 6.346 7.621 6.532 11.621.187 3.62-.746 7.811-6.159 8.954 1.12-.572 2.053-1.715 2.986-4.191zm-22.77-28.957c.373-.572.56-1.143.933-1.524 1.867.19 3.36.952 5.04 1.524-1.68-.191-3.36 0-4.853.571l-1.12-.571zm6.16 25.337c0 1.524.373 3.048 1.307 4.191-2.24-1.143-4.106-1.905-6.16-3.238-.186-1.143-.56-2.477-1.12-3.429 1.68 1.143 3.733 1.905 5.973 2.476zm-28.929 4.953c.56-4.191-2.053-8.192-5.786-10.097-1.306-2.095-2.8-3.81-3.92-5.334-.56-.571-.933-1.143-1.493-1.714.187-1.143 0-2.477-.186-3.62 1.68 1.905 3.36 4.001 5.04 5.715 3.545 3.62 8.025 8.001 8.211 13.336.187 2.857-.746 5.905-3.546 7.239-.746.381-1.493.762-2.426.952 2.053-1.143 3.92-3.81 4.106-6.477zm-33.969-6.667c2.8 1.905 5.786 3.238 8.772 4.572 1.493.571 3.173 1.143 4.853 1.714.373 1.334.933 2.477 2.053 3.43-3.92-1.525-7.839-3.049-11.572-4.954l-7.839-4c.374 0 .934 0 1.307-.191 1.12 0 1.866-.19 2.426-.571zm-8.958-17.527c4.106-2.857 10.825-7.62 14.558-8.001 2.8-.191 5.226.571 7.279 2.286-2.8-.572-5.786.381-7.84 2.477-.746 0-1.679 0-2.426.19-2.053.191-4.479 1.143-6.345 2.667h-1.68c-4.48.381-7.839 3.62-7.839 8.192 0 2.476.933 5.144 2.426 7.239-1.866-.952-4.852-2.857-5.412-5.715-.187-3.429 3.36-6.477 7.279-9.335z" fill="#92928A"/><path d="M29.49 156.787c-2.24.762-3.547 2.857-4.293 4.953-1.494 4.191 0 9.144 3.546 11.811 2.986 2.286 7.465 2.477 10.452.191 2.053-1.524 2.8-4.382 2.986-6.668.186-2.286-.747-4.001-1.867-5.715-1.306-1.524-2.613-3.239-4.666-4.001-1.866-1.143-3.92-1.333-6.159-.571zm24.077 27.432c.56-4.191-3.173-8.001-6.906-9.144-3.546-.953-8.026.762-9.705 4.191-2.427 5.144 1.866 10.668 7.092 11.43 5.04 1.143 8.772-2.095 9.519-6.477z" fill="#D4D4D1"/><path d="M90.52 175.837c-.559.381-.932.953-1.119 1.524-.373 1.143-.187 2.667.747 3.429.933.762 2.24 1.143 3.36.572 1.492-.953 2.425-2.858 1.679-4.382 3.36 1.905 1.12 10.478-4.666 7.43-2.24-1.334-3.92-4.382-2.426-6.858.56-1.143 1.493-1.524 2.426-1.715zm-8.399-9.906c2.427-1.715 1.68-5.525-.746-6.477 3.546-.572 6.906 6.286 2.986 8.572-1.68.953-3.733.953-5.413-.19-1.12-.762-1.68-1.715-1.866-2.858 1.306 1.334 3.36 2.096 5.04.953zm-63.83 4.191c.56-2.477-1.12-4.763-3.36-5.144 3.547-1.905 6.906 3.62 5.6 6.668-1.12 3.048-5.04 4-6.906 1.524 2.053.952 4.106-.762 4.666-3.048zm12.317-10.097c-.56.191-1.306.572-1.68 1.143-.933 1.524-.186 4.001 1.12 4.953 2.8 2.477 6.72.381 7.093-2.667.746 1.905.187 3.81-1.307 5.525-1.493 1.715-3.36 2.096-5.599 1.143-4.48-1.714-2.986-10.668.373-10.097zm17.172 19.432c2.24 2.286 3.547 7.62-.56 8.572.934-2.095-.56-5.143-2.052-6.477-1.867-1.524-4.293-.762-5.6.953.374-4.001 4.853-6.287 8.213-3.048z" fill="#B5B5B0"/><path d="M96.68 175.075c-2.426-1.905-6.159-2.477-8.585-.762-1.68 1.333-2.8 3.429-3.173 5.715 0-.572 0-1.334.187-1.905.56-3.048 2.613-6.096 6.719-6.096 2.8-.191 5.599 1.333 6.905 3.81.56 1.143.933 2.286.933 3.619a10.801 10.801 0 00-2.986-4.381zM79.695 157.93c-2.986 1.143-4.853 3.619-5.6 6.286 0-.952 0-2.095.374-3.048 1.306-4.572 5.973-6.287 9.892-5.525 2.24.381 2.986 1.334 4.48 3.049 1.12 1.333 1.68 3.619 1.492 5.524-1.306-4.381-5.785-8.191-10.638-6.286zm-57.671 8.382c-2.426-3.429-8.025-3.81-11.198-1.334-.373.381-.933.762-1.306 1.143 1.306-3.048 4.479-4.762 7.838-4.191 2.987.572 5.413 2.096 6.16 5.906.186.762.186 1.714.186 2.667-.186-1.524-.746-3.048-1.68-4.191zm20.157 1.524c-.746-3.048-2.8-6.287-4.666-7.43-2.8-1.714-7.092-3.048-10.265-2.286.56-.572 1.306-1.143 2.24-1.334 2.24-.762 4.48-.381 6.346.381 1.866.762 3.172 2.668 4.666 4.001 1.12 1.715 2.052 3.62 1.866 5.715 0 .381-.187.762-.187.953zm-1.681 9.716c-2.425 1.524-3.732 3.81-4.292 6.286-.373-1.524-.186-3.048.56-4.381 1.68-3.62 6.16-5.144 9.705-4.191 3.173.762 6.16 3.619 6.906 7.048-2.613-4.381-8.772-7.429-12.878-4.762z" fill="#EAEAE9"/><path d="M5.226 175.647c2.8 2.286 14.745 7.811 19.224 9.906 4.48 2.096 9.519 3.81 12.505 4.953 2.986 1.143 4.293 1.334 6.346 1.334-1.493-.381-2.613-.953-4.666-1.524-4.666-1.715-8.772-3.62-13.251-5.715-4.853-2.287-9.52-4.763-14.372-7.049-2.24-1.143-6.719-3.429-7.465-6.668-.374-1.524-.374-3.619 1.68-6.287 2.052-2.476 15.677-12.954 21.463-13.144 5.413 0 8.585 2.857 12.132 6.286 4.292 4.191 8.212 9.144 12.318 13.526 3.546 3.81 7.279 8.763 6.346 14.098-.56 2.857-2.427 5.334-4.853 6.286 4.106-.19 8.399-.381 12.505-.571 5.972-.191 11.012-1.524 11.572-8.383.373-5.143-3.92-10.096-7.093-13.716-4.666-5.334-9.705-10.668-15.49-14.859-1.307 0-2.614.19-3.547 0-4.293-.953-13.811-4.763-18.664-7.24-6.532.953-12.692 5.525-18.29 8.764-3.174 1.905-8.026 4.953-10.08 7.239-1.866 2.286-2.799 3.619-2.612 6.096.56 3.239 1.68 4.572 4.292 6.668z" fill="#8F8F87"/><path d="M56.738 16.193h2.8c-.187.572 0 1.524.187 2.096h-2.613c-.187-.762-.374-1.334-.374-2.096zm-5.412 0h2.986c0 .572.187 1.334.187 1.905h-2.8c0-.38-.373-1.524-.373-1.905zm16.238.381h2.426v1.524h-2.613c0-.381.187-1.143.187-1.524zm54.498 84.585c.747-.953 1.307-1.905 1.68-2.286.374.952.933 1.143 1.68 1.714-.56.762-1.306 1.715-2.053 3.048-.747-.762-1.12-1.714-1.307-2.476zm-21.836 10.668a119.89 119.89 0 00-3.92-1.715v-2.667c.934.381 2.24.953 3.733 1.524.187.953.187 1.905.187 2.858zM9.892 112.97c0-.762-.187-1.333-.187-1.714.56 0 1.493-.191 2.053-.381 0 .571.187 1.333.187 1.905-.56.19-1.307.19-2.053.19zm27.997-7.811h.746c.747.762.747 2.477.187 3.62h-2.613c.933-1.143 1.493-2.286 1.68-3.62zm-22.77 0c.746 1.143 1.12 2.477.933 3.62h-2.24c.373-1.143 0-2.477-.933-3.62h2.24zM62.525 9.906V8.001a4.46 4.46 0 002.24 0c0 .381-.187 1.143-.187 2.096-.56 0-1.306 0-2.053-.19zm-.187 12.764v-1.905c.373.19 1.68.381 2.24.19v1.906c-.747 0-1.494 0-2.24-.19zm3.92 64.582c-1.68 0-3.36 0-5.04-.381v-3.62c1.68.19 3.547.19 5.04.19v3.81zm-5.039 1.714v-.762c1.68.381 3.36.572 5.226.381v.572c-1.867 0-3.546 0-5.226-.19zm30.982 62.105c-.933.381-1.866.953-2.8 1.524-1.12.762-1.866 1.524-2.612 2.477-2.24-1.524-4.666-2.477-6.906-2.858 3.733-.381 8.585-.762 12.318-1.143zm5.225 37.721c4.293-.191 6.532-4.001 6.905-6.859 5.786 0 11.572-.571 17.171-1.905 0 1.143-.186 2.286-.56 3.429-.559 1.905-1.866 3.43-4.479 4.382-2.613.953-13.251 2.667-19.784 2.286-3.92-.381-6.346-.952-10.078-2.476-2.613-1.143-5.413-2.668-7.653-3.811 0-.381-.186-1.143-.186-1.333 7.092 3.62 11.945 6.858 18.664 6.287zm-39.381-3.049c0-.19 0-.571.187-.762 6.345 1.334 13.251 1.524 19.037-.571-.933 5.715-5.786 7.049-11.385 7.239-4.106.191-8.399.191-12.505.572 2.24-.953 4.106-3.429 4.666-6.478zM3.173 164.597c.187.953.373 2.096.747 3.048-.374 1.334-.374 2.477 0 3.429.746 3.239 5.226 5.525 7.465 6.668 4.853 2.286 9.519 4.763 14.372 7.049 4.479 2.095 8.585 4 13.251 5.715 1.866.762 3.173 1.143 4.666 1.524-2.053 0-3.36-.381-6.346-1.334-2.986-1.143-8.025-2.857-12.505-4.953-4.666-2.095-16.424-7.62-19.224-9.906-2.613-2.096-3.732-3.429-3.92-5.906-.372-2.476.188-3.81 1.494-5.334zm44.047-7.62h-.373c-5.225-3.048-10.265-6.096-15.304-9.335.187 0 .56-.19.746-.19 4.853 2.476 14.372 6.286 18.665 7.239.746.19 2.24 0 3.546 0 1.306.952 2.426 1.905 3.733 2.857-3.547.572-7.466 0-11.012-.571z" fill="#706D69"/><path d="M38.82 181.362c.747-2.667 2.987-4.572 5.973-4.382 5.972.191 8.959 10.668 2.24 11.621-.187 0-.187-.191 0-.191 5.039-2.095 2.8-9.715-2.427-9.715-2.053 0-3.733 1.714-4.292 3.429-.747 2.286.746 4.381 2.612 5.334.374.19 0 .571-.373.571-2.986-1.143-4.666-4-3.732-6.667zm-6.905-21.337c.187 0 0 .191 0 .191-2.986-.762-3.732 2.286-3.732 4.572 0 1.905 1.12 3.81 2.986 4.763 1.493.762 3.36 0 4.666-.953 1.866-1.715 1.493-4.572.746-6.477-.186-.191.747-.191 1.493 1.905 1.12 4.191-3.36 8.763-7.838 6.668-4.666-2.096-4.666-12.574 1.68-10.669zm-18.851 12.383c.933 1.143 2.24 1.714 3.92 1.333 1.679-.19 2.799-1.905 3.172-3.429.373-1.714-.373-3.429-1.866-4.381-1.68-1.334-4.293-.572-5.226.762-.187.19-.373 0-.373-.191.373-.952.746-1.714 1.866-2.095a4.044 4.044 0 012.986 0c2.053.952 3.733 3.048 3.546 5.334-.186 2.095-1.306 4.191-3.36 4.953-1.866.571-4.665 0-5.225-2.096.187 0 .373-.19.56-.19zm79.323 3.048c.186.191.186.572-.187.572-3.173-.381-4.48 1.333-3.733 4.191.56 2.095 1.68 3.619 3.92 4 1.866.381 3.546-1.143 3.732-2.667.374-2.095-.373-3.81-2.24-4.953-.186 0 0-.381.187-.19 4.853 1.143 3.546 9.334-1.493 9.144-3.36-.191-5.04-2.667-5.412-5.525-.374-2.857 2.24-5.715 5.226-4.572zm-15.49-11.43c0-.191.373-.191.56 0 .56 1.524 1.306 2.667 2.986 3.429 1.493.762 3.36.381 4.479-.953 2.426-2.857-1.306-7.81-4.853-6.858-.186 0-.186-.19 0-.19 2.053-1.143 4.106-.381 5.6 1.524 1.493 1.905 1.68 4.572.186 6.477-2.8 3.619-9.892.952-8.959-3.429zm0-109.541c.746-1.524 2.426-2.858 5.226-2.667 3.36.38 4.666 2.667 5.225 4.953.56 3.429-1.306 7.43-5.225 7.43-3.36 0-4.853-1.715-5.6-3.81-.56-1.524-.746-3.62.374-5.906z" fill="#000"/><path d="M77.27 57.342c-.187 3.43 1.866 5.525 4.479 5.716 2.986.19 4.666-2.477 4.666-4.954 0-2.667-1.493-4.953-4.293-5.334-2.426 0-4.666 1.143-4.852 4.572z" fill="#D10021"/><path d="M61.964 55.056c1.12-3.238 5.412-5.334 8.772-2.857 3.36 2.476 3.36 6.096 2.426 8.763-1.12 3.62-6.345 4.763-9.145 2.667-2.613-1.905-2.986-5.525-2.053-8.573z" fill="#000"/><path d="M64.391 62.105c2.426 2.286 6.72 1.334 7.839-1.905 1.306-3.62-.747-7.049-3.173-7.62-2.8-.762-5.226.952-5.973 3.238-.56 2.286-.373 4.763 1.307 6.287z" fill="#D10021"/><path d="M78.762 53.913c-1.867 2.667 0 6.668 3.733 6.859 1.68 0 2.986-.762 3.732-1.905-.186 2.286-1.866 4.572-4.666 4.381-2.613-.19-4.479-2.286-4.479-5.715.187-1.905.747-3.048 1.68-3.62zm-15.678 1.905c.374-1.143 1.12-2.095 2.24-2.857-1.866 1.905-1.306 5.524.933 7.239 1.867 1.333 4.106 1.143 5.973-.19v.19c-1.12 3.238-5.413 4.191-7.839 1.905-1.68-1.524-1.866-4-1.307-6.287z" fill="#960017"/><path d="M92.947 99.444l-38.075.381-.187 8.573 38.262-.953v-8zm0 9.906l.186 38.673-5.785.572v-39.054l5.599-.191zm-7.653.191l.187 38.863-6.72.381.187-39.053 6.346-.191zm-9.146 39.054l-21.65 1.905.373-19.241 21.09-.953.187 18.289zm.002-38.673l-.187 6.096-5.973.191v-6.287h6.16zm-7.653 0l-.187 6.096-5.972.191v-6.287h6.159zm-7.465 0l-.186 6.096-5.973.191v-6.287h6.16z" fill="#000"/><path d="M92.2 106.302v-6.096l-36.395.191v6.858l36.395-.953z" fill="#6BABCC"/><path d="M57.485 100.397c.187 1.143.187 4.381.56 4.381 6.346.381 28.743-.762 34.155-.952v2.286l-36.208.762v-6.668l1.493.191z" fill="#3B82AD"/><path d="M75.029 115.066l.187-4.382h-4.107l.187 4.382h3.733z" fill="#FFFF0F"/><path d="M72.416 110.684h2.986l-.186 4.382c-.934-1.715-1.867-3.048-2.8-4.382z" fill="#FFFF78"/><path d="M67.75 110.494v4.572h-4.293v-4.382l4.293-.19z" fill="#FA6900"/><path d="M90.148 53.913c.933 0 1.866 0 2.612.381 0 2.286.374 4.573.934 6.859.373 1.524.933 3.238 1.493 4.762-.373.19-.747.572-1.12.762-1.306.572-2.8.953-4.106.953.187-.953.187-13.336.187-13.717zm-50.766 50.294c-1.307-.191-2.613-.191-4.107-.191.187-.571.374-1.333.56-2.095 2.24-.953 4.666-.191 5.973 2.857.933 2.096 1.306 4.763.56 7.049-.373.381-.934.571-1.493.571-2.613.191-3.92-.952-4.48-2.476.747 0 2.24-.191 2.986-.191 1.68-1.524.934-4.762 0-5.524zm-1.12-47.627c2.24-.38 4.48-1.333 5.972-3.238 1.68-2.096 1.867-4.382 2.053-6.859.187 0 .374.19.374.19 1.306 2.668 1.68 4.573 1.493 8.574-.373 4-2.053 7.239-2.427 7.239-.373 0-11.571-.381-13.811-6.477 1.866.571 4.106.952 6.346.571zm29.488 53.914v4.572h-4.293v-4.382l4.293-.19z" fill="#CF4D00"/><path d="M67.376 115.066l-2.24-4.572h2.614v4.572h-.374z" fill="#FA8C5A"/><path d="M60.285 110.494v4.572h-4.293v-4.382l4.293-.19z" fill="#CC120A"/><path d="M59.726 115.066c-.56-1.524-1.307-3.048-1.867-4.382h2.427l-.187 4.572-.373-.19z" fill="#F55E3D"/><path d="M75.216 131.068l-19.037.953-.187 16.955 19.224-1.715v-16.193z" fill="#D4D4D1"/><path d="M56.179 132.021l3.733-.191c0 4.191-.187 13.336 0 13.717.186.571 13.624-.191 15.49-.381v1.905l-19.41 1.905.187-16.955z" fill="#B1B1AB"/><path d="M92.2 110.113l-3.733.19.186 36.577 3.733-.19-.186-36.577z" fill="#AB54C4"/><path d="M89.213 110.303c-.186 1.905.56 33.72.747 34.291.187.572 1.866 0 2.426 0v2.096l-3.733.19-.186-36.387.746-.19z" fill="#8530AD"/><path d="M84.548 110.303l-4.48.19.187 36.387 4.293-.19v-36.387z" fill="#80BB7C"/><path d="M81.002 110.494c.374 11.621.374 33.529.56 34.1.187.572 2.24.381 2.987.191v1.905l-4.293.19v-36.386h.746z" fill="#42995E"/><path d="M103.399 187.267c2.426-.571 11.198-1.905 15.678-2.857.186 0 .373.19.186.381-4.293 2.667-10.825 3.239-15.678 3.048-.373 0-.559-.381-.186-.572zm2.986-3.048c1.866-.571 11.198-2.095 13.811-2.286.187 0 .374.191 0 .381-1.866.572-11.011 2.477-13.624 2.667-.56 0-.747-.571-.187-.762zm-.001-3.238c1.867-1.334 11.945-2.477 14.185-2.096.187 0 .187.191 0 .191-1.866.762-11.385 2.476-13.998 2.286-.373.19-.373-.191-.187-.381zm-.56-3.429c4.293-1.143 9.519-2.286 13.998-1.905.187 0 .187.19 0 .381-4.292 1.143-9.332 2.286-13.811 2.286-.56.19-.747-.572-.187-.762zm-.745-2.286c1.68-.572 10.265-2.668 12.878-2.858.187 0 .373.19 0 .381-2.053.952-10.639 3.239-12.878 3.048-.187 0-.373-.381 0-.571zm-.561-2.477c1.493-.953 9.519-2.477 11.758-2.667.187 0 .374.381.187.381-1.866.762-9.705 2.857-11.758 2.857-.374-.19-.56-.571-.187-.571zm-1.492-3.048c2.053-.572 8.772-2.096 10.452-2.286.186 0 .373.381.186.381-1.306.762-8.399 2.476-10.452 2.286-.373.19-.56-.191-.186-.381zm-2.427-1.905c1.307-.762 8.772-2.477 11.012-2.477.187 0 .373.381.187.381-1.494.762-8.959 2.858-11.012 2.667-.373-.19-.373-.571-.187-.571zm-2.239-2.477c1.493-.762 9.332-2.476 11.572-2.667.187 0 .373.191.187.381-1.494.953-9.332 2.667-11.385 3.048-.56.191-.747-.571-.374-.762zm-1.68-2.095c1.306-.953 8.958-2.858 11.198-2.667.186 0 .373.381 0 .381-1.493.571-8.96 2.476-11.012 2.857-.373 0-.373-.381-.187-.571zM95 160.787c1.493-.953 8.772-2.858 10.638-2.858.187 0 .373.381.187.381-1.867.953-8.959 3.049-10.639 3.049-.373 0-.373-.572-.187-.572zm-2.24-2.477c1.68-.952 9.145-2.667 11.012-2.667.373 0 .373.572.187.572-1.68.762-9.146 2.476-11.012 2.857-.374 0-.56-.571-.187-.762zm-1.492-2.286c1.493-.952 3.36-1.143 5.04-1.714 1.679-.381 3.545-.953 5.225-1.143.187 0 .373.381.187.571-1.307.572-2.8.953-4.293 1.524-1.866.572-4.106 1.524-5.972 1.334-.374-.191-.56-.572-.187-.572zm-2.988-2.286c1.68-.762 8.773-2.286 10.64-2.286h.746c-1.68.572-9.519 2.858-11.385 2.667-.187 0-.187-.381 0-.381zm-2.798-.952c1.866-.953 9.145-2.096 10.825-2.286.186 0 .56 0 .373.19-1.68.762-9.332 2.667-11.012 2.667-.186 0-.373-.571-.186-.571zm-27.438 37.529c2.427-.571 11.386-1.905 15.678-2.857.187 0 .374.19.187.381-4.293 2.667-10.639 3.238-15.678 3.048-.373 0-.373-.572-.187-.572zm2.988-3.047c1.867-.572 11.199-2.096 13.812-2.287.186 0 .373.191.186.381-1.866.572-11.012 2.477-13.625 2.668-.56 0-.746-.762-.373-.762zm-.002-3.239c1.867-1.334 11.946-2.477 14.186-2.096.186 0 .186.191 0 .191-1.867.762-11.386 2.476-13.999 2.286-.373.19-.373-.191-.186-.381zm-.56-3.429c4.294-1.143 9.52-2.286 13.999-1.905.187 0 .187.19 0 .381-4.293 1.143-9.332 2.286-13.811 2.286-.56 0-.747-.572-.187-.762zm-.746-2.286c1.68-.572 10.265-2.667 12.878-2.858.187 0 .373.191 0 .381-2.053.953-10.638 3.239-12.878 3.048-.187-.19-.187-.571 0-.571zm-.558-2.667c1.493-.953 9.518-2.477 11.758-2.668.187 0 .373.381.187.381-1.867.763-9.706 2.858-11.759 2.858-.373 0-.373-.381-.186-.571zm-1.495-2.858c2.053-.572 8.586-2.096 10.452-2.286.187 0 .373.381.187.381-1.307.762-8.4 2.477-10.452 2.286-.187 0-.374-.381-.187-.381zm-2.239-2.096c1.306-.762 8.772-2.476 11.012-2.476.186 0 .373.381.186.381-1.493.762-8.958 2.857-11.011 2.667-.374 0-.56-.381-.187-.572zm-2.425-2.286c1.493-.762 9.332-2.476 11.571-2.667.187 0 .374.191.187.381-1.493.953-9.332 2.667-11.385 3.048-.56 0-.747-.571-.373-.762zm-1.682-2.095c1.307-.953 8.96-2.858 11.199-2.667.186 0 .373.381 0 .381-1.493.571-8.959 2.476-11.012 2.857-.187-.19-.373-.571-.187-.571zm-1.493-2.667c1.493-.953 8.773-2.858 10.639-2.858.187 0 .373.381.187.381-1.867.953-8.96 3.048-10.639 3.048-.56 0-.56-.381-.187-.571zm-2.425-2.477c1.68-.952 9.145-2.667 11.011-2.667.374 0 .374.572.187.572-1.68.762-9.145 2.476-11.012 2.857-.373.191-.56-.571-.186-.762zm-2.427-1.905c1.494-.952 8.586-2.667 10.266-2.667.187 0 .373.381.187.571-1.307.572-8.212 2.858-10.266 2.858-.373-.381-.56-.762-.186-.762zm-2.799-2.476c1.68-.762 8.772-2.287 10.639-2.287h.746c-1.68.572-9.519 2.858-11.385 2.668-.187 0-.187-.381 0-.381zm-2.987-1.715c1.68-.762 8.585-1.905 10.265-1.905.187 0 .56 0 .373.19-1.493.572-8.772 2.286-10.452 2.286-.373 0-.56-.381-.186-.571zm-2.986-1.715c.933-.571 9.519-1.714 8.959-1.714-.187 0 .373 0 .373.19-1.306.572-7.652 2.096-9.145 2.096-.187-.191-.373-.572-.187-.572zm-3.359-1.714c1.306-.572 6.719-1.524 8.025-1.524.187 0 .373 0 .187.19-1.12.572-6.906 1.715-8.212 1.905 0-.19-.187-.381 0-.571zm-3.174-1.334c1.12-.571 4.666-1.524 6.906-1.905.186.191.373.191.56.381-2.24.762-6.16 1.905-7.28 1.905-.186 0-.373-.19-.186-.381zm-2.425-.952c1.12-.572 4.852-1.524 6.905-1.905.187 0 .373.19.56.19-2.053.762-6.159 1.905-7.279 2.096-.373 0-.373-.191-.186-.381z" fill="#000"/><path d="M85.108 56.58c0-1.524-2.053-3.238-3.546-2.667-1.493.381 3.546 5.144 3.546 2.667zM71.11 56.2c0-1.525-2.053-3.24-3.546-2.668-1.493.381 3.546 5.144 3.546 2.667z" fill="#FF7866"/><path d="M38.448 47.055c-2.24-.38-4.853.762-5.226 3.239-.373 2.286 8.772-2.667 5.226-3.239z" fill="#FFAD57"/></g><defs><clipPath id="clip0"><path fill="#fff" d="M0 0h147.819v193.935H0z"/></clipPath></defs></svg>