<svg width="55" height="56" fill="none" xmlns="http://www.w3.org/2000/svg"><path d="M3.533 4.674C-.711 9.082.158 13.764.158 27.99c0 11.812-2.061 23.654 8.725 26.442 3.368.866 33.212.866 36.576-.005 4.491-1.159 8.145-4.801 8.644-11.153.07-.887.07-29.666-.002-30.57-.53-6.767-4.695-10.666-10.183-11.456-1.258-.182-1.51-.236-7.963-.247C13.065 1.01 8.048-.008 3.533 4.674z" fill="url(#paint0_linear)"/><path d="M27.153 8.063c-8.17 0-15.927-.727-18.89 6.878-1.225 3.14-1.047 7.22-1.047 13.061 0 5.126-.164 9.943 1.046 13.06 2.957 7.609 10.778 6.88 18.887 6.88 7.823 0 15.89.814 18.889-6.88 1.226-3.173 1.046-7.192 1.046-13.06 0-7.79.43-12.818-3.348-16.594-3.825-3.825-8.998-3.345-16.592-3.345h.01zm-1.786 3.593c17.041-.027 19.21-1.922 18.013 24.397-.425 9.308-7.513 8.286-16.225 8.286-15.885 0-16.341-.454-16.341-16.346 0-16.076 1.26-16.328 14.553-16.342v.005zm12.429 3.31a2.392 2.392 0 100 4.784 2.392 2.392 0 000-4.784zm-10.643 2.796c-5.654 0-10.237 4.586-10.237 10.24 0 5.655 4.583 10.238 10.237 10.238S37.39 33.656 37.39 28.002s-4.582-10.24-10.236-10.24zm0 3.594c8.787 0 8.798 13.293 0 13.293-8.784 0-8.797-13.293 0-13.293z" fill="#fff"/><defs><linearGradient id="paint0_linear" x1="3.636" y1="51.551" x2="53.823" y2="8.114" gradientUnits="userSpaceOnUse"><stop stop-color="#FD5"/><stop offset=".5" stop-color="#FF543E"/><stop offset="1" stop-color="#C837AB"/></linearGradient></defs></svg>