<svg width="304" height="211" fill="none" xmlns="http://www.w3.org/2000/svg"><ellipse cx="148" cy="198.709" rx="109" ry="11.696" fill="#2A4261"/><ellipse cx="148" cy="198.709" rx="109" ry="11.696" fill="#2A4261"/><g clip-path="url(#clip0)"><path d="M301.282 110.513c-1.955-.975-4.412-2.285-6.026-3.086-3.287 1.182-9.52 2.318-12.479 1.61-2.416-.575-3.367-3.387-3.749-4.851-.723-2.739.837-5.11 2.919-6.647 4.64-3.434 10.806-6.567 15.418-9.146-.294-1.904-2.162-9.005-3.2-10.802-1.071-.648-4.425-3.12-6.112-4.015-11.863 2.331-21.115 6.32-28.279 13.054-3.012 2.826-6.132 8.157-5.991 15.606-4.847 1.449-43.469 14.377-58.586 19.481-.093-3.828-.984-11.291-1.265-12.994-1.051-.034-17.841.701-35.777 1.723.047-4.115-.046-8.491-.147-11.297 22.816-.514 68.882-3.527 72.591-4.53 3.247-3.8 6.802-7.535 9.051-10.715.047-2.773-.248-8.498-.736-15.553 1.004-.12 1.955-.254 2.678-.4 4.016-.796 8.053-1.971 11.387-3.568 6.534-3.133 9.319-6.247 10.638-8.678 1.085-2.011 2.557-5.793 2.31-11.27-.248-5.486-1.848-19.308-2.029-21.974 4.171-1.015 9.052-4.402 8.442-12.305-.529-6.781-5.777-10.302-11.762-10.148-6.909.173-11.763 5.685-11.261 12.666.455 6.293 6.059 10.148 11.863 10.342.308 2.853.998 9.072 1.56 14.216-1.781-2.05-4.151-3.226-6.929-3.647-7.833-1.19-15.873 2.077-18.102 3.106-.469.214-.924.441-1.379.662-1.172-12.386-2.324-22.855-2.866-24.986-37.256-.187-100.173 5.044-144.74 11.023-3.702 2.03-12.338 9.647-13.134 11.377a.906.906 0 00-.168.127c-1.138 1.136.93 56.72 3.26 58.583 1.62 1.29 27.83 3.247 48.39 4.516.234 4.363.509 10.275.669 14.291-8.408.547-14.755 1.015-16.603 1.282-3.206 1.43-14.145 8.07-15.84 9.547-.073.508-.066 3.801.041 5.598-2.544-1.69-11.147-7.616-12.144-8.277-1.386-.922-14.374-5.993-16.483-8.304-2.041-2.258-12.01-34.392-15.8-47.994 9.943-3.274 16.544-9.173 20.5-23.316 1.767-6.32 3.334-26.77-1.44-36.858-5.241.188-16.682 1.844-20.987 2.873-.998 1.276-4.9 6.46-5.918 8.164 1.359 7.249 1.486 16.12-1.754 21.833-6.247 2.665-11.529.394-13.323-2.72-2.992-5.17-4.572-17.015-4.914-21.531-3.762-.194-13.39 1.83-16.194 2.752C5.67 16.35 1.144 22.662.187 24.385-.783 31.16 2.13 42.39 5.623 48.964 11.608 60.24 18.751 66.92 31.746 67.002c2.403 9.974 12.057 48.375 13.195 52.924 1.259 5.044 5.276 8.204 10.123 10.516 4.17 1.991 32.61 8.224 40.784 10.134.509 10.963 1.272 23.122 1.874 23.723.268.268 5.865-.12 14.146-.868-.716 4.242-1.694 11.878-2.209 17.477-8.737 3.881-23.612 11.778-26.35 15.773.99 2.806 5.931 5.291 11.294 6.053 5.362.761 14.018-.241 18.571-1.904 3.106 1.67 12.492 3.694 18.758-1.911-.79-6.808-2.718-28.914-3.561-37.078a3238.817 3238.817 0 0037.785-4.049c-.134 6.788-.503 30.491.803 37.499 1.272.909 12.178.501 13.081-.04.911-.548.362-1.997.73-3.447 1.814 1.45 7.88 3.207 9.674 3.421 1.787.213 23.626-5.566 23.987-7.376-4.787-4.015-19.522-8.785-28.928-11.598-1.124-4.843-3.367-15.125-4.264-20.242 4.097-.515 5.677-.809 6.741-1.049 1.5-1.203 7.344-6.561 9.132-8.785.04-1.27-.301-6.04-.509-8.578 17.052-4.102 56.831-13.896 64.845-16.014 2.176 2.706 6.909 5.024 10.377 6.3 3.314 1.223 7.049 1.797 10.631 1.577 3.91-.241 7.619-.648 11.381-1.731 3.046-.875 7.23-2.478 10.176-5.264-.402-2.084-1.854-8.465-2.731-11.952z" fill="#000"/><path d="M70.952 22.634c.187 6.127-.16 10.997-1.5 17.003-1.058 4.716-4.305 12.326-8.241 15.78 8.054-12.233 7.491-30.732 4.666-42.91 1.138-1.831 2.651-4.143 3.073-4.878 1.506 4.142 1.868 10.723 2.002 15.005z" fill="#839196"/><path d="M50.352 8.625c1.78-.314 11.796-1.777 16.85-2.339-.375.842-2.062 3.267-3.34 5.205-4.52.4-12.192 1.57-17.628 2.826.342-.548 3.147-4.316 4.118-5.692z" fill="#CDD4D6"/><path d="M22.89 26.449c.897 3.768 1.922 8.043 4.606 10.963 1.982 2.151 4.512 3.34 7.411 3.213 2.076-.087 3.73-.5 5.028-1.149-1.921 1.998-4.097 3.42-7.297 3.608-7.077.414-12.205-5.666-14.44-21.652.729-1.61 2.37-4.563 3.072-5.405.014 1.21 1.065 8.097 1.62 10.422z" fill="#839196"/><path d="M7.72 17.136c2.61-.768 8.95-2.031 11.829-2.265-.482.648-2.571 4.196-3.073 5.178-3.414.574-9.513 1.843-13.363 3.293.502-.895 3.026-4.556 4.606-6.206z" fill="#CDD4D6"/><path d="M29.383 63.08C12.907 62.484 3.683 41.22 3.1 26.314c1.941-.968 10.129-3.267 12.519-3.587 1.359 13.355 7.618 25.714 18.631 23.255 13.39-2.986 13.108-17.877 12.265-28.767 4.405-1.162 13.45-2.418 17.132-2.612 3.749 18.68.388 34.185-6.42 40.699-5.19 4.964-14.635 8.25-27.844 7.776z" fill="#B7C2C4"/><path d="M46.842 24.512c0 4.202-.415 8.47-1.834 12.125 4.994 5.01 10.102 9.9 15.297 14.704 1.881-3.16 3.294-7.248 4.104-12.025-6.059-4.717-12.01-9.58-17.567-14.805zm-41.292.875c-1.085.36-1.968.688-2.45.928.127 3.34.696 7.002 1.68 10.676 8.087 9.246 17.078 17.77 26.143 26.122 4.519.066 8.576-.334 12.15-1.076-13.315-11.37-25.901-23.576-37.523-36.65z" fill="#D1D8D9"/><path d="M57.4 126.526c-3.394-1.343-6.996-4.77-7.826-7.235-1.118-3.347-10.9-42.055-13.443-52.497 3.394-.32 7.78-1.21 11.95-2.332 4.07 14.785 13.209 46.718 15.652 49.157 2.53 2.525 17.36 8.277 18.143 8.798.843.562 10.303 7.342 13.37 9.353.106 1.27.16 4.383.106 5.178-7.8-1.47-34.558-9.079-37.952-10.422z" fill="#F90"/><path d="M46.247 72.78a57.515 57.515 0 003.782-1.323c-.723-2.572-1.386-4.95-1.948-6.995-4.17 1.123-8.556 2.011-11.95 2.332a2606.99 2606.99 0 001.848 7.469c2.818-.067 5.657-.682 8.268-1.483zm17.486 40.839c-.817-.815-2.383-4.937-4.258-10.603-4.653.936-8.843 3.581-12.372 7.129 1.246 4.776 2.176 8.244 2.478 9.146.823 2.465 4.431 5.885 7.826 7.235 1.734.681 9.553 2.999 17.834 5.298.335-.421.663-.869.958-1.357 1.68-2.826 2.504-6.019 2.905-9.279-4.626-1.951-13.476-5.672-15.37-7.569zm31.513 18.158c-.308-.201-.69-.461-1.111-.748-.094 1.87-.208 3.734-.328 5.598.575.127 1.09.234 1.546.327.054-.801 0-3.908-.107-5.177z" fill="#E57500"/><path d="M299.608 111.374c.677 2.819 1.928 7.943 2.277 9.614-.328-.174-2.826-1.791-3.441-2.091-.65-1.818-1.728-6.34-2.585-9.434.65.461 2.672 1.33 3.749 1.911z" fill="#CDD4D6"/><path d="M278.374 97.926c-1.801 2.385-2.243 5.204-1.285 8.017a8.383 8.383 0 001.205 2.318c-4.399-1.697-7.211-6.554-4.272-11.999 2.712-5.023 11.114-9.613 15.539-10.963 1.285.702 3.568 2.68 3.909 2.953-4.371 2.352-13.007 6.915-15.096 9.674z" fill="#839196"/><path d="M292.927 78.599c.428 1.209 1.961 6.112 2.35 8.103-.295-.173-3.595-2.478-4.58-3.22-.749-2.706-1.412-4.997-2.631-7.943.355.18 4.472 2.746 4.861 3.06z" fill="#CDD4D6"/><path d="M258.442 40.82c3.167 1.643 4.472 3.84 4.479 7.174.837-5.879-1.587-9.64-3.95-10.91-4.733-2.531-15.645-2.598-25.795 4.316-.254.95-.602 1.838-.944 3.16 8.282-3.006 17.601-8.23 26.21-3.74z" fill="#FFE89E"/><path d="M255.698 41.688c-6.99-2.365-18.471 2.618-23.593 4.983.67 6.133 2.049 14.738 2.692 18.613 9.245-.548 21.644-3.935 25.895-11.017 1.988-5.404 1.185-10.482-4.994-12.58z" fill="#FFCF00"/><path d="M232.166 46.645a.243.243 0 00-.061.026c.67 6.133 2.049 14.738 2.692 18.613a55.223 55.223 0 007.525-.989c-3.08-5.324-6.742-11.223-10.156-17.65z" fill="#EAAE00"/><path d="M231.791 17.403c.737 5.873 1.507 13.362 2.23 21.178-.368.207-2.189 1.383-2.946 2.004-.348.849-1.272 3.655-1.754 5.639.777 7.436 3.133 20.844 3.347 22.64.576-.006 2.33-.133 3.79-.266.428 6.246.716 11.183.769 13.622-1.492 2.17-5.027 6.206-6.741 8.404-.562-13.047-4.633-57.013-5.992-64.823 1.312-1.857 5.825-6.968 7.297-8.398z" fill="#E1A100"/><path d="M90.231 25.433c23.593-3.173 79.768-9.34 140.623-10.462-1.386 1.377-7.117 7.222-7.927 8.391-6.996-.354-41.273.435-65.4 2.051-17.527 1.17-63.941 5.672-77.76 8.365 1.3-1.383 7.78-6.4 10.464-8.345z" fill="#FFE881"/><path d="M127.495 94.245c-22.207-1.143-44.553-3.354-45.437-4.109-1.634-1.396-4.84-51.588-3.214-52.985 1.634-1.396 17.681-3.467 22.133-3.928 18.049-1.864 36.178-3.768 54.294-5.05 18.531-1.317 62.917-3.234 65.849-1.377.697.635 6.092 62.94 5.624 64.335-.469 1.397-45.665 3.675-56.798 3.982-8.998.254-23.639.1-42.451-.868z" fill="#FFCF00"/><path d="M154.935 113.445c-4.311 2.124-19.528 2.899-24.034.675-.221-4.523-.495-12.139-.616-15.934 7.746.461 14.387.815 18.143.969 1.62.067 3.823.08 6.467.047.114 5.571.167 10.428.04 14.243z" fill="#F6D300"/><path d="M142.818 105.876c4.311-.274 8.355-1.497 12.137-3.407l-.06-3.26c-2.645.033-4.847.02-6.467-.047-3.749-.154-10.397-.508-18.143-.97.04 1.344.107 3.174.174 5.178 3.401 2.252 8.837 2.74 12.359 2.506z" fill="#C69A00"/><path d="M111.836 115.583c.836-.074 7.203-.474 16.007-1.029.026.795.046 1.416.053 1.79 4.204 2.673 22.334 2.9 30.146-1.449.034-.708.061-1.45.081-2.212 16.87-1.048 32.134-1.99 33.226-2.117-2.618 2.131-6.702 6.239-8.268 7.682-8.73-.247-68.621 3.047-83.483 4.717 3.615-2.331 8.937-5.618 12.238-7.382z" fill="#FFE881"/><path d="M140.743 119.484c10.396-.441 25.225-2.191 27.495-7.429-3.234.201-6.641.408-10.123.628-.02.762-.047 1.504-.08 2.212-7.813 4.349-25.942 4.122-30.146 1.449-.007-.374-.027-.995-.054-1.79-4.318.267-8.047.501-10.825.681 1.486 3.929 13.59 4.677 23.733 4.249z" fill="#F1C93F"/><path d="M120.177 185.029c2.899-.087 4.994-.682 6.588-1.777-.884-7.67-1.975-16.562-2.564-20.991-2.939.287-5.751.561-8.369.808-.837 5.666-2.658 18.887-2.725 19.835 2.069 1.417 4.988 2.185 7.07 2.125z" fill="#F6D300"/><path d="M118.784 185.677c-2.042-.167-4.559-1.062-6.42-2.425-6.548 3.039-19.134 8.778-24.845 13.375 5.745 5.538 24.885 2.485 31.037-4.082 1.118 1.028-.033 3.894-1.981 5.03 3.675 2.298 9.412 1.35 11.521-.755.074-.728-.495-6.186-1.245-12.72-1.808 1.203-4.693 1.851-8.067 1.577z" fill="#FFA100"/><path d="M113.027 183.706a8.41 8.41 0 01-.669-.454c-6.548 3.039-19.134 8.778-24.844 13.374.723.695 1.653 1.256 2.751 1.691 3.81-3.22 18.578-12.64 22.762-14.611z" fill="#FFC68C"/><path d="M182.887 177.747c-1.64-6.26-3.253-16.782-3.923-21.459-2.751.341-6.018.722-9.633 1.136-.141 4.463.006 13.208.227 20.717 3.481 2.031 9.828 1.617 13.329-.394z" fill="#F6D300"/><path d="M124.824 167.158a629.79 629.79 0 00-.63-4.897c-2.939.287-5.75.561-8.368.808-.181 1.223-.408 2.813-.656 4.543 2.912 1.149 7.411.902 9.654-.454zm54.876-5.999a280.218 280.218 0 01-.73-4.871c-2.751.341-6.018.722-9.633 1.136-.04 1.229-.054 2.799-.054 4.563 2.979 1.296 8.59.735 10.417-.828z" fill="#C69A00"/><path d="M207.53 187.461c-1.627-2.452-19.248-6.948-24.309-9.086-1.433.915-3.836 1.75-6.668 1.884-2.182.107-4.954-.074-6.969-1.223.201 6.641.462 12.112.623 12.433.381.762 7.27 1.336 7.652.574.381-.761.375-4.235.361-5.491 1.707 1.209 10.933 5.111 12.466 5.111 1.533.006 13.208-2.479 16.844-4.202z" fill="#FFA100"/><path d="M204.651 188.523c1.178-.361 2.182-.728 2.885-1.056-1.627-2.452-19.247-6.948-24.309-9.085-.247.16-.535.307-.836.461 3.601 2.091 19.22 8.237 22.26 9.68z" fill="#FFC68C"/><path d="M134.819 122.832c-19.134 1.169-36.48 2.144-36.56 2.859-.16 1.369 1.466 33.103 1.962 33.504.763.614 18.122-.969 36.975-2.766-.362-4.396-2.002-27.899-2.377-33.597z" fill="#FFA100"/><path d="M181.381 120.573c-.188-.414-23.887.949-45.317 2.252.302 2.579 2.002 28.914 2.384 33.51 21.309-2.031 44.727-4.863 45.182-5.431.871-1.076-1.807-29.222-2.249-30.331z" fill="#FFCF00"/><path d="M167.649 133.1a.335.335 0 01-.194.1c-.027.007-.047.02-.067.027-.295.16-1.292.875-1.453.735-1.218.995-1.854 2.692-1.466 4.269.67 2.665 4.258 3.3 6.273 1.336 1.433-1.39 1.091-3.28.04-4.984-.803-1.309-1.975-1.944-3.133-1.483zm-8.743 2.692c-2.182.281-3.662 2.271-3.601 4.162.093 3.02 2.838 4.249 4.833 3.741 2.209-.568 3.508-2.238 2.939-4.569-.415-1.704-1.995-3.621-4.171-3.334zm15.043-8.424c-1.078 1.262-1.158 3.607-.261 5.11 1.091 1.837 3.448 2.091 5.342.936 2.196-1.35 2.363-4.851.382-6.561-1.788-1.536-3.803-.648-5.463.515z" fill="#EAAE00"/><path d="M187.747 150.73c-.737-7.302-2.196-24.084-2.745-30.564a465.523 465.523 0 007.371-7.168c.308 2.425.676 7.629.763 9.359-1.372.455-3.729 1.336-4.211 1.503.194 1.637 1.613 13.629 1.767 14.905 1.018-.254 2.062-.481 3.816-.902.087 2.465.275 6.126.369 6.754-1.815 1.65-5.758 5.131-7.13 6.113z" fill="#E1A100"/><path d="M194.448 145.005c.147-.134.308-.274.435-.388-.094-.628-.275-4.289-.368-6.754-1.661.401-2.685.621-3.656.862.991 2.204 2.243 4.276 3.589 6.28z" fill="#CA8A00"/><path d="M192.706 134.402c-.261-2.184-.87-6.767-1.044-9.039 15.846-5.525 49.601-16.581 62.194-20.556.295 2.124 2.149 9.46 4.78 12.927-5.644 1.55-53.196 13.468-65.93 16.668z" fill="#F90"/><path d="M251.875 115.115a22.068 22.068 0 002.403 3.761c2.076-.534 3.596-.928 4.352-1.135-2.631-3.468-4.485-10.796-4.78-12.928-1.158.368-2.504.795-3.983 1.27-.041 3.207.796 6.58 2.008 9.032zm-19.809-3.18c-.027-.013-.047-.04-.067-.06a3428.948 3428.948 0 00-21.416 7.075c-1.332 3.547-1.091 7.482.428 10.856 8.985-2.258 19.368-4.87 28.185-7.095-.482-4.242-3.14-8.177-7.13-10.776z" fill="#E57500"/><path d="M260.23 114.795c-3.582-5.465-3.89-13.556-2.926-17.718.83-3.567 2.933-8.29 9.467-12.706 6.534-4.416 13.356-6.808 19.046-8.278.81 1.51 2.236 5.318 2.444 7.002-7.164 2.732-14.367 7.101-16.898 11.938-2.53 4.837-1.312 9.153 1.366 12.533 3.354 4.249 10.705 5.418 21.035 2.686 0 0 1.821 6.587 2.028 7.85-4.197 2.652-11.977 4.729-18.725 4.729-6.735 0-13.249-2.565-16.837-8.036z" fill="#B7C2C4"/><path d="M290.489 111c-8.602 1.683-14.768.347-17.754-3.434-2.678-3.38-3.896-7.696-1.366-12.533.368-.708.857-1.41 1.413-2.098a288.08 288.08 0 01-6.929-7.903c-3.89 2.833-6.066 5.759-7.304 8.404 1.332 1.417 2.671 2.806 3.963 4.19 5.972 6.399 11.595 13.087 17.768 19.32 1.66 1.677 3.341 3.34 5.028 4.99 4.124-.855 7.96-2.238 10.483-3.835-.073-.44-.341-1.523-.656-2.745a423 423 0 01-4.646-4.356zm-30.018 4.135a16.146 16.146 0 003.688 3.782c-1.231-1.256-2.456-2.519-3.688-3.782z" fill="#D1D8D9"/><path d="M286.942 126.94c-6.869 1.122-14.976 0-17.942-2.452 10.076 2.078 20.687.334 28.459-4.342.455.441 2.859 1.824 3.401 2.131-2.122 1.75-7.056 3.547-13.918 4.663z" fill="#839196"/><path d="M260.665 2.265c-4.646 0-8.415 3.76-8.415 8.397 0 4.643 3.769 8.398 8.415 8.398 4.653 0 8.416-3.755 8.416-8.398 0-4.636-3.763-8.397-8.416-8.397z" fill="#F90"/><path d="M259.796 4.757c3.347-.214 6.038 1.777 7.431 5.11.663 1.577.73 3.748.455 5.438a8.308 8.308 0 001.406-4.643c0-4.636-3.762-8.397-8.415-8.397a8.414 8.414 0 00-8.382 7.67c1.801-3.669 4.941-5.018 7.505-5.178z" fill="#FFC058"/><path d="M59.002 100.905c-9.447 0-17.105 7.636-17.105 17.063 0 9.426 7.658 17.062 17.105 17.062 9.446 0 17.104-7.636 17.104-17.062-.006-9.427-7.658-17.063-17.104-17.063z" fill="#000"/><path d="M59.723 104.266c-7.184 0-13.008 5.812-13.008 12.98 0 7.162 5.824 12.974 13.008 12.974 7.183 0 13.008-5.812 13.008-12.974 0-7.168-5.825-12.98-13.008-12.98z" fill="#B7C2C4"/><path d="M225.378 109.016c-6.714 0-12.157 5.424-12.157 12.132 0 6.694 5.449 12.125 12.157 12.125 6.715 0 12.165-5.431 12.165-12.125-.007-6.708-5.45-12.132-12.165-12.132z" fill="#000"/><path d="M225.886 111.401c-5.108 0-9.245 4.135-9.245 9.232 0 5.098 4.137 9.226 9.245 9.226s9.252-4.128 9.252-9.226c0-5.097-4.137-9.232-9.252-9.232z" fill="#B7C2C4"/><path d="M60.085 111.668c-.489.04-.743-.281-.777-.661-2.45.253-5.476 2.458-6.434 4.088-1.238 2.098-1.8 4.85-.495 7.082 1.54 2.632 4.519 4.215 7.585 4.095 3.508-.127 7.143-2.271 7.157-6.2.007-4.095-2.296-8.852-7.036-8.404zm170.989 11.958c.877-4.008-.73-5.972-3.655-7.596a.767.767 0 01-.522-.08c-2.156-1.189-5.577.227-6.749 2.172-.997 1.676-1.432 4.489-.502 6.266 1.379 2.632 4.017 3.634 6.28 3.38 2.53-.287 4.552-1.436 5.148-4.142z" fill="#92A1A9"/><path d="M225.639 115.409a5.35 5.35 0 00-5.356 5.345 5.353 5.353 0 005.356 5.344 5.348 5.348 0 005.356-5.344 5.35 5.35 0 00-5.356-5.345z" fill="#000"/><path d="M225.865 116.465a4.064 4.064 0 00-4.07 4.062 4.065 4.065 0 004.07 4.062 4.07 4.07 0 004.077-4.062 4.07 4.07 0 00-4.077-4.062z" fill="#F90"/><path d="M59.912 110.586c-3.77 0-6.822 3.046-6.822 6.807 0 3.762 3.06 6.808 6.822 6.808 3.769 0 6.822-3.046 6.822-6.808 0-3.761-3.053-6.807-6.822-6.807z" fill="#000"/><path d="M60.2 111.922a5.179 5.179 0 00-5.188 5.177 5.183 5.183 0 005.188 5.178 5.183 5.183 0 005.188-5.178 5.183 5.183 0 00-5.188-5.177z" fill="#F90"/><path d="M226.515 122.618c-2.852 0-4.118-2.452-3.803-4.637a4.023 4.023 0 00-.917 2.539 4.064 4.064 0 004.07 4.062 4.064 4.064 0 004.071-4.062c-.563 1.202-1.701 2.098-3.421 2.098zm-164.889-2.679c-.027 0-.047 0-.073-.007-1.333-.073-2.518-.481-3.482-1.436a4.93 4.93 0 01-1.44-3.468c0-.748.168-1.429.456-2.057a5.17 5.17 0 00-2.075 4.142 5.183 5.183 0 005.188 5.177 5.182 5.182 0 005.034-3.941c-.903 1.002-2.195 1.67-3.608 1.59z" fill="#E57500"/><path d="M183.548 69.707c-1.024 0-16.402 3.113-24.214 4.482-7.813 1.377-15.853 2.365-22.347 2.62-5.979.226-13.423-.395-19.863-1.317-6.434-.915-16.315-2.752-16.998-2.752-.69 0-1.393 6.366 1.372 11.21 2.765 4.837 6.44 6.674 17.701 6.901 11.26.227 15.813 1.39 24.817 2.058 9.011.668 22.059-.04 25.279-2.058 9.433-5.94 15.626-21.144 14.253-21.144z" fill="#000"/><path d="M166.07 88.767c-6.206 1.603-15.231 1.99-20.352 1.616-4.492-.327-8.342-.56-12.908-1.002-3.749-.36-8.777-.52-12.867-.882-5.316-.467-12.191-.741-15.411-5.945-.81-1.31-2.825-7.476-1.66-7.062 7.123 2.519 23.679 3.721 28.72 4.122 5.751.461 19.033-.989 25.721-2.218 6.681-1.222 19.461-3.855 21.356-4.202 1.272-.227-6.393 13.962-12.599 15.573z" fill="#fff"/><path d="M203.017 42.797c-1.292-1.17-10.846-1.864-19-1.864-7.638 0-57.534 2.198-59.891 2.325-6.386-.669-13.282-4.416-15.612-5.579-2.329-1.162-2.095 3.721 3.053 7.369-3.354.922-6.594 2.385-9.372 4.476-1.634 1.23-3.127 2.592-4.452 4.155-1.487 1.75-2.759 3.661-3.857 5.679a32.092 32.092 0 00-1.526 3.26c-.328.795-.603 1.617-.757 2.465-.307 1.59-.28 3.254.57 4.69 1.425 2.405 4.927 1.383 11.22 1.156 6.293-.234 62.676-1.403 67.65-2.131 8.214-1.21 15.07-.895 18.102-3.22 3.997-3.067 8.128-6.761 11.89-11.39 3.957-4.891 4.251-9.34 1.982-11.392z" fill="#000"/><path d="M186.114 61.857c-4.425 2.552-26.819 3-31.653 3.113-5.329.127-54.1 2.211-59.174 2.251-1.453.014.95-6.006 3.742-9.96 2.792-3.956 5.771-6.828 9.734-8.218 3.964-1.39 8.496-2.592 15.478-2.986 8.737-.501 31.158-.982 34.451-1.25 4.385.107 40.992-2.024 41.695.996.71 3.02-11.461 14.424-14.273 16.054z" fill="#F26200"/><path d="M132.904 47.059c-2.316-.027-5.904.153-8.281.34 3.354 6.107 6.012 12.1 9.085 18.36 3.16-.128 6.172-.248 8.89-.355-3.24-6.293-6.34-12.099-9.694-18.345zm62.214-1.356c-8.041-.434-27.495.18-27.395.387 2.805 6.013 5.905 11.885 9.132 17.697 4.224-.447 7.772-1.068 9.265-1.93 2.524-1.457 12.613-10.823 14.119-14.898-.509-.695-2.751-1.123-5.121-1.256z" fill="#FF9354"/><path d="M116.93 54.46c-1.379 0-2.537 1.15-2.537 2.533 0 1.376 1.151 2.532 2.537 2.532s2.537-1.15 2.537-2.532c0-1.376-1.151-2.532-2.537-2.532zm63.211-3.707c-1.386 0-2.537 1.15-2.537 2.532 0 1.383 1.151 2.532 2.537 2.532s2.537-1.149 2.537-2.532-1.151-2.532-2.537-2.532zM118.69 77.262c-.449 2.232-.63 10.456-.509 12.099.964-.107 1.62-.34 2.591-.368-.047-.821-.127-7.943.214-11.444-.91-.2-1.52-.24-2.296-.287zm20.246.802a37.4 37.4 0 01-2.504.575c-.871 3.614-.824 7.495-.529 11.276.067.261 2.376.715 2.45.328-.341-2.559-.422-8.805.583-12.179zm15.571 14.423c.817-.233 1.66-.293 2.511-.293-.764-4.39-.837-12.607-.322-15.593-.087.013-1.667.22-2.383.247-.77 5.318-.094 14.437.194 15.64zm2.169 11.371c-3.348 2.105-8.342 4.002-13.818 4.229-5.182.214-10.417-.314-14.622-3.754-.08-.067-.294.12-.227.2 3.153 3.601 10.698 4.376 15.063 4.229 6.059-.201 11.796-2.325 13.905-3.908.328-.241.033-1.21-.301-.996z" fill="#000"/><path d="M156.952 107.96c-3.348 2.111-8.342 4.009-13.811 4.229-5.182.214-10.417-.307-14.622-3.748-.08-.067-.294.12-.221.201 3.154 3.594 10.692 4.369 15.063 4.229 6.059-.208 11.797-2.325 13.899-3.915.328-.234.026-1.203-.308-.996zm-.276-8.21c-3.348 2.111-8.342 4.001-13.818 4.228-5.182.214-10.417-.314-14.622-3.754-.08-.067-.294.12-.227.207 3.153 3.594 10.698 4.369 15.063 4.229 6.059-.201 11.796-2.325 13.905-3.908.328-.248.033-1.216-.301-1.002zm-27.783 77.329c-1.988 1.476-4.94 2.792-8.174 2.953-3.073.147-6.186-.221-8.683-2.632-.047-.054-.174.08-.134.14 1.875 2.532 6.347 3.073 8.944 2.973 3.529-.141 6.883-1.584 8.181-2.686-.04-.254-.093-.501-.134-.748zm-.575-3.08c-1.962 1.309-4.667 2.412-7.599 2.552-3.073.147-6.186-.221-8.683-2.632 0-.007-.013 0-.013 0l-.041.24c1.915 2.445 6.307 2.98 8.864 2.88 3.1-.127 6.052-1.25 7.612-2.272a98.619 98.619 0 01-.14-.768zm-.536-2.953c-1.902 1.156-4.392 2.085-7.07 2.218-2.912.14-5.858-.187-8.281-2.271l-.04.334c2.075 2.051 6.058 2.512 8.455 2.418 2.765-.113 5.423-1.022 7.07-1.944-.041-.254-.087-.501-.134-.755zm-.463-2.839c-1.834 1.029-4.137 1.824-6.607 1.944-2.752.127-5.53-.154-7.873-1.944-.02.12-.04.24-.054.361 2.156 1.75 5.811 2.144 8.061 2.064 2.51-.094 4.927-.862 6.587-1.684a18.668 18.668 0 00-.114-.741zm-.4-3c-1.828 1.016-4.117 1.797-6.568 1.924-2.436.121-4.9-.093-7.056-1.389l-.08.347c2.182 1.29 5.275 1.59 7.264 1.517 2.483-.094 4.873-.835 6.527-1.657-.027-.247-.06-.495-.087-.742zm-.247-2.525c-1.788.955-3.984 1.677-6.32 1.797-2.25.107-4.506-.06-6.534-1.102-.027.113-.047.234-.074.347 2.129 1.049 4.901 1.296 6.735 1.229 2.343-.093 4.613-.761 6.253-1.53-.027-.24-.04-.487-.06-.741zm56.663 8.925c-1.949 1.577-4.867 3.02-8.094 3.267-2.718.201-5.47-.02-7.846-1.763.013.147.026.287.033.434 2.216 1.657 5.764 1.964 7.953 1.817 3.528-.234 6.836-1.81 8.108-2.993-.047-.247-.101-.501-.154-.762zm-.65-3.166c-1.928 1.396-4.606 2.612-7.532 2.832-2.765.207-5.563-.02-7.96-1.844l.02.428c2.203 1.744 5.845 2.058 8.081 1.917 3.093-.207 6.018-1.443 7.545-2.545-.047-.267-.101-.528-.154-.788zm-.736-2.98c-1.861 1.209-4.271 2.198-6.882 2.392-2.799.213-5.637-.027-8.047-1.918l.02.421c2.189 1.804 5.898 2.138 8.167 1.991 2.712-.18 5.296-1.156 6.922-2.131-.06-.247-.12-.501-.18-.755zm-.623-2.886c-1.781 1.049-3.977 1.877-6.346 2.058-2.718.207-5.47-.02-7.84-1.764-.007.134-.02.26-.027.387 2.21 1.697 5.805 2.011 8.014 1.864 2.417-.16 4.72-.948 6.346-1.81-.046-.241-.093-.488-.147-.735zm-.549-3.06c-1.754 1.022-3.916 1.824-6.239 1.998-2.431.187-4.901.026-7.083-1.263-.027.127-.047.247-.074.367 2.216 1.276 5.315 1.524 7.304 1.39 2.35-.154 4.599-.909 6.219-1.744-.04-.253-.087-.501-.127-.748zm-.382-2.578c-1.7.941-3.735 1.656-5.918 1.823-2.242.167-4.505.047-6.56-.975-.021.12-.041.247-.067.367 2.155 1.029 4.934 1.223 6.768 1.103 2.196-.147 4.298-.809 5.885-1.577a9.955 9.955 0 01-.108-.741z" fill="#000"/><path d="M155.452 95.634c-3.348 2.105-8.342 4.002-13.811 4.23-5.175.213-10.417-.315-14.622-3.755-.08-.067-.294.12-.221.207 3.154 3.6 10.699 4.376 15.063 4.229 6.059-.201 11.797-2.325 13.899-3.909.328-.247.033-1.209-.308-1.002zm-24.57 30.469l-29.538 2.235 2.023 26.625 29.538-2.235-2.023-26.625z" fill="#000"/><path d="M102.275 129.138l1.855 24.398 27.421-2.064-1.854-24.412-27.422 2.078z" fill="#FFFFB5"/><path d="M131.143 146.194l-1.452-19.134-23.834 1.804c8.288 5.986 16.69 11.812 25.286 17.33z" fill="#FFFFE7"/><path d="M106.072 130.298l-2.424.183.172 2.259 2.423-.183-.171-2.259zm.432 4.995l-2.424.179.168 2.259 2.423-.179-.167-2.259zm.222 2.458l-2.423.183.171 2.252 2.423-.183-.171-2.252zm.229 2.511l-2.43.184.171 2.251 2.43-.184-.171-2.251zm.236 2.477l-2.423.185.173 2.258 2.423-.185-.173-2.258zm.248 2.473l-2.423.183.17 2.251 2.424-.183-.171-2.251zm.213 2.509l-2.423.181.168 2.252 2.423-.181-.168-2.252zm-2.183 2.648l.174 2.245 2.423-.174-.167-2.258-2.43.187zm3.634-17.84l-2.423.185.172 2.251 2.423-.184-.172-2.252zm.238 2.509l-2.423.185.172 2.251 2.424-.184-.173-2.252zm.457 4.99l-2.423.182.169 2.251 2.424-.181-.17-2.252zm.241 2.452l-2.424.181.17 2.259 2.423-.182-.169-2.258zm.454 4.999l-2.423.186.174 2.258 2.423-.186-.174-2.258zm.235 2.451l-2.423.184.172 2.258 2.423-.184-.172-2.258zm1.443-15.125l-2.423.182.17 2.252 2.423-.183-.17-2.251zm.227 2.461l-2.423.184.171 2.252 2.423-.184-.171-2.252zm.24 2.514l-2.423.179.167 2.258 2.424-.178-.168-2.259zm.246 2.457l-2.423.182.17 2.252 2.423-.182-.17-2.252zm-2.206 2.667l.174 2.252 2.423-.18-.174-2.252-2.423.18zm2.652 2.332l-2.424.181.17 2.259 2.424-.182-.17-2.258zm.242 2.46l-2.424.181.17 2.259 2.423-.182-.169-2.258zm1.666-12.728l-2.424.182.171 2.258 2.423-.182-.17-2.258zm.24 2.511l-2.423.182.17 2.252 2.423-.182-.17-2.252zm.465 4.935l-2.423.184.172 2.252 2.423-.185-.172-2.251zm.233 2.513l-2.424.179.167 2.259 2.424-.179-.167-2.259zm1.382-15.125l-2.423.182.17 2.252 2.423-.182-.17-2.252zm.459 4.978l-2.423.185.173 2.258 2.423-.185-.173-2.258zm.467 4.966l-2.423.181.169 2.252 2.423-.181-.169-2.252zm-2.183 2.664l.167 2.258 2.424-.187-.168-2.258-2.423.187zm2.653 2.319l-2.423.185.173 2.258 2.423-.185-.173-2.258zm.229 2.472l-2.423.184.172 2.251 2.423-.184-.172-2.251zm.965-20.124l-2.423.185.172 2.252 2.423-.185-.172-2.252zm-1.544 10.142l.174 2.258 2.423-.18-.167-2.258-2.43.18zm2.667 2.269l-2.423.187.175 2.252 2.423-.188-.175-2.251zm.225 2.489l-2.424.18.168 2.252 2.424-.18-.168-2.252zm.476 4.964l-2.423.18.168 2.252 2.423-.18-.168-2.252zm-.818-12.534l.174 2.251 2.417-.18-.167-2.259-2.424.188zm2.88 4.779l-2.423.183.172 2.259 2.423-.183-.172-2.259zm.471 4.992l-2.423.18.168 2.252 2.423-.18-.168-2.252zm.241 2.468l-2.424.182.17 2.259 2.424-.182-.17-2.259zm1.15-17.655l-2.423.181.169 2.259 2.424-.181-.17-2.259zm.695 7.485l-2.423.184.172 2.258 2.423-.184-.172-2.258zm-1.962 5.132l.167 2.258 2.43-.18-.174-2.258-2.423.18zm2.652 2.337l-2.424.181.17 2.252 2.423-.181-.169-2.252zm2.258-5.244l-2.424.182.17 2.258 2.424-.182-.17-2.258zm.236 2.483l-2.423.182.17 2.252 2.423-.182-.17-2.252zm-1.959 5.154l.168 2.252 2.43-.187-.174-2.252-2.424.187zm48.924-24.825l-.776.053c-.389.027-.676.448-.643.949l1.205 17.911c.034.494.375.875.763.855l.777-.053c.388-.027.676-.455.643-.949l-1.199-17.911c-.04-.494-.381-.882-.77-.855zm-9.044.648l-.783.053c-.388.027-.676.448-.643.949l1.205 17.911c.034.501.375.882.763.855l.784-.047c.388-.026.676-.454.642-.948l-1.205-17.911c-.033-.508-.375-.889-.763-.862zm-8.925.641l-.776.047c-.388.027-.676.454-.65.949l1.206 17.911c.033.494.374.875.763.855l.776-.047c.389-.027.676-.454.643-.949l-1.205-17.911c-.02-.494-.362-.881-.757-.855z" fill="#000"/><path d="M176.694 125.13a3.42 3.42 0 00-3.421 3.413 3.415 3.415 0 003.421 3.408 3.418 3.418 0 003.421-3.408 3.42 3.42 0 00-3.421-3.413z" fill="#000"/><path d="M176.702 126.078a2.464 2.464 0 00-2.464 2.459 2.463 2.463 0 002.464 2.458 2.463 2.463 0 002.464-2.458 2.456 2.456 0 00-2.464-2.459z" fill="#F82739"/><path d="M176.949 127.234c.877 0 1.66.414 2.196 1.049a2.448 2.448 0 00-2.437-2.198 2.463 2.463 0 00-2.417 2.946c.435-1.049 1.466-1.797 2.658-1.797zm-8.985 5.852a2.464 2.464 0 00-2.464 2.459 2.463 2.463 0 002.464 2.458 2.458 2.458 0 100-4.917z" fill="#FF876F"/><path d="M167.964 133.086a2.464 2.464 0 00-2.464 2.459 2.463 2.463 0 002.464 2.458 2.458 2.458 0 100-4.917zm-8.743 2.853a2.458 2.458 0 100 4.917 2.463 2.463 0 002.464-2.459 2.463 2.463 0 00-2.464-2.458z" fill="#FF876F"/><path d="M167.958 132.138a3.42 3.42 0 00-3.421 3.414 3.42 3.42 0 003.421 3.413 3.415 3.415 0 003.421-3.413 3.42 3.42 0 00-3.421-3.414z" fill="#000"/><path d="M167.966 133.086a2.464 2.464 0 00-2.464 2.459 2.463 2.463 0 002.464 2.458 2.458 2.458 0 100-4.917z" fill="#F82739"/><path d="M168.073 134.289c1.131 0 1.914.541 2.356 1.276v-.02a2.463 2.463 0 00-4.927 0c0 .134.02.254.04.381.382-.922 1.219-1.637 2.531-1.637z" fill="#FF876F"/><path d="M159.214 134.997a3.42 3.42 0 00-3.421 3.414 3.415 3.415 0 003.421 3.414 3.42 3.42 0 003.421-3.414 3.42 3.42 0 00-3.421-3.414z" fill="#000"/><path d="M159.221 135.939a2.458 2.458 0 100 4.917 2.463 2.463 0 002.464-2.459 2.463 2.463 0 00-2.464-2.458z" fill="#F82739"/><path d="M159.274 137.041h.087c.937 0 1.781.475 2.31 1.19a2.455 2.455 0 00-2.444-2.285 2.458 2.458 0 00-2.463 2.458c0 .047.006.087.013.134.489-.882 1.426-1.497 2.497-1.497z" fill="#FF876F"/></g><defs><clipPath id="clip0"><path fill="#fff" d="M0 0h304v203H0z"/></clipPath></defs></svg>