<svg width="54" height="54" fill="none" xmlns="http://www.w3.org/2000/svg"><path d="M27 54c14.912 0 27-12.088 27-27S41.912 0 27 0 0 12.088 0 27s12.088 27 27 27z" fill="#827DDC"/><path d="M9.822 38.249l18.298 3.21V12.12L9.822 15.33v22.92zm19.616-1.651a3.984 3.984 0 006.486-3.1v-9.58h-6.486v12.68zm2.502-14.171a3.166 3.166 0 10-2.503-5.104V21.2a3.16 3.16 0 002.502 1.227zm12.174 3.543h-6.88v8.462a3.94 3.94 0 006.944-2.592l-.064-5.87zm-3.94-1.474a3.131 3.131 0 100-6.262 3.131 3.131 0 000 6.262z" fill="#302C89"/><path d="M22.579 23.509h-2.73v7.974h-1.647V23.51h-2.73v-1.64h7.107v1.639z" fill="#fff"/></svg>