<svg width="54" height="54" fill="none" xmlns="http://www.w3.org/2000/svg"><path d="M27.007 0h-.014C12.106 0 0 12.11 0 27a26.8 26.8 0 005.14 15.825l-3.365 10.03 10.378-3.317A26.766 26.766 0 0027.007 54C41.894 54 54 41.887 54 27S41.894 0 27.007 0z" fill="#4CAF50"/><path d="M42.717 38.127c-.651 1.84-3.237 3.365-5.299 3.81-1.41.301-3.253.54-9.457-2.031-7.934-3.287-13.044-11.35-13.442-11.873-.382-.523-3.207-4.27-3.207-8.144 0-3.875 1.968-5.761 2.761-6.571.652-.665 1.728-.969 2.761-.969.334 0 .634.017.904.03.794.034 1.192.082 1.715 1.334.651 1.569 2.238 5.444 2.427 5.842.192.398.384.938.114 1.461-.253.54-.476.78-.874 1.239-.398.459-.776.81-1.174 1.303-.365.428-.777.887-.318 1.68.46.777 2.046 3.365 4.381 5.444 3.014 2.683 5.458 3.54 6.332 3.905.651.27 1.427.206 1.903-.3.604-.652 1.35-1.732 2.11-2.795.54-.763 1.221-.857 1.937-.587.729.253 4.587 2.16 5.38 2.555.793.398 1.316.587 1.508.921.19.334.19 1.904-.462 3.746z" fill="#FAFAFA"/></svg>